<svg id="Layer_1" data-name="Layer 1" xmlns="http://www.w3.org/2000/svg" xmlns:xlink="http://www.w3.org/1999/xlink" viewBox="0 0 218 481"><defs><style>.cls-1{fill:url(#linear-gradient);}.cls-2{fill:none;stroke:#232323;stroke-miterlimit:10;stroke-width:3px;}</style><linearGradient id="linear-gradient" x1="367.65" y1="438.65" x2="778.08" y2="438.65" gradientTransform="translate(-526.21 -202.48)" gradientUnits="userSpaceOnUse"><stop offset="0" stop-color="#ffdbb8"/><stop offset="0.5" stop-color="#f59877"/><stop offset="1" stop-color="#eb5838"/></linearGradient></defs><title>Untitled-1</title><rect class="cls-1" x="-158.56" y="208.83" width="410.43" height="54.69" transform="translate(282.83 189.52) rotate(90)"/><line class="cls-2" x1="82.5" y1="18" x2="82.5" y2="460"/><path d="M103.75,51.94H93.83l.27-1.71L100,43.55a20.16,20.16,0,0,0,2.06-2.86,7.27,7.27,0,0,0,.82-2.22,4.17,4.17,0,0,0-.18-2.41,1.48,1.48,0,0,0-1.43-.89,2.49,2.49,0,0,0-2,1A5.75,5.75,0,0,0,98.15,39H95.72l0-.08a6.87,6.87,0,0,1,1.93-4.08,5.39,5.39,0,0,1,4-1.61,3.7,3.7,0,0,1,3.16,1.44,4.83,4.83,0,0,1,.7,3.77,7.87,7.87,0,0,1-1.26,3.14A25.72,25.72,0,0,1,101.4,45l-4,5,0,.07h6.65Z"/><path d="M122.57,45.76a10.88,10.88,0,0,1-2,4.84,4.25,4.25,0,0,1-3.41,1.61,3.42,3.42,0,0,1-1.61-.38,3.32,3.32,0,0,1-1.18-1.09l-1.29,6.48h-2.56l3.8-19h2.29l-.12,1.19a4.66,4.66,0,0,1,1.42-1.08A3.78,3.78,0,0,1,119.6,38a2.94,2.94,0,0,1,2.8,2.16,9.5,9.5,0,0,1,.23,5.38Zm-2.49-.27a9.73,9.73,0,0,0,.13-4c-.24-1-.78-1.52-1.63-1.52a2,2,0,0,0-1.3.51,4.92,4.92,0,0,0-1.11,1.35l-1.4,7a1.88,1.88,0,0,0,2,1.43,2.38,2.38,0,0,0,2-1.2A8.87,8.87,0,0,0,120,45.76Z"/><path d="M131.77,40.38l-1.15-.07a2,2,0,0,0-1.28.5,4.55,4.55,0,0,0-1.05,1.38l-1.95,9.75h-2.55l2.74-13.73h2.32L128.66,40l.06,0A5.19,5.19,0,0,1,130,38.51a2.68,2.68,0,0,1,1.62-.56,2.59,2.59,0,0,1,.47,0,2.1,2.1,0,0,1,.4.1Z"/><path d="M132.32,44.21a8.16,8.16,0,0,1,2.07-4.55,5.33,5.33,0,0,1,4-1.71,3.77,3.77,0,0,1,3.41,1.78,6.28,6.28,0,0,1,.69,4.48L142.25,46a8.31,8.31,0,0,1-2.08,4.55,5.32,5.32,0,0,1-4,1.7,3.8,3.8,0,0,1-3.43-1.77A6.16,6.16,0,0,1,132,46ZM134.58,46a6.3,6.3,0,0,0,.12,3.13,1.73,1.73,0,0,0,1.77,1.16A2.48,2.48,0,0,0,138.54,49,7.51,7.51,0,0,0,139.69,46l.28-1.75a6.19,6.19,0,0,0-.13-3.1,1.69,1.69,0,0,0-1.73-1.18A2.52,2.52,0,0,0,136,41.15a7.14,7.14,0,0,0-1.14,3.06Z"/><path d="M149.09,38.21l-2.93,14.67a6.67,6.67,0,0,1-1.64,3.48,4,4,0,0,1-2.91,1.13,3.21,3.21,0,0,1-.63-.06,3.3,3.3,0,0,1-.63-.17l.54-2a2.3,2.3,0,0,0,.42.13,2.37,2.37,0,0,0,.44,0,1.41,1.41,0,0,0,1.1-.65,4.64,4.64,0,0,0,.77-1.94l2.93-14.67Zm.68-3.65h-2.55l.48-2.42h2.56Z"/><path d="M154.29,52.21a3.93,3.93,0,0,1-3.44-1.71,5.85,5.85,0,0,1-.75-4.35l.32-2a8.21,8.21,0,0,1,2.08-4.5,5.07,5.07,0,0,1,3.77-1.7,3.43,3.43,0,0,1,3.15,1.61,6.24,6.24,0,0,1,.56,4.27l-.28,1.78h-7l-.09.54a5,5,0,0,0,.23,3,1.92,1.92,0,0,0,1.9,1.12,4.45,4.45,0,0,0,1.78-.34,6.08,6.08,0,0,0,1.55-1l.54,1.6a5.61,5.61,0,0,1-1.85,1.21A6.39,6.39,0,0,1,154.29,52.21ZM156,39.93a2.29,2.29,0,0,0-1.8,1.09A7,7,0,0,0,153,43.77h4.46l.09-.52a4.44,4.44,0,0,0-.15-2.42A1.44,1.44,0,0,0,156,39.93Z"/><path d="M165.82,50.25a2.23,2.23,0,0,0,1.61-.74,3.46,3.46,0,0,0,.95-2h2.28l0,.08a5.2,5.2,0,0,1-1.78,3.31,5,5,0,0,1-3.38,1.3,3.74,3.74,0,0,1-3.44-1.76,6.37,6.37,0,0,1-.65-4.41l.3-1.89a8.48,8.48,0,0,1,2-4.49,5.26,5.26,0,0,1,4-1.71,3.5,3.5,0,0,1,3,1.41,4.67,4.67,0,0,1,.7,3.66H169.1a3.59,3.59,0,0,0-.22-2.26,1.5,1.5,0,0,0-1.41-.83,2.41,2.41,0,0,0-2.11,1.21,7.55,7.55,0,0,0-1.08,3L164,46a6.78,6.78,0,0,0,.07,3.07A1.65,1.65,0,0,0,165.82,50.25Z"/><path d="M178.72,34.79,178,38.21h2l-.37,1.84h-2L176,48.22a2.89,2.89,0,0,0,0,1.56.73.73,0,0,0,.7.41,3.27,3.27,0,0,0,.54,0c.17,0,.38-.06.61-.11l-.11,1.78a6.44,6.44,0,0,1-1,.28,5.6,5.6,0,0,1-1.09.11,2.16,2.16,0,0,1-2-1,4.12,4.12,0,0,1-.21-3l1.63-8.17h-1.69l.37-1.84h1.68l.69-3.42Z"/><path d="M186.64,48.5a1.71,1.71,0,0,0-.27-1.36,5.13,5.13,0,0,0-1.66-1.2A7.84,7.84,0,0,1,182,44.19a2.8,2.8,0,0,1-.6-2.43A4.27,4.27,0,0,1,183,39,5.15,5.15,0,0,1,186.35,38a3.77,3.77,0,0,1,3,1.21,3.37,3.37,0,0,1,.73,3l0,.07h-2.45a2.59,2.59,0,0,0-.24-1.7,1.36,1.36,0,0,0-1.29-.69,2.24,2.24,0,0,0-2.19,1.83,1.51,1.51,0,0,0,.22,1.25,6.68,6.68,0,0,0,1.69,1.19,7.08,7.08,0,0,1,2.78,1.75,3,3,0,0,1,.59,2.53,4.2,4.2,0,0,1-1.67,2.79,5.57,5.57,0,0,1-3.43,1,3.93,3.93,0,0,1-3.19-1.31,3.43,3.43,0,0,1-.74-3l0-.06h2.39a2.31,2.31,0,0,0,.36,1.92,1.9,1.9,0,0,0,1.49.59,2.27,2.27,0,0,0,1.51-.52A2.11,2.11,0,0,0,186.64,48.5Z"/><path d="M100.1,441H97.56L100.74,425l-3.46.24.33-1.67,6.18-1.16Z"/><path d="M116,440.94h-9.92l.28-1.71,5.9-6.68a19.38,19.38,0,0,0,2.06-2.86,7.27,7.27,0,0,0,.82-2.22,4.17,4.17,0,0,0-.18-2.41,1.48,1.48,0,0,0-1.43-.89,2.49,2.49,0,0,0-2,1,5.65,5.65,0,0,0-1.09,2.76H108l0-.08a6.93,6.93,0,0,1,1.93-4.08,5.4,5.4,0,0,1,4-1.61,3.68,3.68,0,0,1,3.15,1.44,4.83,4.83,0,0,1,.71,3.77,8,8,0,0,1-1.27,3.14,26.35,26.35,0,0,1-2.78,3.43l-4,4.95,0,.07h6.65Z"/><path d="M134.82,434.76a10.88,10.88,0,0,1-2,4.84,4.24,4.24,0,0,1-3.4,1.61,3.21,3.21,0,0,1-2.8-1.47l-1.29,6.48H122.8l3.79-19h2.29l-.12,1.19a4.66,4.66,0,0,1,1.42-1.08,3.81,3.81,0,0,1,1.67-.37,2.94,2.94,0,0,1,2.8,2.16,9.42,9.42,0,0,1,.23,5.38Zm-2.49-.27a9.73,9.73,0,0,0,.13-4c-.24-1-.78-1.52-1.63-1.52a2,2,0,0,0-1.3.51,4.92,4.92,0,0,0-1.11,1.35l-1.4,7a1.88,1.88,0,0,0,2,1.43,2.38,2.38,0,0,0,2-1.2,8.87,8.87,0,0,0,1.25-3.29Z"/><path d="M144,429.38l-1.15-.07a2,2,0,0,0-1.28.5,4.55,4.55,0,0,0-1.05,1.38l-1.95,9.75H136l2.74-13.73h2.32l-.19,1.82.07,0a4.92,4.92,0,0,1,1.32-1.56,2.65,2.65,0,0,1,1.61-.56,2.59,2.59,0,0,1,.47.05,2.1,2.1,0,0,1,.4.1Z"/><path d="M144.57,433.21a8.16,8.16,0,0,1,2.07-4.55,5.33,5.33,0,0,1,4-1.71,3.77,3.77,0,0,1,3.41,1.78,6.33,6.33,0,0,1,.7,4.48L154.5,435a8.31,8.31,0,0,1-2.08,4.55,5.31,5.31,0,0,1-4,1.7,3.81,3.81,0,0,1-3.44-1.77,6.16,6.16,0,0,1-.69-4.48Zm2.26,1.75a6.17,6.17,0,0,0,.13,3.13,1.71,1.71,0,0,0,1.76,1.16,2.48,2.48,0,0,0,2.07-1.21,7.37,7.37,0,0,0,1.15-3.08l.28-1.75a6.19,6.19,0,0,0-.13-3.1,1.69,1.69,0,0,0-1.73-1.18,2.52,2.52,0,0,0-2.11,1.22,7.14,7.14,0,0,0-1.14,3.06Z"/><path d="M161.34,427.21l-2.93,14.67a6.67,6.67,0,0,1-1.64,3.48,4,4,0,0,1-2.91,1.13,3.21,3.21,0,0,1-.63-.06,3.3,3.3,0,0,1-.63-.17l.54-2a2.3,2.3,0,0,0,.42.13,2.47,2.47,0,0,0,.44.05,1.44,1.44,0,0,0,1.11-.65,4.78,4.78,0,0,0,.76-1.94l2.93-14.67Zm.68-3.65h-2.55l.49-2.42h2.55Z"/><path d="M166.54,441.21a3.93,3.93,0,0,1-3.44-1.71,5.85,5.85,0,0,1-.75-4.35l.32-2a8.21,8.21,0,0,1,2.08-4.5,5.07,5.07,0,0,1,3.77-1.7,3.43,3.43,0,0,1,3.15,1.61,6.24,6.24,0,0,1,.56,4.27l-.28,1.78h-7l-.09.54a5,5,0,0,0,.23,3,1.92,1.92,0,0,0,1.9,1.12,4.42,4.42,0,0,0,1.78-.34,6.08,6.08,0,0,0,1.55-1l.55,1.6a5.65,5.65,0,0,1-1.86,1.21A6.39,6.39,0,0,1,166.54,441.21Zm1.67-12.28a2.29,2.29,0,0,0-1.8,1.09,7,7,0,0,0-1.15,2.75h4.46l.09-.52a4.44,4.44,0,0,0-.15-2.42A1.44,1.44,0,0,0,168.21,428.93Z"/><path d="M178.07,439.25a2.23,2.23,0,0,0,1.61-.74,3.53,3.53,0,0,0,1-2h2.27l0,.08a5.2,5.2,0,0,1-1.78,3.31,5,5,0,0,1-3.38,1.3,3.74,3.74,0,0,1-3.44-1.76,6.37,6.37,0,0,1-.65-4.41l.3-1.89a8.41,8.41,0,0,1,2-4.49,5.22,5.22,0,0,1,4-1.71,3.49,3.49,0,0,1,3,1.41,4.63,4.63,0,0,1,.7,3.66h-2.37a3.59,3.59,0,0,0-.22-2.26,1.5,1.5,0,0,0-1.41-.83,2.41,2.41,0,0,0-2.11,1.21,7.4,7.4,0,0,0-1.07,3l-.31,1.89a6.78,6.78,0,0,0,.07,3.07A1.65,1.65,0,0,0,178.07,439.25Z"/><path d="M191,423.79l-.69,3.42h2l-.37,1.84h-2l-1.63,8.17a2.76,2.76,0,0,0,0,1.56.7.7,0,0,0,.69.41,3.27,3.27,0,0,0,.54,0c.17,0,.38-.06.61-.11l-.11,1.78a6.44,6.44,0,0,1-1,.28,5.52,5.52,0,0,1-1.09.11,2.16,2.16,0,0,1-2-1,4.12,4.12,0,0,1-.21-3l1.63-8.17h-1.69l.37-1.84h1.69l.68-3.42Z"/><path d="M198.89,437.5a1.71,1.71,0,0,0-.27-1.36,5.13,5.13,0,0,0-1.66-1.2,7.84,7.84,0,0,1-2.73-1.75,2.8,2.8,0,0,1-.59-2.43,4.22,4.22,0,0,1,1.63-2.72A5.15,5.15,0,0,1,198.6,427a3.81,3.81,0,0,1,3,1.21,3.39,3.39,0,0,1,.72,3l0,.07h-2.45a2.53,2.53,0,0,0-.24-1.7,1.36,1.36,0,0,0-1.29-.69,2.24,2.24,0,0,0-2.19,1.83,1.51,1.51,0,0,0,.22,1.25A6.68,6.68,0,0,0,198,433.1a7.08,7.08,0,0,1,2.78,1.75,3,3,0,0,1,.6,2.53,4.25,4.25,0,0,1-1.68,2.79,5.57,5.57,0,0,1-3.43,1,3.91,3.91,0,0,1-3.18-1.31,3.4,3.4,0,0,1-.75-3l0-.06h2.39a2.31,2.31,0,0,0,.36,1.92,1.9,1.9,0,0,0,1.49.59,2.25,2.25,0,0,0,1.51-.52A2.11,2.11,0,0,0,198.89,437.5Z"/><path d="M106.38,215.44a27,27,0,0,0-4.51,6.7,47.91,47.91,0,0,0-2.6,8l-.44,1.76H96.3l.42-1.76a40.08,40.08,0,0,1,2.87-8.06,34,34,0,0,1,4.32-6.68H96.06l.32-2H106.7Z"/><path d="M122.57,225.76a10.88,10.88,0,0,1-2,4.84,4.25,4.25,0,0,1-3.41,1.61,3.42,3.42,0,0,1-1.61-.38,3.32,3.32,0,0,1-1.18-1.09l-1.29,6.48h-2.56l3.8-19h2.29l-.12,1.19a4.66,4.66,0,0,1,1.42-1.08,3.78,3.78,0,0,1,1.67-.37,2.94,2.94,0,0,1,2.8,2.16,9.5,9.5,0,0,1,.23,5.38Zm-2.49-.27a9.73,9.73,0,0,0,.13-4c-.24-1-.78-1.52-1.63-1.52a2,2,0,0,0-1.3.51,4.92,4.92,0,0,0-1.11,1.35l-1.4,7a1.88,1.88,0,0,0,2,1.43,2.38,2.38,0,0,0,2-1.2,8.87,8.87,0,0,0,1.25-3.29Z"/><path d="M131.77,220.38l-1.15-.07a2,2,0,0,0-1.28.5,4.55,4.55,0,0,0-1.05,1.38l-1.95,9.75h-2.55l2.74-13.73h2.32l-.19,1.82.06,0a5.19,5.19,0,0,1,1.32-1.56,2.68,2.68,0,0,1,1.62-.56,2.59,2.59,0,0,1,.47.05,2.1,2.1,0,0,1,.4.1Z"/><path d="M132.32,224.21a8.16,8.16,0,0,1,2.07-4.55,5.33,5.33,0,0,1,4-1.71,3.77,3.77,0,0,1,3.41,1.78,6.28,6.28,0,0,1,.69,4.48l-.27,1.75a8.31,8.31,0,0,1-2.08,4.55,5.32,5.32,0,0,1-4,1.7,3.8,3.8,0,0,1-3.43-1.77A6.16,6.16,0,0,1,132,226Zm2.26,1.75a6.3,6.3,0,0,0,.12,3.13,1.73,1.73,0,0,0,1.77,1.16,2.48,2.48,0,0,0,2.07-1.21,7.51,7.51,0,0,0,1.15-3.08l.28-1.75a6.19,6.19,0,0,0-.13-3.1,1.69,1.69,0,0,0-1.73-1.18,2.52,2.52,0,0,0-2.11,1.22,7.14,7.14,0,0,0-1.14,3.06Z"/><path d="M149.09,218.21l-2.93,14.67a6.67,6.67,0,0,1-1.64,3.48,4,4,0,0,1-2.91,1.13,3.21,3.21,0,0,1-.63-.06,3.3,3.3,0,0,1-.63-.17l.54-2a2.3,2.3,0,0,0,.42.13,2.37,2.37,0,0,0,.44.05,1.41,1.41,0,0,0,1.1-.65,4.64,4.64,0,0,0,.77-1.94l2.93-14.67Zm.68-3.65h-2.55l.48-2.42h2.56Z"/><path d="M154.29,232.21a3.93,3.93,0,0,1-3.44-1.71,5.85,5.85,0,0,1-.75-4.35l.32-2a8.21,8.21,0,0,1,2.08-4.5,5.07,5.07,0,0,1,3.77-1.7,3.43,3.43,0,0,1,3.15,1.61,6.24,6.24,0,0,1,.56,4.27l-.28,1.78h-7l-.09.54a5,5,0,0,0,.23,3,1.92,1.92,0,0,0,1.9,1.12,4.45,4.45,0,0,0,1.78-.34,6.08,6.08,0,0,0,1.55-1l.54,1.6a5.61,5.61,0,0,1-1.85,1.21A6.39,6.39,0,0,1,154.29,232.21ZM156,219.93a2.29,2.29,0,0,0-1.8,1.09,7,7,0,0,0-1.15,2.75h4.46l.09-.52a4.44,4.44,0,0,0-.15-2.42A1.44,1.44,0,0,0,156,219.93Z"/><path d="M165.82,230.25a2.23,2.23,0,0,0,1.61-.74,3.46,3.46,0,0,0,.95-2h2.28l0,.08a5.2,5.2,0,0,1-1.78,3.31,5,5,0,0,1-3.38,1.3,3.74,3.74,0,0,1-3.44-1.76,6.37,6.37,0,0,1-.65-4.41l.3-1.89a8.48,8.48,0,0,1,2-4.49,5.26,5.26,0,0,1,4-1.71,3.5,3.5,0,0,1,3,1.41,4.67,4.67,0,0,1,.7,3.66H169.1a3.59,3.59,0,0,0-.22-2.26,1.5,1.5,0,0,0-1.41-.83,2.41,2.41,0,0,0-2.11,1.21,7.55,7.55,0,0,0-1.08,3L164,226a6.78,6.78,0,0,0,.07,3.07A1.65,1.65,0,0,0,165.82,230.25Z"/><path d="M178.72,214.79l-.69,3.42h2l-.37,1.84h-2L176,228.22a2.89,2.89,0,0,0,0,1.56.73.73,0,0,0,.7.41,3.27,3.27,0,0,0,.54,0c.17,0,.38-.06.61-.11l-.11,1.78a6.44,6.44,0,0,1-1,.28,5.6,5.6,0,0,1-1.09.11,2.16,2.16,0,0,1-2-1,4.12,4.12,0,0,1-.21-3l1.63-8.17h-1.69l.37-1.84h1.68l.69-3.42Z"/><path d="M186.64,228.5a1.71,1.71,0,0,0-.27-1.36,5.13,5.13,0,0,0-1.66-1.2,7.84,7.84,0,0,1-2.73-1.75,2.8,2.8,0,0,1-.6-2.43A4.27,4.27,0,0,1,183,219a5.15,5.15,0,0,1,3.33-1.09,3.77,3.77,0,0,1,3,1.21,3.37,3.37,0,0,1,.73,3l0,.07h-2.45a2.59,2.59,0,0,0-.24-1.7,1.36,1.36,0,0,0-1.29-.69,2.24,2.24,0,0,0-2.19,1.83,1.51,1.51,0,0,0,.22,1.25,6.68,6.68,0,0,0,1.69,1.19,7.08,7.08,0,0,1,2.78,1.75,3,3,0,0,1,.59,2.53,4.2,4.2,0,0,1-1.67,2.79,5.57,5.57,0,0,1-3.43,1,3.93,3.93,0,0,1-3.19-1.31,3.43,3.43,0,0,1-.74-3l0-.06h2.39a2.31,2.31,0,0,0,.36,1.92,1.9,1.9,0,0,0,1.49.59,2.27,2.27,0,0,0,1.51-.52A2.11,2.11,0,0,0,186.64,228.5Z"/></svg>