<svg id="Layer_1" data-name="Layer 1" xmlns="http://www.w3.org/2000/svg" viewBox="0 0 489 1305"><defs><style>.cls-1{fill:#10b9ce;}.cls-2{fill:#f47f71;}.cls-3{fill:#f7bb09;}.cls-4{fill:#72dde9;}.cls-5{fill:#989390;}.cls-6{fill:#ef4631;}.cls-7{fill:#3f50b0;}.cls-8{fill:#7a86c8;}.cls-9{font-size:50px;fill:#383838;font-family:RobotoCondensed-Italic, Roboto Condensed;font-style:italic;}.cls-10{letter-spacing:-0.01em;}.cls-11{letter-spacing:0.01em;}.cls-12{fill:#ff9138;}.cls-13{letter-spacing:-0.01em;}.cls-14{fill:#686563;}.cls-15{fill:#ffb478;}.cls-16{fill:#2292ec;}.cls-17{fill:#66b4f2;}.cls-18{fill:#cac5be;}.cls-19{fill:#f9cf55;}.cls-20{fill:#3c3a3b;}</style></defs><title>napcArtboard 5_icon</title><rect class="cls-1" x="43.05" y="196" width="39.73" height="39.73" rx="1.58"/><rect class="cls-2" x="43.05" y="117.81" width="39.73" height="39.73" rx="1.58"/><rect class="cls-3" x="43.05" y="352.27" width="39.73" height="39.73" rx="1.58"/><rect class="cls-4" x="43.05" y="273.81" width="39.73" height="39.73" rx="1.58"/><rect class="cls-5" x="41.05" y="1146.27" width="39.73" height="39.73" rx="1.58"/><rect class="cls-6" x="41.05" y="43.81" width="39.73" height="39.73" rx="1.58"/><rect class="cls-7" x="41.05" y="508.27" width="39.73" height="39.73" rx="1.58"/><rect class="cls-8" x="41.05" y="587.27" width="39.73" height="39.73" rx="1.58"/><text class="cls-9" transform="translate(113.73 233.93)">data-viz</text><text class="cls-9" transform="translate(113.73 158.93)">slide-making</text><text class="cls-9" transform="translate(113.73 390.93)">geospatial</text><text class="cls-9" transform="translate(113.73 313.93)">s<tspan class="cls-10" x="21" y="0">t</tspan><tspan x="35.45" y="0">o</tspan><tspan class="cls-11" x="58.89" y="0">r</tspan><tspan x="74.37" y="0">ytelling</tspan></text><text class="cls-9" transform="translate(111.73 1186.93)">client-comms</text><rect class="cls-12" x="41.05" y="666.27" width="39.73" height="39.73" rx="1.58"/><text class="cls-9" transform="translate(111.73 706.93)">big-que<tspan class="cls-11" x="141.06" y="0">r</tspan><tspan x="156.54" y="0">y</tspan></text><text class="cls-9" transform="translate(111.73 81.93)">p<tspan class="cls-10" x="23.44" y="0">r</tspan><tspan x="37.99" y="0">oject-scoping</tspan></text><text class="cls-9" transform="translate(111.73 548.93)">p<tspan class="cls-10" x="23.44" y="0">r</tspan><tspan x="37.99" y="0">oject-mgt</tspan></text><text class="cls-9" transform="translate(111.73 627.93)">web-d<tspan class="cls-13" x="113.75" y="0">e</tspan><tspan x="135.38" y="0">v</tspan></text><rect class="cls-14" x="45.05" y="1063.27" width="39.73" height="39.73" rx="1.58"/><rect class="cls-15" x="41.05" y="745.27" width="39.73" height="39.73" rx="1.58"/><text class="cls-9" transform="translate(115.73 1103.93)">text-analytics</text><rect class="cls-16" x="41.05" y="822.27" width="39.73" height="39.73" rx="1.58"/><text class="cls-9" transform="translate(111.73 862.93)">machine-learning</text><text class="cls-9" transform="translate(111.73 785.93)">data-exploration</text><rect class="cls-17" x="41.05" y="901.27" width="39.73" height="39.73" rx="1.58"/><text class="cls-9" transform="translate(111.73 941.93)">computer-vision</text><rect class="cls-18" x="41.05" y="1217.27" width="39.73" height="39.73" rx="1.58"/><rect class="cls-19" x="41.05" y="430.27" width="39.73" height="39.73" rx="1.58"/><text class="cls-9" transform="translate(111.73 1257.93)">others</text><rect class="cls-20" x="41.05" y="980.27" width="39.73" height="39.73" rx="1.58"/><text class="cls-9" transform="translate(111.73 1020.93)">data-engg</text><text class="cls-9" transform="translate(111.73 470.93)">p<tspan class="cls-10" x="23.44" y="0">r</tspan><tspan x="37.99" y="0">oduct-strategy</tspan></text></svg>