<svg id="Layer_1" data-name="Layer 1" xmlns="http://www.w3.org/2000/svg" viewBox="0 0 489 1305"><defs><style>.cls-1{fill:#10b9ce;}.cls-2{fill:#f47f71;}.cls-3{fill:#f7bb09;}.cls-4{fill:#72dde9;}.cls-5{fill:#989390;}.cls-6{fill:#ef4631;}.cls-7{fill:#3f50b0;}.cls-8{fill:#7a86c8;}.cls-9{fill:#383838;}.cls-10{fill:#ff9138;}.cls-11{fill:#686563;}.cls-12{fill:#ffb478;}.cls-13{fill:#2292ec;}.cls-14{fill:#66b4f2;}.cls-15{fill:#cac5be;}.cls-16{fill:#f9cf55;}.cls-17{fill:#3c3a3b;}</style></defs><title>Untitled-1</title><rect class="cls-1" x="43.05" y="196" width="39.73" height="39.73" rx="1.58"/><rect class="cls-2" x="43.05" y="117.81" width="39.73" height="39.73" rx="1.58"/><rect class="cls-3" x="43.05" y="352.27" width="39.73" height="39.73" rx="1.58"/><rect class="cls-4" x="43.05" y="273.81" width="39.73" height="39.73" rx="1.58"/><rect class="cls-5" x="41.05" y="1146.27" width="39.73" height="39.73" rx="1.58"/><rect class="cls-6" x="41.05" y="43.81" width="39.73" height="39.73" rx="1.58"/><rect class="cls-7" x="41.05" y="508.27" width="39.73" height="39.73" rx="1.58"/><rect class="cls-8" x="41.05" y="587.27" width="39.73" height="39.73" rx="1.58"/><path class="cls-9" d="M116.25,220.55q1.34-6.77,4-10.15a8.13,8.13,0,0,1,6.66-3.38,5.73,5.73,0,0,1,3,.8,6.3,6.3,0,0,1,2.22,2.25L135,195.84h4.88l-7.61,38.09h-4.28l.2-2.35a8.84,8.84,0,0,1-2.79,2.14,7.37,7.37,0,0,1-3.22.72q-3.66,0-5.41-3.83t-.59-9.55Zm4.78.51a15.6,15.6,0,0,0-.19,7,3.06,3.06,0,0,0,3.15,2.57,4,4,0,0,0,2.54-1A9.31,9.31,0,0,0,128.7,227l2.59-12.94a4.87,4.87,0,0,0-1.36-2.35,3.39,3.39,0,0,0-2.4-.87q-2.25,0-3.87,2.62a21.35,21.35,0,0,0-2.5,7.05Z"/><path class="cls-9" d="M150.65,233.93c0-.65-.05-1.26-.05-1.81a12.78,12.78,0,0,1,.1-1.64,12.33,12.33,0,0,1-3.16,2.86,6.89,6.89,0,0,1-3.65,1.1,5.11,5.11,0,0,1-4.48-2.15,7,7,0,0,1-.8-5.61,9.42,9.42,0,0,1,3.63-6.07,12.26,12.26,0,0,1,7.36-2H153l.53-2.71a5.93,5.93,0,0,0-.2-3.84,2.68,2.68,0,0,0-2.58-1.29,4,4,0,0,0-2.83,1.24,5.52,5.52,0,0,0-1.64,3l-4.66,0,0-.15a8.74,8.74,0,0,1,3.41-5.52,10.56,10.56,0,0,1,6.82-2.29,6.78,6.78,0,0,1,5.49,2.35q2,2.34,1.15,6.54L156,228.17a23.62,23.62,0,0,0-.41,3,17.35,17.35,0,0,0,0,2.79Zm-4.88-3.3a5.49,5.49,0,0,0,3-1,8.44,8.44,0,0,0,2.51-2.54l1.07-5.42h-3.47a4.77,4.77,0,0,0-3.46,1.49,6.56,6.56,0,0,0-1.91,3.51,4.41,4.41,0,0,0,.17,2.94A2.12,2.12,0,0,0,145.77,230.63Z"/><path class="cls-9" d="M173.18,200.94l-1.32,6.57h3.89l-.71,3.54h-3.88L168,226.77a5.37,5.37,0,0,0-.05,3,1.38,1.38,0,0,0,1.34.8,7,7,0,0,0,1-.08,11.62,11.62,0,0,0,1.17-.22l-.19,3.42a11.55,11.55,0,0,1-1.91.55,10.39,10.39,0,0,1-2.1.21,4.16,4.16,0,0,1-3.77-1.87c-.8-1.24-.94-3.18-.4-5.8l3.12-15.72H163l.7-3.54H167l1.32-6.57Z"/><path class="cls-9" d="M188.1,233.93c0-.65,0-1.26,0-1.81a12.78,12.78,0,0,1,.1-1.64,12.17,12.17,0,0,1-3.16,2.86,6.87,6.87,0,0,1-3.65,1.1,5.11,5.11,0,0,1-4.48-2.15,7,7,0,0,1-.8-5.61,9.42,9.42,0,0,1,3.63-6.07,12.26,12.26,0,0,1,7.36-2h3.42l.53-2.71a5.93,5.93,0,0,0-.2-3.84,2.68,2.68,0,0,0-2.58-1.29,4,4,0,0,0-2.83,1.24,5.52,5.52,0,0,0-1.64,3l-4.66,0-.05-.15a8.74,8.74,0,0,1,3.41-5.52,10.56,10.56,0,0,1,6.82-2.29,6.77,6.77,0,0,1,5.49,2.35q2,2.34,1.15,6.54l-2.46,12.26a23.76,23.76,0,0,0-.42,3,17.37,17.37,0,0,0,0,2.79Zm-4.88-3.3a5.55,5.55,0,0,0,3-1,8.52,8.52,0,0,0,2.5-2.54l1.07-5.42h-3.46a4.78,4.78,0,0,0-3.47,1.49,6.56,6.56,0,0,0-1.91,3.51,4.34,4.34,0,0,0,.18,2.94A2.1,2.1,0,0,0,183.22,230.63Z"/><path class="cls-9" d="M210,220.67H199.55l.76-3.76h10.42Z"/><path class="cls-9" d="M221.16,226l0,1.86h.15L222,226l7.13-18.48h5.05l-11.74,26.42h-4.32l-3.32-26.42h5.08Z"/><path class="cls-9" d="M238.37,233.93h-4.89l5.28-26.42h4.88ZM245,200.58h-4.88l.95-4.74H246Z"/><path class="cls-9" d="M249.4,230.17h11.53l-.76,3.76H243.4l.63-3.13,14.82-19.46H248.11l.76-3.83H265l-.61,3.08Z"/><path class="cls-9" d="M127.53,152.31a3.39,3.39,0,0,0-.51-2.61,9.87,9.87,0,0,0-3.2-2.32,14.85,14.85,0,0,1-5.25-3.37,5.33,5.33,0,0,1-1.15-4.66,8.19,8.19,0,0,1,3.14-5.24A10,10,0,0,1,127,132a7.23,7.23,0,0,1,5.76,2.33,6.53,6.53,0,0,1,1.39,5.75l-.05.13h-4.71a5,5,0,0,0-.46-3.28,2.67,2.67,0,0,0-2.5-1.31,4.26,4.26,0,0,0-4.19,3.51,2.91,2.91,0,0,0,.41,2.41,12.78,12.78,0,0,0,3.25,2.28,13.46,13.46,0,0,1,5.34,3.38,5.73,5.73,0,0,1,1.15,4.85,8.12,8.12,0,0,1-3.22,5.38,10.68,10.68,0,0,1-6.59,2,7.52,7.52,0,0,1-6.13-2.52,6.55,6.55,0,0,1-1.44-5.78l0-.12h4.59c-.23,1.71,0,2.94.69,3.7a3.71,3.71,0,0,0,2.87,1.13,4.33,4.33,0,0,0,2.9-1A4.21,4.21,0,0,0,127.53,152.31Z"/><path class="cls-9" d="M140.64,158.93h-4.88l7.61-38.09h4.89Z"/><path class="cls-9" d="M151.75,158.93h-4.89l5.28-26.42H157Zm6.66-33.35h-4.88l.95-4.74h4.88Z"/><path class="cls-9" d="M159.46,145.55q1.35-6.77,4-10.15a8.13,8.13,0,0,1,6.67-3.38,5.7,5.7,0,0,1,3,.8,6.41,6.41,0,0,1,2.23,2.25l2.85-14.23h4.89l-7.62,38.09h-4.27l.19-2.35a8.81,8.81,0,0,1-2.78,2.14,7.43,7.43,0,0,1-3.22.72q-3.67,0-5.41-3.83t-.6-9.55Zm4.79.51a15.48,15.48,0,0,0-.2,7,3.06,3.06,0,0,0,3.15,2.57,4,4,0,0,0,2.54-1,9.14,9.14,0,0,0,2.17-2.61l2.59-12.94a4.94,4.94,0,0,0-1.35-2.35,3.41,3.41,0,0,0-2.41-.87q-2.25,0-3.87,2.62a21.35,21.35,0,0,0-2.5,7.05Z"/><path class="cls-9" d="M190.56,159.44a7.52,7.52,0,0,1-6.61-3.3c-1.51-2.19-2-5-1.44-8.35l.61-3.85a15.75,15.75,0,0,1,4-8.65,9.77,9.77,0,0,1,7.26-3.27,6.58,6.58,0,0,1,6,3.1c1.26,2.07,1.62,4.8,1.08,8.21l-.53,3.41H187.54l-.17,1a9.68,9.68,0,0,0,.44,5.73,3.7,3.7,0,0,0,3.66,2.16,8.62,8.62,0,0,0,3.42-.66,12,12,0,0,0,3-1.88l1,3.08a11.15,11.15,0,0,1-3.56,2.32A12.28,12.28,0,0,1,190.56,159.44Zm3.2-23.61a4.33,4.33,0,0,0-3.45,2.1,13.26,13.26,0,0,0-2.21,5.27h8.57l.17-1a8.57,8.57,0,0,0-.28-4.64A2.78,2.78,0,0,0,193.76,135.83Z"/><path class="cls-9" d="M215.17,145.67H204.75l.76-3.76h10.42Z"/><path class="cls-9" d="M226.65,135.83a9.73,9.73,0,0,1,3.14-2.83,7.91,7.91,0,0,1,3.89-1,4.38,4.38,0,0,1,3.14,1.2,5.92,5.92,0,0,1,1.6,3.56,11.27,11.27,0,0,1,3.29-3.51,7.39,7.39,0,0,1,4.15-1.25,4.6,4.6,0,0,1,4.39,2.82c.91,1.88,1,4.68.28,8.39l-3.15,15.7h-4.91l3.15-15.73c.57-2.89.66-4.84.28-5.83a2.37,2.37,0,0,0-2.48-1.49,3.91,3.91,0,0,0-2.77,1.33,11.31,11.31,0,0,0-2.28,3.46c-.07.45-.12.79-.15,1s-.07.45-.12.69l-3.32,16.56H229.9l3.15-15.73q.82-4.2.23-5.76a2.38,2.38,0,0,0-2.46-1.56,4.1,4.1,0,0,0-2.56.93,9.06,9.06,0,0,0-2.17,2.54l-3.91,19.58h-4.86l5.28-26.42h4.46Z"/><path class="cls-9" d="M265.76,158.93c0-.65-.05-1.26-.05-1.81a12.78,12.78,0,0,1,.1-1.64,12.17,12.17,0,0,1-3.16,2.86,6.87,6.87,0,0,1-3.65,1.1,5.11,5.11,0,0,1-4.48-2.15,7,7,0,0,1-.8-5.61,9.42,9.42,0,0,1,3.63-6.07,12.26,12.26,0,0,1,7.36-2h3.42l.54-2.71a6,6,0,0,0-.21-3.84,2.67,2.67,0,0,0-2.58-1.29,4,4,0,0,0-2.83,1.24,5.52,5.52,0,0,0-1.64,3l-4.66,0-.05-.15a8.78,8.78,0,0,1,3.41-5.52,10.58,10.58,0,0,1,6.82-2.29,6.79,6.79,0,0,1,5.5,2.35c1.31,1.56,1.7,3.74,1.14,6.54l-2.46,12.26a25.78,25.78,0,0,0-.42,3,17.37,17.37,0,0,0,0,2.79Zm-4.88-3.3a5.55,5.55,0,0,0,3-1,8.52,8.52,0,0,0,2.5-2.54l1.07-5.42H264a4.78,4.78,0,0,0-3.47,1.49,6.55,6.55,0,0,0-1.9,3.51,4.35,4.35,0,0,0,.17,2.94A2.1,2.1,0,0,0,260.88,155.63Z"/><path class="cls-9" d="M284.78,146.79h-1.95l-2.42,12.14h-4.88l7.61-38.09H288L283.58,143h1.91l7.44-10.52h5.55l.07.12-9.47,11.75,5.37,14.55h-5.69Z"/><path class="cls-9" d="M302.5,158.93h-4.88l5.27-26.42h4.89Zm6.67-33.35h-4.88l.95-4.74h4.88Z"/><path class="cls-9" d="M317.66,136.15a10.77,10.77,0,0,1,3.24-3.07,7.46,7.46,0,0,1,3.82-1.06,4.78,4.78,0,0,1,4.52,2.61c.94,1.75,1.06,4.38.36,7.91l-3.27,16.39h-4.91l3.28-16.34q.75-3.93.11-5.32a2.67,2.67,0,0,0-2.7-1.39,4.3,4.3,0,0,0-2.6,1,10.17,10.17,0,0,0-2.36,2.63l-3.88,19.46h-4.91l5.28-26.42h4.49Z"/><path class="cls-9" d="M333.66,145.55c.87-4.49,2.21-7.87,4-10.13a8.2,8.2,0,0,1,6.72-3.4,5.83,5.83,0,0,1,3.23.91,6.24,6.24,0,0,1,2.24,2.56l.93-3H355l-5.17,26a14.84,14.84,0,0,1-4.24,8.3,11.16,11.16,0,0,1-7.82,2.84,11.51,11.51,0,0,1-3.26-.53,10.22,10.22,0,0,1-3-1.38l1.78-3.71a8,8,0,0,0,2.36,1.18,9,9,0,0,0,2.84.43,5.22,5.22,0,0,0,4.05-1.91,11.22,11.22,0,0,0,2.37-5.24l.27-1.34a8.29,8.29,0,0,1-2.59,1.75,7.54,7.54,0,0,1-2.95.59q-3.69,0-5.47-3.85t-.64-9.53Zm4.78.51a15.48,15.48,0,0,0-.16,7,3.09,3.09,0,0,0,3.19,2.58,4.11,4.11,0,0,0,2.57-.92,8.59,8.59,0,0,0,2.14-2.57L348.79,139a4.73,4.73,0,0,0-1.35-2.31,3.52,3.52,0,0,0-2.43-.84q-2.25,0-3.91,2.64a21.13,21.13,0,0,0-2.54,7Z"/><path class="cls-9" d="M116.25,377.55q1.32-6.74,4-10.13A8.21,8.21,0,0,1,127,364a5.82,5.82,0,0,1,3.22.91,6.34,6.34,0,0,1,2.25,2.56l.92-3h4.23l-5.18,25.95a14.84,14.84,0,0,1-4.24,8.3,11.16,11.16,0,0,1-7.82,2.84,11.57,11.57,0,0,1-3.26-.53,10.22,10.22,0,0,1-3-1.38l1.78-3.71a8.16,8.16,0,0,0,2.36,1.18,9,9,0,0,0,2.84.43,5.25,5.25,0,0,0,4.06-1.91,11.22,11.22,0,0,0,2.36-5.24l.27-1.34a8.29,8.29,0,0,1-2.59,1.75,7.51,7.51,0,0,1-3,.59q-3.69,0-5.47-3.85t-.63-9.53Zm4.78.51a15.45,15.45,0,0,0-.15,7,3.08,3.08,0,0,0,3.18,2.58,4.14,4.14,0,0,0,2.58-.92,8.57,8.57,0,0,0,2.13-2.57L131.39,371a4.74,4.74,0,0,0-1.36-2.31,3.52,3.52,0,0,0-2.43-.84q-2.25,0-3.91,2.64a20.92,20.92,0,0,0-2.53,7Z"/><path class="cls-9" d="M147.35,391.44a7.51,7.51,0,0,1-6.61-3.3c-1.52-2.19-2-5-1.44-8.35l.61-3.85a15.75,15.75,0,0,1,4-8.65,9.77,9.77,0,0,1,7.26-3.27,6.55,6.55,0,0,1,6,3.1c1.26,2.07,1.63,4.8,1.09,8.21l-.54,3.41H144.32l-.17,1.05a9.77,9.77,0,0,0,.44,5.73,3.72,3.72,0,0,0,3.67,2.16,8.53,8.53,0,0,0,3.41-.66,11.87,11.87,0,0,0,3-1.88l1,3.08a11.15,11.15,0,0,1-3.56,2.32A12.31,12.31,0,0,1,147.35,391.44Zm3.2-23.61a4.33,4.33,0,0,0-3.45,2.1,13.26,13.26,0,0,0-2.21,5.27h8.57l.17-1a8.57,8.57,0,0,0-.28-4.64A2.78,2.78,0,0,0,150.55,367.83Z"/><path class="cls-9" d="M161.68,376.06a15.89,15.89,0,0,1,4-8.75,10.3,10.3,0,0,1,7.77-3.29,7.23,7.23,0,0,1,6.54,3.42q2.17,3.42,1.34,8.62l-.54,3.37a15.87,15.87,0,0,1-4,8.75,10.22,10.22,0,0,1-7.7,3.26,7.31,7.31,0,0,1-6.6-3.39q-2.19-3.41-1.33-8.62Zm4.35,3.37a11.81,11.81,0,0,0,.24,6,3.31,3.31,0,0,0,3.4,2.25,4.77,4.77,0,0,0,4-2.34,14.31,14.31,0,0,0,2.22-5.91l.53-3.37a11.92,11.92,0,0,0-.25-6,3.25,3.25,0,0,0-3.33-2.27,4.82,4.82,0,0,0-4.06,2.34,14,14,0,0,0-2.19,5.89Z"/><path class="cls-9" d="M196.35,384.31a3.39,3.39,0,0,0-.51-2.61,9.76,9.76,0,0,0-3.2-2.32,14.94,14.94,0,0,1-5.25-3.37,5.36,5.36,0,0,1-1.15-4.66,8.24,8.24,0,0,1,3.14-5.24,10,10,0,0,1,6.41-2.09,7.23,7.23,0,0,1,5.76,2.33,6.5,6.5,0,0,1,1.39,5.75l-.05.13h-4.71a5,5,0,0,0-.46-3.28,2.67,2.67,0,0,0-2.49-1.31,4.28,4.28,0,0,0-4.2,3.51,3,3,0,0,0,.41,2.41,12.78,12.78,0,0,0,3.25,2.28,13.58,13.58,0,0,1,5.35,3.38,5.8,5.8,0,0,1,1.15,4.85,8.13,8.13,0,0,1-3.23,5.38,10.66,10.66,0,0,1-6.59,2,7.53,7.53,0,0,1-6.13-2.52,6.55,6.55,0,0,1-1.44-5.78l0-.12h4.59c-.23,1.71,0,2.94.7,3.7a3.7,3.7,0,0,0,2.87,1.13,4.33,4.33,0,0,0,2.89-1A4.16,4.16,0,0,0,196.35,384.31Z"/><path class="cls-9" d="M225.35,379q-1.24,6.22-3.8,9.31a8.13,8.13,0,0,1-6.55,3.09,6.45,6.45,0,0,1-3.1-.73,6.24,6.24,0,0,1-2.27-2.1l-2.49,12.47h-4.91l7.3-36.57h4.4l-.22,2.3a8.35,8.35,0,0,1,2.72-2.08,7.46,7.46,0,0,1,3.21-.71c2.48,0,4.27,1.39,5.39,4.15s1.26,6.22.45,10.35Zm-4.78-.52a18.85,18.85,0,0,0,.26-7.71c-.47-1.95-1.51-2.93-3.14-2.93a3.88,3.88,0,0,0-2.5,1,9.66,9.66,0,0,0-2.14,2.61l-2.69,13.45a3.9,3.9,0,0,0,1.36,2.05,4.07,4.07,0,0,0,2.5.71,4.6,4.6,0,0,0,3.84-2.31,17.35,17.35,0,0,0,2.39-6.33Z"/><path class="cls-9" d="M240.47,390.93c0-.65-.05-1.26-.05-1.81a12.78,12.78,0,0,1,.1-1.64,12.2,12.2,0,0,1-3.17,2.86,6.84,6.84,0,0,1-3.65,1.1,5.13,5.13,0,0,1-4.48-2.15,7,7,0,0,1-.79-5.61,9.42,9.42,0,0,1,3.63-6.07,12.26,12.26,0,0,1,7.36-2h3.42l.53-2.71a5.93,5.93,0,0,0-.2-3.84,2.68,2.68,0,0,0-2.58-1.29,4,4,0,0,0-2.83,1.24,5.45,5.45,0,0,0-1.64,3l-4.66,0-.05-.15a8.74,8.74,0,0,1,3.41-5.52,10.56,10.56,0,0,1,6.82-2.29,6.78,6.78,0,0,1,5.49,2.35q2,2.34,1.15,6.54l-2.47,12.26a23.62,23.62,0,0,0-.41,3,17.35,17.35,0,0,0,0,2.79Zm-4.89-3.3a5.5,5.5,0,0,0,3-1,8.44,8.44,0,0,0,2.51-2.54l1.07-5.42h-3.47a4.77,4.77,0,0,0-3.46,1.49,6.56,6.56,0,0,0-1.91,3.51,4.41,4.41,0,0,0,.17,2.94A2.12,2.12,0,0,0,235.58,387.63Z"/><path class="cls-9" d="M263,357.94l-1.32,6.57h3.88l-.7,3.54H261l-3.13,15.72a5.37,5.37,0,0,0-.05,3,1.38,1.38,0,0,0,1.34.8,7,7,0,0,0,1-.08,11.62,11.62,0,0,0,1.17-.22l-.19,3.42a11.55,11.55,0,0,1-1.91.55,10.39,10.39,0,0,1-2.1.21,4.16,4.16,0,0,1-3.77-1.87c-.81-1.24-.94-3.18-.4-5.8l3.12-15.72h-3.24l.7-3.54h3.25l1.32-6.57Z"/><path class="cls-9" d="M270.35,390.93h-4.88l5.27-26.42h4.88ZM277,357.58h-4.89l.95-4.74H278Z"/><path class="cls-9" d="M289,390.93c0-.65,0-1.26,0-1.81a12.78,12.78,0,0,1,.1-1.64,12.2,12.2,0,0,1-3.17,2.86,6.84,6.84,0,0,1-3.65,1.1,5.13,5.13,0,0,1-4.48-2.15,7,7,0,0,1-.79-5.61,9.42,9.42,0,0,1,3.63-6.07,12.26,12.26,0,0,1,7.36-2h3.42l.53-2.71a5.85,5.85,0,0,0-.21-3.84,2.65,2.65,0,0,0-2.57-1.29,4,4,0,0,0-2.83,1.24,5.45,5.45,0,0,0-1.64,3L280,372l0-.15a8.74,8.74,0,0,1,3.41-5.52A10.56,10.56,0,0,1,290.2,364a6.78,6.78,0,0,1,5.49,2.35q2,2.34,1.15,6.54l-2.47,12.26a23.62,23.62,0,0,0-.41,3,17.35,17.35,0,0,0,0,2.79Zm-4.89-3.3a5.5,5.5,0,0,0,3-1,8.44,8.44,0,0,0,2.51-2.54l1.07-5.42h-3.47a4.77,4.77,0,0,0-3.46,1.49,6.56,6.56,0,0,0-1.91,3.51,4.41,4.41,0,0,0,.17,2.94A2.12,2.12,0,0,0,284.14,387.63Z"/><path class="cls-9" d="M304,390.93h-4.88l7.61-38.09h4.89Z"/><path class="cls-9" d="M127.53,307.31a3.39,3.39,0,0,0-.51-2.61,9.87,9.87,0,0,0-3.2-2.32,14.85,14.85,0,0,1-5.25-3.37,5.33,5.33,0,0,1-1.15-4.66,8.19,8.19,0,0,1,3.14-5.24A10,10,0,0,1,127,287a7.23,7.23,0,0,1,5.76,2.33,6.53,6.53,0,0,1,1.39,5.75l-.05.13h-4.71a5,5,0,0,0-.46-3.28,2.67,2.67,0,0,0-2.5-1.31,4.26,4.26,0,0,0-4.19,3.51,2.91,2.91,0,0,0,.41,2.41,12.78,12.78,0,0,0,3.25,2.28,13.46,13.46,0,0,1,5.34,3.38,5.73,5.73,0,0,1,1.15,4.85,8.12,8.12,0,0,1-3.22,5.38,10.68,10.68,0,0,1-6.59,2,7.52,7.52,0,0,1-6.13-2.52,6.55,6.55,0,0,1-1.44-5.78l0-.12h4.59c-.23,1.71,0,2.94.69,3.7a3.71,3.71,0,0,0,2.87,1.13,4.33,4.33,0,0,0,2.9-1A4.21,4.21,0,0,0,127.53,307.31Z"/><path class="cls-9" d="M148.23,280.94l-1.32,6.57h3.88l-.7,3.54H146.2l-3.12,15.72a5.37,5.37,0,0,0-.05,3,1.38,1.38,0,0,0,1.34.8,7,7,0,0,0,1-.08,11.62,11.62,0,0,0,1.17-.22l-.19,3.42a11.84,11.84,0,0,1-1.91.55,10.39,10.39,0,0,1-2.1.21,4.16,4.16,0,0,1-3.77-1.87c-.81-1.24-.94-3.18-.4-5.8l3.12-15.72h-3.25l.71-3.54H142l1.32-6.57Z"/><path class="cls-9" d="M151.75,299.06a15.82,15.82,0,0,1,4-8.75,10.28,10.28,0,0,1,7.76-3.29,7.23,7.23,0,0,1,6.54,3.42q2.17,3.42,1.35,8.62l-.54,3.37a16,16,0,0,1-4,8.75,10.26,10.26,0,0,1-7.71,3.26,7.33,7.33,0,0,1-6.6-3.39q-2.19-3.41-1.33-8.62Zm4.34,3.37a11.91,11.91,0,0,0,.25,6,3.3,3.3,0,0,0,3.39,2.25,4.77,4.77,0,0,0,4-2.34,14.31,14.31,0,0,0,2.22-5.91l.54-3.37a12,12,0,0,0-.26-6,3.25,3.25,0,0,0-3.33-2.27,4.82,4.82,0,0,0-4,2.34,14,14,0,0,0-2.2,5.89Z"/><path class="cls-9" d="M188.69,291.69l-2.23-.13a3.72,3.72,0,0,0-2.45,1,8.26,8.26,0,0,0-2,2.66l-3.76,18.75h-4.91l5.27-26.42h4.47L182.7,291l.13.07a9.41,9.41,0,0,1,2.53-3,5.09,5.09,0,0,1,3.11-1.08,4.92,4.92,0,0,1,.91.09,3.48,3.48,0,0,1,.77.21Z"/><path class="cls-9" d="M197.79,304.82l0,1.47.14,0,8.45-18.8h5.32L196.84,318a18.73,18.73,0,0,1-3.31,4.64,6.48,6.48,0,0,1-4.77,1.93,6.19,6.19,0,0,1-1.23-.14c-.45-.09-.89-.19-1.31-.3l1.27-3.67a6.62,6.62,0,0,0,.69.1c.29,0,.51.05.68.05a3.15,3.15,0,0,0,2.35-1.28,12.26,12.26,0,0,0,1.85-2.87l1.34-2.64-2.49-26.34h5.32Z"/><path class="cls-9" d="M222.67,280.94l-1.32,6.57h3.88l-.71,3.54h-3.88l-3.12,15.72a5.37,5.37,0,0,0-.05,3,1.38,1.38,0,0,0,1.34.8,7.15,7.15,0,0,0,1-.08,11.62,11.62,0,0,0,1.17-.22l-.2,3.42a11.43,11.43,0,0,1-1.9.55,10.39,10.39,0,0,1-2.1.21,4.15,4.15,0,0,1-3.77-1.87c-.81-1.24-.94-3.18-.4-5.8l3.12-15.72h-3.25l.71-3.54h3.25l1.32-6.57Z"/><path class="cls-9" d="M234.29,314.44a7.54,7.54,0,0,1-6.62-3.3c-1.51-2.19-2-5-1.44-8.35l.61-3.85a15.69,15.69,0,0,1,4-8.65A9.77,9.77,0,0,1,238.1,287a6.55,6.55,0,0,1,6,3.1c1.26,2.07,1.63,4.8,1.09,8.21l-.54,3.41H231.26l-.17,1.05a9.77,9.77,0,0,0,.44,5.73,3.72,3.72,0,0,0,3.66,2.16,8.55,8.55,0,0,0,3.42-.66,11.87,11.87,0,0,0,3-1.88l1,3.08a11.15,11.15,0,0,1-3.56,2.32A12.31,12.31,0,0,1,234.29,314.44Zm3.2-23.61a4.36,4.36,0,0,0-3.46,2.1,13.41,13.41,0,0,0-2.21,5.27h8.57l.17-1a8.48,8.48,0,0,0-.28-4.64A2.76,2.76,0,0,0,237.49,290.83Z"/><path class="cls-9" d="M252,313.93h-4.89l7.62-38.09h4.88Z"/><path class="cls-9" d="M263.07,313.93h-4.88l7.62-38.09h4.88Z"/><path class="cls-9" d="M274.18,313.93H269.3l5.27-26.42h4.89Zm6.67-33.35H276l.95-4.74h4.88Z"/><path class="cls-9" d="M289.34,291.15a10.77,10.77,0,0,1,3.24-3.07A7.46,7.46,0,0,1,296.4,287a4.78,4.78,0,0,1,4.52,2.61c.94,1.75,1.06,4.38.36,7.91L298,313.93H293.1l3.28-16.34q.75-3.93.11-5.32a2.68,2.68,0,0,0-2.7-1.39,4.3,4.3,0,0,0-2.6,1,10.17,10.17,0,0,0-2.36,2.63L285,313.93H280l5.28-26.42h4.49Z"/><path class="cls-9" d="M305.34,300.55q1.31-6.74,4-10.13a8.2,8.2,0,0,1,6.72-3.4,5.83,5.83,0,0,1,3.23.91,6.24,6.24,0,0,1,2.24,2.56l.93-3h4.22l-5.17,25.95a14.84,14.84,0,0,1-4.24,8.3,11.16,11.16,0,0,1-7.82,2.84,11.51,11.51,0,0,1-3.26-.53,10.22,10.22,0,0,1-3-1.38L305,319a8,8,0,0,0,2.36,1.18,9,9,0,0,0,2.84.43,5.22,5.22,0,0,0,4.05-1.91,11.22,11.22,0,0,0,2.37-5.24l.27-1.34a8.29,8.29,0,0,1-2.59,1.75,7.54,7.54,0,0,1-2.95.59q-3.69,0-5.47-3.85t-.64-9.53Zm4.78.51a15.48,15.48,0,0,0-.16,7,3.09,3.09,0,0,0,3.19,2.58,4.11,4.11,0,0,0,2.57-.92,8.59,8.59,0,0,0,2.14-2.57L320.47,294a4.73,4.73,0,0,0-1.35-2.31,3.52,3.52,0,0,0-2.43-.84q-2.25,0-3.91,2.64a20.91,20.91,0,0,0-2.54,7Z"/><path class="cls-9" d="M122.13,1183.68a4.36,4.36,0,0,0,3.1-1.43,6.72,6.72,0,0,0,1.84-3.82h4.37l0,.15a10,10,0,0,1-3.43,6.37,9.64,9.64,0,0,1-6.5,2.49q-4.55,0-6.61-3.38a12.26,12.26,0,0,1-1.25-8.49l.58-3.63a16.18,16.18,0,0,1,3.87-8.63,10.08,10.08,0,0,1,7.78-3.29,6.78,6.78,0,0,1,5.74,2.71,9,9,0,0,1,1.34,7h-4.57a6.82,6.82,0,0,0-.41-4.33,2.86,2.86,0,0,0-2.71-1.6,4.67,4.67,0,0,0-4.07,2.32,14.57,14.57,0,0,0-2.06,5.79l-.59,3.63a13,13,0,0,0,.14,5.91A3.17,3.17,0,0,0,122.13,1183.68Z"/><path class="cls-9" d="M139.35,1186.93h-4.89l7.62-38.09H147Z"/><path class="cls-9" d="M150.45,1186.93h-4.88l5.28-26.42h4.88Zm6.67-33.35h-4.88l.95-4.74h4.88Z"/><path class="cls-9" d="M165.84,1187.44a7.53,7.53,0,0,1-6.62-3.3c-1.51-2.19-2-5-1.44-8.35l.61-3.85a15.71,15.71,0,0,1,4-8.65,9.77,9.77,0,0,1,7.26-3.27,6.58,6.58,0,0,1,6.05,3.1c1.26,2.07,1.62,4.8,1.08,8.21l-.53,3.41H162.81l-.17,1a9.68,9.68,0,0,0,.44,5.73,3.7,3.7,0,0,0,3.66,2.16,8.62,8.62,0,0,0,3.42-.66,11.94,11.94,0,0,0,3-1.88l1.05,3.08a11.31,11.31,0,0,1-3.57,2.32A12.26,12.26,0,0,1,165.84,1187.44Zm3.19-23.61a4.33,4.33,0,0,0-3.45,2.1,13.41,13.41,0,0,0-2.21,5.27h8.57l.17-1a8.48,8.48,0,0,0-.28-4.64A2.78,2.78,0,0,0,169,1163.83Z"/><path class="cls-9" d="M187.56,1164.15a10.77,10.77,0,0,1,3.24-3.07,7.46,7.46,0,0,1,3.82-1.06,4.78,4.78,0,0,1,4.52,2.61c.94,1.75,1.06,4.38.36,7.91l-3.27,16.39h-4.91l3.28-16.34q.75-3.93.11-5.32a2.68,2.68,0,0,0-2.7-1.39,4.3,4.3,0,0,0-2.6,1,10.17,10.17,0,0,0-2.36,2.63l-3.88,19.46h-4.91l5.28-26.42H188Z"/><path class="cls-9" d="M214.54,1153.94l-1.32,6.57h3.88l-.7,3.54h-3.88l-3.13,15.72a5.37,5.37,0,0,0,0,3,1.38,1.38,0,0,0,1.34.8,7,7,0,0,0,1-.08,11.62,11.62,0,0,0,1.17-.22l-.19,3.42a11.55,11.55,0,0,1-1.91.55,10.39,10.39,0,0,1-2.1.21,4.16,4.16,0,0,1-3.77-1.87c-.81-1.24-.94-3.18-.4-5.8l3.12-15.72h-3.24l.7-3.54h3.25l1.32-6.57Z"/><path class="cls-9" d="M228.82,1173.67H218.4l.76-3.76h10.42Z"/><path class="cls-9" d="M240.64,1183.68a4.36,4.36,0,0,0,3.1-1.43,6.71,6.71,0,0,0,1.83-3.82h4.37l.05.15a10,10,0,0,1-3.43,6.37,9.65,9.65,0,0,1-6.51,2.49,7.17,7.17,0,0,1-6.6-3.38c-1.38-2.26-1.79-5.08-1.26-8.49l.59-3.63a16.18,16.18,0,0,1,3.87-8.63,10.07,10.07,0,0,1,7.77-3.29,6.76,6.76,0,0,1,5.74,2.71,9,9,0,0,1,1.34,7h-4.56a6.88,6.88,0,0,0-.42-4.33,2.85,2.85,0,0,0-2.71-1.6,4.65,4.65,0,0,0-4.06,2.32,14.27,14.27,0,0,0-2.06,5.79l-.59,3.63a13,13,0,0,0,.13,5.91A3.18,3.18,0,0,0,240.64,1183.68Z"/><path class="cls-9" d="M254.51,1172.06a15.82,15.82,0,0,1,4-8.75,10.28,10.28,0,0,1,7.76-3.29,7.23,7.23,0,0,1,6.54,3.42q2.18,3.42,1.35,8.62l-.54,3.37a16,16,0,0,1-4,8.75,10.26,10.26,0,0,1-7.71,3.26,7.33,7.33,0,0,1-6.6-3.39q-2.19-3.4-1.33-8.62Zm4.34,3.37a11.91,11.91,0,0,0,.25,6,3.3,3.3,0,0,0,3.39,2.25,4.77,4.77,0,0,0,4-2.34,14.31,14.31,0,0,0,2.22-5.91l.54-3.37a12,12,0,0,0-.26-6,3.25,3.25,0,0,0-3.33-2.27,4.82,4.82,0,0,0-4.05,2.34,14,14,0,0,0-2.2,5.89Z"/><path class="cls-9" d="M285.44,1163.83a9.73,9.73,0,0,1,3.14-2.83,7.94,7.94,0,0,1,3.89-1,4.38,4.38,0,0,1,3.14,1.2,5.94,5.94,0,0,1,1.6,3.56,11.27,11.27,0,0,1,3.29-3.51,7.39,7.39,0,0,1,4.15-1.25,4.59,4.59,0,0,1,4.39,2.82q1.38,2.82.28,8.39l-3.15,15.7h-4.91l3.15-15.73c.57-2.89.66-4.84.28-5.83a2.37,2.37,0,0,0-2.48-1.49,3.91,3.91,0,0,0-2.77,1.33,11.31,11.31,0,0,0-2.28,3.46c-.07.45-.12.79-.15,1s-.07.45-.12.69l-3.32,16.56h-4.88l3.15-15.73q.82-4.2.23-5.76a2.38,2.38,0,0,0-2.46-1.56,4.1,4.1,0,0,0-2.56.93,9.06,9.06,0,0,0-2.17,2.54L281,1186.93h-4.86l5.28-26.42h4.46Z"/><path class="cls-9" d="M321.13,1163.83a9.73,9.73,0,0,1,3.14-2.83,7.94,7.94,0,0,1,3.89-1,4.36,4.36,0,0,1,3.14,1.2,5.94,5.94,0,0,1,1.6,3.56,11.18,11.18,0,0,1,3.3-3.51,7.34,7.34,0,0,1,4.15-1.25,4.58,4.58,0,0,1,4.38,2.82q1.38,2.82.28,8.39l-3.15,15.7H337l3.15-15.73c.57-2.89.67-4.84.28-5.83a2.36,2.36,0,0,0-2.47-1.49,3.94,3.94,0,0,0-2.78,1.33,11.69,11.69,0,0,0-2.28,3.46c-.06.45-.11.79-.14,1s-.08.45-.13.69l-3.32,16.56h-4.88l3.15-15.73q.83-4.2.23-5.76a2.37,2.37,0,0,0-2.45-1.56,4.13,4.13,0,0,0-2.57.93,9.23,9.23,0,0,0-2.17,2.54l-3.9,19.58h-4.86l5.27-26.42h4.47Z"/><path class="cls-9" d="M360.56,1180.31a3.39,3.39,0,0,0-.51-2.61,9.76,9.76,0,0,0-3.2-2.32,15,15,0,0,1-5.25-3.37,5.39,5.39,0,0,1-1.15-4.66,8.24,8.24,0,0,1,3.14-5.24A10,10,0,0,1,360,1160a7.23,7.23,0,0,1,5.76,2.33,6.5,6.5,0,0,1,1.39,5.75l0,.13h-4.71a5,5,0,0,0-.46-3.28,2.67,2.67,0,0,0-2.49-1.31,4.28,4.28,0,0,0-4.2,3.51,3,3,0,0,0,.41,2.41,12.78,12.78,0,0,0,3.25,2.28,13.58,13.58,0,0,1,5.35,3.38,5.76,5.76,0,0,1,1.15,4.85,8.13,8.13,0,0,1-3.23,5.38,10.66,10.66,0,0,1-6.59,2,7.53,7.53,0,0,1-6.13-2.52,6.55,6.55,0,0,1-1.44-5.78l.05-.12h4.59c-.23,1.71,0,2.94.7,3.69a3.68,3.68,0,0,0,2.87,1.14,4.31,4.31,0,0,0,2.89-1A4.16,4.16,0,0,0,360.56,1180.31Z"/><rect class="cls-10" x="41.05" y="666.27" width="39.73" height="39.73" rx="1.58"/><path class="cls-9" d="M133.58,695q-1.26,6.28-3.82,9.38a8.12,8.12,0,0,1-6.58,3.1,5.43,5.43,0,0,1-3.19-1,6.82,6.82,0,0,1-2.27-2.75l-1,3.23h-4.25l7.62-38.09H125l-2.76,13.67a8.5,8.5,0,0,1,2.61-1.85,7.19,7.19,0,0,1,3-.64q3.75,0,5.42,4.12t.41,10.31Zm-4.78-.51a20.08,20.08,0,0,0,.34-7.71c-.41-1.91-1.45-2.86-3.12-2.86a3.91,3.91,0,0,0-2.65,1.09,10.33,10.33,0,0,0-2.21,2.86l-2.54,12.72a4.05,4.05,0,0,0,1.34,2.26,4,4,0,0,0,2.59.8,4.47,4.47,0,0,0,3.8-2.26A18.51,18.51,0,0,0,128.7,695Z"/><path class="cls-9" d="M141.08,706.93H136.2l5.27-26.42h4.88Zm6.66-33.35h-4.88l.95-4.74h4.89Z"/><path class="cls-9" d="M148.79,693.55q1.32-6.74,4-10.13a8.2,8.2,0,0,1,6.72-3.4,5.77,5.77,0,0,1,3.22.91,6.19,6.19,0,0,1,2.25,2.56l.93-3h4.22l-5.17,26a14.84,14.84,0,0,1-4.24,8.3,11.16,11.16,0,0,1-7.82,2.84,11.51,11.51,0,0,1-3.26-.53,10.22,10.22,0,0,1-3-1.38l1.78-3.71a8.1,8.1,0,0,0,2.35,1.18,9.14,9.14,0,0,0,2.85.43,5.22,5.22,0,0,0,4.05-1.91,11.32,11.32,0,0,0,2.37-5.24l.27-1.34a8.29,8.29,0,0,1-2.59,1.75,7.54,7.54,0,0,1-2.95.59q-3.69,0-5.47-3.85t-.64-9.53Zm4.79.51a15.48,15.48,0,0,0-.16,7,3.09,3.09,0,0,0,3.19,2.58,4.13,4.13,0,0,0,2.57-.92,8.74,8.74,0,0,0,2.14-2.57L163.93,687a4.8,4.8,0,0,0-1.35-2.31,3.52,3.52,0,0,0-2.43-.84q-2.25,0-3.91,2.64a20.91,20.91,0,0,0-2.54,7Z"/><path class="cls-9" d="M182.56,693.67H172.13l.76-3.76h10.43Z"/><path class="cls-9" d="M186.49,693.55q1.33-6.76,4-10.15a8.13,8.13,0,0,1,6.66-3.38,6,6,0,0,1,3.12.83,6.3,6.3,0,0,1,2.23,2.37l.88-2.71h4.25l-7.3,36.57H195.4L197.82,705a8.78,8.78,0,0,1-2.57,1.82,6.94,6.94,0,0,1-2.88.62q-3.66,0-5.4-3.83t-.6-9.55Zm4.78.51a15.78,15.78,0,0,0-.19,7,3.07,3.07,0,0,0,3.15,2.6,4,4,0,0,0,2.43-.85,8.26,8.26,0,0,0,2.06-2.4l2.76-13.77a4.32,4.32,0,0,0-1.37-2.07,3.56,3.56,0,0,0-2.34-.76q-2.25,0-3.87,2.65a21.65,21.65,0,0,0-2.5,7.07Z"/><path class="cls-9" d="M221.67,706.93l.37-3.25a10,10,0,0,1-3.12,2.81,7.62,7.62,0,0,1-3.74,1,4.91,4.91,0,0,1-4.67-2.81c-1-1.87-1.08-4.71-.31-8.52l3.1-15.6h4.88l-3.13,15.65c-.58,2.9-.69,4.86-.31,5.9a2.28,2.28,0,0,0,2.39,1.55,5.18,5.18,0,0,0,3-.9,8.32,8.32,0,0,0,2.4-2.52l3.93-19.68h4.9L226,706.93Z"/><path class="cls-9" d="M241,707.44a7.54,7.54,0,0,1-6.62-3.3c-1.51-2.19-2-5-1.44-8.35l.61-3.85a15.65,15.65,0,0,1,4-8.65,9.77,9.77,0,0,1,7.26-3.27,6.55,6.55,0,0,1,6,3.1c1.26,2.07,1.63,4.8,1.09,8.21l-.54,3.41H238l-.17,1a9.77,9.77,0,0,0,.44,5.73,3.72,3.72,0,0,0,3.66,2.16,8.55,8.55,0,0,0,3.42-.66,11.59,11.59,0,0,0,3-1.88l1,3.08a11.15,11.15,0,0,1-3.56,2.32A12.31,12.31,0,0,1,241,707.44Zm3.2-23.61a4.36,4.36,0,0,0-3.46,2.1,13.41,13.41,0,0,0-2.21,5.27h8.57l.18-1a8.56,8.56,0,0,0-.29-4.64A2.76,2.76,0,0,0,244.23,683.83Z"/><path class="cls-9" d="M268.86,684.69l-2.22-.13a3.7,3.7,0,0,0-2.45,1,8.42,8.42,0,0,0-2,2.66l-3.76,18.75h-4.9l5.27-26.42h4.47l-.37,3.52.12.07a9.56,9.56,0,0,1,2.54-3,5.08,5.08,0,0,1,3.1-1.08,4.94,4.94,0,0,1,.92.09,3.48,3.48,0,0,1,.77.21Z"/><path class="cls-9" d="M278,697.82l0,1.47.15,0,8.45-18.8h5.32L277,711a18.73,18.73,0,0,1-3.31,4.64,6.48,6.48,0,0,1-4.77,1.93,6.36,6.36,0,0,1-1.24-.14c-.44-.09-.88-.19-1.3-.3l1.27-3.67a6.62,6.62,0,0,0,.69.1c.29,0,.51,0,.67,0a3.17,3.17,0,0,0,2.36-1.28,12.23,12.23,0,0,0,1.84-2.87l1.35-2.64-2.49-26.34h5.32Z"/><path class="cls-9" d="M133.54,70q-1.24,6.22-3.81,9.31a8.13,8.13,0,0,1-6.55,3.09,6.45,6.45,0,0,1-3.1-.73,6.32,6.32,0,0,1-2.27-2.1l-2.49,12.47h-4.9l7.3-36.57h4.39l-.22,2.3a8.35,8.35,0,0,1,2.72-2.08,7.46,7.46,0,0,1,3.21-.71c2.48,0,4.27,1.39,5.39,4.15s1.26,6.22.45,10.35Zm-4.79-.52a18.67,18.67,0,0,0,.26-7.71c-.47-2-1.51-2.93-3.14-2.93a3.88,3.88,0,0,0-2.5,1,9.66,9.66,0,0,0-2.14,2.61l-2.68,13.45a3.83,3.83,0,0,0,1.35,2,4.07,4.07,0,0,0,2.5.71,4.6,4.6,0,0,0,3.84-2.31A17.35,17.35,0,0,0,128.63,70Z"/><path class="cls-9" d="M151.24,59.69,149,59.56a3.74,3.74,0,0,0-2.45,1,8.26,8.26,0,0,0-2,2.66l-3.76,18.75h-4.91l5.27-26.42h4.47L145.25,59l.13.07a9.43,9.43,0,0,1,2.54-3A5.06,5.06,0,0,1,151,55a4.92,4.92,0,0,1,.91.09,3.33,3.33,0,0,1,.77.21Z"/><path class="cls-9" d="M152.29,67.06a15.75,15.75,0,0,1,4-8.75A10.28,10.28,0,0,1,164,55a7.23,7.23,0,0,1,6.54,3.42q2.18,3.42,1.34,8.62l-.53,3.37a16,16,0,0,1-4,8.75,10.26,10.26,0,0,1-7.71,3.26,7.33,7.33,0,0,1-6.6-3.39q-2.19-3.4-1.33-8.62Zm4.34,3.37a11.8,11.8,0,0,0,.25,6,3.29,3.29,0,0,0,3.39,2.25,4.77,4.77,0,0,0,4-2.34,14.31,14.31,0,0,0,2.22-5.91l.54-3.37a12,12,0,0,0-.26-6,3.25,3.25,0,0,0-3.33-2.27,4.82,4.82,0,0,0-4,2.34,13.86,13.86,0,0,0-2.2,5.89Z"/><path class="cls-9" d="M184.54,55.51,178.9,83.73a12.77,12.77,0,0,1-3.15,6.69,7.68,7.68,0,0,1-5.59,2.18,6.64,6.64,0,0,1-1.21-.11,11.07,11.07,0,0,1-1.21-.33l1-3.79a5.17,5.17,0,0,0,.81.25,4.39,4.39,0,0,0,.85.09,2.74,2.74,0,0,0,2.12-1.25A8.87,8.87,0,0,0,174,83.73l5.64-28.22Zm1.31-7H181l.93-4.66h4.9Z"/><path class="cls-9" d="M194.55,82.44a7.53,7.53,0,0,1-6.62-3.3c-1.51-2.19-2-5-1.44-8.35l.61-3.85a15.75,15.75,0,0,1,4-8.65A9.77,9.77,0,0,1,198.35,55a6.57,6.57,0,0,1,6.05,3.1c1.26,2.07,1.62,4.8,1.08,8.21L205,69.74H191.52l-.17,1.05a9.68,9.68,0,0,0,.44,5.73,3.7,3.7,0,0,0,3.66,2.16,8.62,8.62,0,0,0,3.42-.66,12.05,12.05,0,0,0,3-1.88l1.05,3.08a11.31,11.31,0,0,1-3.57,2.32A12.26,12.26,0,0,1,194.55,82.44Zm3.19-23.61a4.34,4.34,0,0,0-3.45,2.1,13.41,13.41,0,0,0-2.21,5.27h8.57l.17-1a8.48,8.48,0,0,0-.28-4.64A2.78,2.78,0,0,0,197.74,58.83Z"/><path class="cls-9" d="M216.71,78.68a4.36,4.36,0,0,0,3.1-1.43,6.72,6.72,0,0,0,1.84-3.82H226l0,.15A10,10,0,0,1,222.63,80a9.64,9.64,0,0,1-6.5,2.49q-4.55,0-6.61-3.38a12.26,12.26,0,0,1-1.25-8.49l.58-3.63a16.18,16.18,0,0,1,3.87-8.63A10.08,10.08,0,0,1,220.5,55a6.78,6.78,0,0,1,5.74,2.71,9,9,0,0,1,1.34,7H223a6.82,6.82,0,0,0-.41-4.33,2.86,2.86,0,0,0-2.71-1.6,4.67,4.67,0,0,0-4.07,2.32,14.63,14.63,0,0,0-2.06,5.79l-.59,3.63a13,13,0,0,0,.14,5.91A3.17,3.17,0,0,0,216.71,78.68Z"/><path class="cls-9" d="M241.52,48.94l-1.32,6.57h3.88l-.71,3.54h-3.88l-3.12,15.72a5.28,5.28,0,0,0-.05,3,1.38,1.38,0,0,0,1.34.8,7.15,7.15,0,0,0,1-.08,11.62,11.62,0,0,0,1.17-.22l-.2,3.42a11.43,11.43,0,0,1-1.9.55,10.39,10.39,0,0,1-2.1.21,4.15,4.15,0,0,1-3.77-1.87c-.81-1.24-.94-3.18-.41-5.8l3.13-15.72h-3.25l.71-3.54h3.25l1.32-6.57Z"/><path class="cls-9" d="M255.8,68.67H245.38l.75-3.76h10.43Z"/><path class="cls-9" d="M271,75.31a3.39,3.39,0,0,0-.51-2.61,9.76,9.76,0,0,0-3.2-2.32A15,15,0,0,1,262.05,67a5.36,5.36,0,0,1-1.15-4.66A8.24,8.24,0,0,1,264,57.11,10,10,0,0,1,270.45,55a7.23,7.23,0,0,1,5.76,2.33,6.5,6.5,0,0,1,1.39,5.75l-.05.13h-4.71a5,5,0,0,0-.46-3.28,2.67,2.67,0,0,0-2.49-1.31,4.28,4.28,0,0,0-4.2,3.51,3,3,0,0,0,.41,2.41,12.78,12.78,0,0,0,3.25,2.28,13.58,13.58,0,0,1,5.35,3.38,5.8,5.8,0,0,1,1.15,4.85,8.13,8.13,0,0,1-3.23,5.38,10.66,10.66,0,0,1-6.59,2,7.53,7.53,0,0,1-6.13-2.52,6.55,6.55,0,0,1-1.44-5.78l.05-.12h4.59c-.23,1.71,0,2.94.7,3.7a3.7,3.7,0,0,0,2.87,1.13,4.33,4.33,0,0,0,2.89-1A4.16,4.16,0,0,0,271,75.31Z"/><path class="cls-9" d="M288.61,78.68a4.36,4.36,0,0,0,3.1-1.43,6.78,6.78,0,0,0,1.84-3.82h4.37l0,.15A10,10,0,0,1,294.53,80a9.64,9.64,0,0,1-6.5,2.49q-4.54,0-6.61-3.38a12.26,12.26,0,0,1-1.25-8.49l.58-3.63a16.18,16.18,0,0,1,3.87-8.63A10.08,10.08,0,0,1,292.4,55a6.78,6.78,0,0,1,5.74,2.71,9,9,0,0,1,1.34,7h-4.57a6.82,6.82,0,0,0-.41-4.33,2.86,2.86,0,0,0-2.71-1.6,4.66,4.66,0,0,0-4.07,2.32,14.63,14.63,0,0,0-2.06,5.79l-.59,3.63a13,13,0,0,0,.14,5.91A3.17,3.17,0,0,0,288.61,78.68Z"/><path class="cls-9" d="M302.48,67.06a15.89,15.89,0,0,1,4-8.75A10.28,10.28,0,0,1,314.22,55a7.24,7.24,0,0,1,6.55,3.42c1.45,2.28,1.89,5.15,1.34,8.62l-.54,3.37a15.87,15.87,0,0,1-4,8.75,10.22,10.22,0,0,1-7.7,3.26,7.34,7.34,0,0,1-6.61-3.39c-1.45-2.27-1.9-5.14-1.33-8.62Zm4.35,3.37a11.81,11.81,0,0,0,.24,6,3.3,3.3,0,0,0,3.39,2.25,4.76,4.76,0,0,0,4-2.34,14.46,14.46,0,0,0,2.23-5.91l.53-3.37a12,12,0,0,0-.25-6,3.27,3.27,0,0,0-3.34-2.27,4.82,4.82,0,0,0-4.05,2.34,14.13,14.13,0,0,0-2.2,5.89Z"/><path class="cls-9" d="M345.16,70q-1.25,6.22-3.81,9.31a8.13,8.13,0,0,1-6.54,3.09,6.49,6.49,0,0,1-3.11-.73,6.32,6.32,0,0,1-2.27-2.1l-2.49,12.47H322l7.3-36.57h4.39l-.22,2.3a8.35,8.35,0,0,1,2.72-2.08,7.46,7.46,0,0,1,3.21-.71c2.48,0,4.27,1.39,5.39,4.15s1.26,6.22.45,10.35Zm-4.79-.52a18.67,18.67,0,0,0,.26-7.71c-.47-2-1.51-2.93-3.14-2.93a3.88,3.88,0,0,0-2.5,1,9.66,9.66,0,0,0-2.14,2.61l-2.68,13.45a3.83,3.83,0,0,0,1.35,2,4.07,4.07,0,0,0,2.5.71,4.6,4.6,0,0,0,3.84-2.31A17.35,17.35,0,0,0,340.25,70Z"/><path class="cls-9" d="M352.7,81.93h-4.88l5.27-26.42H358Zm6.67-33.35h-4.89l1-4.74h4.88Z"/><path class="cls-9" d="M367.86,59.15a10.77,10.77,0,0,1,3.24-3.07A7.44,7.44,0,0,1,374.92,55a4.77,4.77,0,0,1,4.51,2.61c.95,1.75,1.07,4.38.37,7.91l-3.27,16.39h-4.91l3.27-16.34c.51-2.62.54-4.39.11-5.32a2.65,2.65,0,0,0-2.69-1.39,4.3,4.3,0,0,0-2.6,1,10,10,0,0,0-2.36,2.63l-3.88,19.46h-4.91l5.27-26.42h4.5Z"/><path class="cls-9" d="M383.85,68.55q1.32-6.73,4-10.13a8.23,8.23,0,0,1,6.73-3.4,5.8,5.8,0,0,1,3.22.91A6.19,6.19,0,0,1,400,58.49l.93-3h4.22L400,81.46a14.9,14.9,0,0,1-4.24,8.3A11.19,11.19,0,0,1,388,92.6a11.5,11.5,0,0,1-3.25-.53,10.41,10.41,0,0,1-3-1.38L383.49,87a8.1,8.1,0,0,0,2.35,1.18,9.14,9.14,0,0,0,2.85.43,5.22,5.22,0,0,0,4.05-1.91,11.32,11.32,0,0,0,2.37-5.24l.27-1.34a8.29,8.29,0,0,1-2.59,1.75,7.56,7.56,0,0,1-3,.59c-2.45,0-4.28-1.28-5.46-3.85s-1.4-5.74-.64-9.53Zm4.79.51a15.48,15.48,0,0,0-.16,7,3.09,3.09,0,0,0,3.19,2.58,4.13,4.13,0,0,0,2.57-.92,8.74,8.74,0,0,0,2.14-2.57L399,62a4.74,4.74,0,0,0-1.36-2.31,3.48,3.48,0,0,0-2.42-.84q-2.25,0-3.91,2.64a20.91,20.91,0,0,0-2.54,7Z"/><path class="cls-9" d="M133.54,537q-1.24,6.23-3.81,9.31a8.13,8.13,0,0,1-6.55,3.09,6.45,6.45,0,0,1-3.1-.73,6.32,6.32,0,0,1-2.27-2.1l-2.49,12.47h-4.9l7.3-36.57h4.39l-.22,2.3a8.35,8.35,0,0,1,2.72-2.08,7.46,7.46,0,0,1,3.21-.71c2.48,0,4.27,1.39,5.39,4.15s1.26,6.22.45,10.35Zm-4.79-.52a18.67,18.67,0,0,0,.26-7.71c-.47-1.95-1.51-2.93-3.14-2.93a3.88,3.88,0,0,0-2.5,1,9.66,9.66,0,0,0-2.14,2.61l-2.68,13.45A3.83,3.83,0,0,0,119.9,545a4.07,4.07,0,0,0,2.5.71,4.6,4.6,0,0,0,3.84-2.31,17.35,17.35,0,0,0,2.39-6.33Z"/><path class="cls-9" d="M151.24,526.69l-2.23-.13a3.74,3.74,0,0,0-2.45,1,8.26,8.26,0,0,0-2,2.66l-3.76,18.75h-4.91l5.27-26.42h4.47l-.37,3.52.13.07a9.43,9.43,0,0,1,2.54-3A5.06,5.06,0,0,1,151,522a4.92,4.92,0,0,1,.91.09,3.33,3.33,0,0,1,.77.21Z"/><path class="cls-9" d="M152.29,534.06a15.75,15.75,0,0,1,4-8.75A10.28,10.28,0,0,1,164,522a7.23,7.23,0,0,1,6.54,3.42q2.18,3.42,1.34,8.62l-.53,3.37a16,16,0,0,1-4,8.75,10.26,10.26,0,0,1-7.71,3.26,7.33,7.33,0,0,1-6.6-3.39q-2.19-3.4-1.33-8.62Zm4.34,3.37a11.8,11.8,0,0,0,.25,6,3.29,3.29,0,0,0,3.39,2.25,4.77,4.77,0,0,0,4-2.34,14.31,14.31,0,0,0,2.22-5.91l.54-3.37a12,12,0,0,0-.26-6,3.25,3.25,0,0,0-3.33-2.27,4.82,4.82,0,0,0-4,2.34,13.86,13.86,0,0,0-2.2,5.89Z"/><path class="cls-9" d="M184.54,522.51l-5.64,28.22a12.77,12.77,0,0,1-3.15,6.69,7.68,7.68,0,0,1-5.59,2.18,6.64,6.64,0,0,1-1.21-.11,11.07,11.07,0,0,1-1.21-.33l1-3.79a5.17,5.17,0,0,0,.81.25,4.39,4.39,0,0,0,.85.09,2.74,2.74,0,0,0,2.12-1.25,8.87,8.87,0,0,0,1.46-3.73l5.64-28.22Zm1.31-7H181l.93-4.66h4.9Z"/><path class="cls-9" d="M194.55,549.44a7.53,7.53,0,0,1-6.62-3.3c-1.51-2.19-2-5-1.44-8.35l.61-3.85a15.75,15.75,0,0,1,4-8.65,9.77,9.77,0,0,1,7.26-3.27,6.57,6.57,0,0,1,6.05,3.1c1.26,2.07,1.62,4.8,1.08,8.21l-.53,3.41H191.52l-.17,1a9.68,9.68,0,0,0,.44,5.73,3.7,3.7,0,0,0,3.66,2.16,8.62,8.62,0,0,0,3.42-.66,11.76,11.76,0,0,0,3-1.88l1.05,3.08a11.31,11.31,0,0,1-3.57,2.32A12.26,12.26,0,0,1,194.55,549.44Zm3.19-23.61a4.34,4.34,0,0,0-3.45,2.1,13.41,13.41,0,0,0-2.21,5.27h8.57l.17-1a8.48,8.48,0,0,0-.28-4.64A2.78,2.78,0,0,0,197.74,525.83Z"/><path class="cls-9" d="M216.71,545.68a4.36,4.36,0,0,0,3.1-1.43,6.72,6.72,0,0,0,1.84-3.82H226l0,.15a10,10,0,0,1-3.43,6.37,9.64,9.64,0,0,1-6.5,2.49q-4.55,0-6.61-3.38a12.26,12.26,0,0,1-1.25-8.49l.58-3.63a16.18,16.18,0,0,1,3.87-8.63A10.08,10.08,0,0,1,220.5,522a6.78,6.78,0,0,1,5.74,2.71,9,9,0,0,1,1.34,7H223a6.82,6.82,0,0,0-.41-4.33,2.86,2.86,0,0,0-2.71-1.6,4.67,4.67,0,0,0-4.07,2.32,14.63,14.63,0,0,0-2.06,5.79l-.59,3.63a13,13,0,0,0,.14,5.91A3.17,3.17,0,0,0,216.71,545.68Z"/><path class="cls-9" d="M241.52,515.94l-1.32,6.57h3.88l-.71,3.54h-3.88l-3.12,15.72a5.28,5.28,0,0,0-.05,3,1.38,1.38,0,0,0,1.34.8,7.15,7.15,0,0,0,1-.08,11.62,11.62,0,0,0,1.17-.22l-.2,3.42a11.43,11.43,0,0,1-1.9.55,10.39,10.39,0,0,1-2.1.21,4.15,4.15,0,0,1-3.77-1.87c-.81-1.24-.94-3.18-.41-5.8l3.13-15.72h-3.25l.71-3.54h3.25l1.32-6.57Z"/><path class="cls-9" d="M255.8,535.67H245.38l.75-3.76h10.43Z"/><path class="cls-9" d="M267.28,525.83a9.7,9.7,0,0,1,3.13-2.83,8,8,0,0,1,3.9-1,4.34,4.34,0,0,1,3.13,1.2,5.86,5.86,0,0,1,1.6,3.56,11.41,11.41,0,0,1,3.3-3.51,7.36,7.36,0,0,1,4.15-1.25,4.58,4.58,0,0,1,4.38,2.82c.92,1.88,1,4.68.28,8.39L288,548.93h-4.9l3.15-15.73c.56-2.89.66-4.84.28-5.83a2.38,2.38,0,0,0-2.48-1.49,3.9,3.9,0,0,0-2.77,1.33,11.51,11.51,0,0,0-2.29,3.46c-.06.45-.11.79-.14,1s-.08.45-.12.69l-3.32,16.56h-4.89l3.15-15.73c.56-2.8.63-4.72.23-5.76a2.36,2.36,0,0,0-2.45-1.56,4.08,4.08,0,0,0-2.56.93,9.25,9.25,0,0,0-2.18,2.54l-3.9,19.58H258l5.27-26.42h4.47Z"/><path class="cls-9" d="M295.43,535.55q1.31-6.74,4-10.13a8.2,8.2,0,0,1,6.72-3.4,5.83,5.83,0,0,1,3.23.91,6.24,6.24,0,0,1,2.24,2.56l.93-3h4.22l-5.17,26a14.84,14.84,0,0,1-4.24,8.3,11.16,11.16,0,0,1-7.82,2.84,11.51,11.51,0,0,1-3.26-.53,10.22,10.22,0,0,1-3-1.38l1.78-3.71a8,8,0,0,0,2.36,1.18,9,9,0,0,0,2.84.43,5.22,5.22,0,0,0,4.05-1.91,11.22,11.22,0,0,0,2.37-5.24l.27-1.34a8.29,8.29,0,0,1-2.59,1.75,7.54,7.54,0,0,1-2.95.59q-3.69,0-5.47-3.85t-.64-9.53Zm4.78.51a15.48,15.48,0,0,0-.16,7,3.09,3.09,0,0,0,3.19,2.58,4.11,4.11,0,0,0,2.57-.92,8.74,8.74,0,0,0,2.14-2.57L310.56,529a4.73,4.73,0,0,0-1.35-2.31,3.52,3.52,0,0,0-2.43-.84q-2.25,0-3.91,2.64a20.91,20.91,0,0,0-2.54,7Z"/><path class="cls-9" d="M329.85,515.94l-1.32,6.57h3.88l-.71,3.54h-3.88l-3.12,15.72a5.28,5.28,0,0,0-.05,3,1.38,1.38,0,0,0,1.34.8,7.15,7.15,0,0,0,1-.08,11.62,11.62,0,0,0,1.17-.22l-.2,3.42a11.43,11.43,0,0,1-1.9.55,10.39,10.39,0,0,1-2.1.21,4.15,4.15,0,0,1-3.77-1.87c-.81-1.24-.94-3.18-.41-5.8l3.13-15.72h-3.25l.71-3.54h3.25l1.32-6.57Z"/><path class="cls-9" d="M132.9,619.06l.15,0,6.74-17.58h4.68l-11,26.42h-4l-1-17.29-.14,0-7.84,17.34h-4L116,601.51h4.67l-.18,17.36.15,0,7.84-17.41H132Z"/><path class="cls-9" d="M152.58,628.44a7.54,7.54,0,0,1-6.62-3.3c-1.51-2.19-2-5-1.44-8.35l.61-3.85a15.71,15.71,0,0,1,4-8.65,9.81,9.81,0,0,1,7.27-3.27,6.56,6.56,0,0,1,6,3.1c1.26,2.07,1.62,4.8,1.09,8.21l-.54,3.41H149.55l-.17,1a9.77,9.77,0,0,0,.44,5.73,3.7,3.7,0,0,0,3.66,2.16,8.62,8.62,0,0,0,3.42-.66,11.59,11.59,0,0,0,3-1.88l1.05,3.08a11.2,11.2,0,0,1-3.57,2.32A12.23,12.23,0,0,1,152.58,628.44Zm3.2-23.61a4.36,4.36,0,0,0-3.46,2.1,13.41,13.41,0,0,0-2.21,5.27h8.57l.17-1a8.48,8.48,0,0,0-.28-4.64A2.77,2.77,0,0,0,155.78,604.83Z"/><path class="cls-9" d="M186.2,616q-1.27,6.28-3.82,9.38a8.14,8.14,0,0,1-6.58,3.1,5.44,5.44,0,0,1-3.2-1,6.9,6.9,0,0,1-2.27-2.75l-1,3.23h-4.25l7.62-38.09h4.91l-2.76,13.67a8.62,8.62,0,0,1,2.61-1.85,7.26,7.26,0,0,1,3-.64c2.51,0,4.31,1.37,5.42,4.12s1.24,6.18.41,10.31Zm-4.79-.51a19.88,19.88,0,0,0,.34-7.71c-.4-1.91-1.45-2.86-3.12-2.86A3.91,3.91,0,0,0,176,606a10.52,10.52,0,0,0-2.21,2.86l-2.54,12.72a4.11,4.11,0,0,0,1.34,2.26,4,4,0,0,0,2.59.8,4.46,4.46,0,0,0,3.8-2.26,18.51,18.51,0,0,0,2.35-6.39Z"/><path class="cls-9" d="M200.63,614.67H190.2l.76-3.76h10.42Z"/><path class="cls-9" d="M204.56,614.55q1.33-6.76,4-10.15A8.11,8.11,0,0,1,215.2,601a5.76,5.76,0,0,1,3,.8,6.47,6.47,0,0,1,2.22,2.25l2.86-14.23h4.88l-7.62,38.09h-4.27l.2-2.35a8.84,8.84,0,0,1-2.79,2.14,7.4,7.4,0,0,1-3.22.72q-3.66,0-5.41-3.83t-.6-9.55Zm4.78.51a15.45,15.45,0,0,0-.19,7,3.06,3.06,0,0,0,3.15,2.57,4,4,0,0,0,2.53-1A9.16,9.16,0,0,0,217,621l2.59-12.94a4.87,4.87,0,0,0-1.36-2.35,3.41,3.41,0,0,0-2.4-.87q-2.25,0-3.87,2.62a21.34,21.34,0,0,0-2.51,7Z"/><path class="cls-9" d="M235.66,628.44a7.54,7.54,0,0,1-6.62-3.3c-1.51-2.19-2-5-1.44-8.35l.61-3.85a15.65,15.65,0,0,1,4-8.65,9.77,9.77,0,0,1,7.26-3.27,6.56,6.56,0,0,1,6,3.1c1.26,2.07,1.62,4.8,1.09,8.21l-.54,3.41H232.63l-.17,1a9.77,9.77,0,0,0,.44,5.73,3.71,3.71,0,0,0,3.66,2.16A8.55,8.55,0,0,0,240,624a11.59,11.59,0,0,0,3-1.88l1,3.08a11.2,11.2,0,0,1-3.57,2.32A12.23,12.23,0,0,1,235.66,628.44Zm3.2-23.61a4.36,4.36,0,0,0-3.46,2.1,13.41,13.41,0,0,0-2.21,5.27h8.57l.17-1a8.48,8.48,0,0,0-.28-4.64A2.76,2.76,0,0,0,238.86,604.83Z"/><path class="cls-9" d="M256.88,620l0,1.86h.15l.66-1.86,7.13-18.48h5.05l-11.74,26.42h-4.32l-3.32-26.42h5.08Z"/><rect class="cls-11" x="45.05" y="1063.27" width="39.73" height="39.73" rx="1.58"/><rect class="cls-12" x="41.05" y="745.27" width="39.73" height="39.73" rx="1.58"/><path class="cls-9" d="M129.23,1070.94l-1.31,6.57h3.88l-.71,3.54h-3.88l-3.13,15.72a5.37,5.37,0,0,0,0,3,1.38,1.38,0,0,0,1.35.8,7,7,0,0,0,1-.08,11.12,11.12,0,0,0,1.17-.22l-.19,3.42a11.71,11.71,0,0,1-1.9.55,10.53,10.53,0,0,1-2.1.21,4.18,4.18,0,0,1-3.78-1.87c-.8-1.24-.94-3.18-.4-5.8l3.13-15.72h-3.25l.71-3.54H123l1.32-6.57Z"/><path class="cls-9" d="M140.86,1104.44a7.53,7.53,0,0,1-6.62-3.3c-1.51-2.19-2-5-1.44-8.35l.61-3.85a15.71,15.71,0,0,1,4-8.65,9.77,9.77,0,0,1,7.26-3.27,6.57,6.57,0,0,1,6.05,3.1c1.26,2.07,1.62,4.8,1.08,8.21l-.53,3.41H137.83l-.17,1a9.68,9.68,0,0,0,.44,5.73,3.7,3.7,0,0,0,3.66,2.16,8.62,8.62,0,0,0,3.42-.66,11.76,11.76,0,0,0,3-1.88l1.05,3.08a11.31,11.31,0,0,1-3.57,2.32A12.26,12.26,0,0,1,140.86,1104.44Zm3.19-23.61a4.33,4.33,0,0,0-3.45,2.1,13.41,13.41,0,0,0-2.21,5.27H147l.17-1a8.48,8.48,0,0,0-.28-4.64A2.78,2.78,0,0,0,144.05,1080.83Z"/><path class="cls-9" d="M164,1087.13l.14,0,5.37-9.64h5.59l-8.71,13,4.71,13.38h-5.57l-2.39-9.94-.14,0-5.57,10h-5.57l9-13.38-4.57-13h5.54Z"/><path class="cls-9" d="M187.19,1070.94l-1.31,6.57h3.88l-.71,3.54h-3.88L182,1096.77a5.37,5.37,0,0,0,0,3,1.38,1.38,0,0,0,1.35.8,7,7,0,0,0,1-.08,11.62,11.62,0,0,0,1.17-.22l-.19,3.42a11.55,11.55,0,0,1-1.91.55,10.39,10.39,0,0,1-2.1.21,4.17,4.17,0,0,1-3.77-1.87c-.8-1.24-.94-3.18-.4-5.8l3.12-15.72H177l.71-3.54H181l1.32-6.57Z"/><path class="cls-9" d="M201.48,1090.67H191.05l.76-3.76h10.42Z"/><path class="cls-9" d="M216.37,1103.93c0-.65-.05-1.26-.05-1.81a12.78,12.78,0,0,1,.1-1.64,12.17,12.17,0,0,1-3.16,2.86,6.87,6.87,0,0,1-3.65,1.1,5.11,5.11,0,0,1-4.48-2.15,7,7,0,0,1-.8-5.61,9.42,9.42,0,0,1,3.63-6.07,12.26,12.26,0,0,1,7.36-2h3.42l.53-2.71a5.93,5.93,0,0,0-.2-3.84,2.68,2.68,0,0,0-2.58-1.29,4,4,0,0,0-2.83,1.24,5.52,5.52,0,0,0-1.64,3l-4.66,0-.05-.15a8.79,8.79,0,0,1,3.41-5.53,10.61,10.61,0,0,1,6.82-2.28,6.77,6.77,0,0,1,5.49,2.35q2,2.34,1.15,6.54l-2.46,12.26a23.76,23.76,0,0,0-.42,3,17.36,17.36,0,0,0,0,2.79Zm-4.88-3.3a5.55,5.55,0,0,0,3-1,8.52,8.52,0,0,0,2.5-2.54l1.07-5.42h-3.46a4.78,4.78,0,0,0-3.47,1.49,6.56,6.56,0,0,0-1.91,3.51,4.34,4.34,0,0,0,.18,2.94A2.1,2.1,0,0,0,211.49,1100.63Z"/><path class="cls-9" d="M235.36,1081.15a10.77,10.77,0,0,1,3.24-3.07,7.44,7.44,0,0,1,3.82-1.06,4.78,4.78,0,0,1,4.52,2.61c.94,1.75,1.06,4.38.36,7.91L244,1103.93h-4.91l3.27-16.34q.77-3.93.11-5.32a2.65,2.65,0,0,0-2.69-1.39,4.3,4.3,0,0,0-2.6,1,10.17,10.17,0,0,0-2.36,2.63L231,1103.93h-4.91l5.27-26.42h4.5Z"/><path class="cls-9" d="M262.32,1103.93c0-.65-.05-1.26-.05-1.81a14.88,14.88,0,0,1,.09-1.64,12,12,0,0,1-3.16,2.86,6.84,6.84,0,0,1-3.65,1.1,5.12,5.12,0,0,1-4.48-2.15,7,7,0,0,1-.79-5.61,9.42,9.42,0,0,1,3.63-6.07,12.26,12.26,0,0,1,7.36-2h3.41l.54-2.71A5.85,5.85,0,0,0,265,1082a2.65,2.65,0,0,0-2.57-1.29,4,4,0,0,0-2.83,1.24,5.45,5.45,0,0,0-1.64,3l-4.66,0-.05-.15a8.81,8.81,0,0,1,3.4-5.53,10.66,10.66,0,0,1,6.83-2.28,6.78,6.78,0,0,1,5.49,2.35q2,2.34,1.15,6.54l-2.47,12.26a23.62,23.62,0,0,0-.41,3,17.36,17.36,0,0,0,0,2.79Zm-4.89-3.3a5.5,5.5,0,0,0,3-1,8.44,8.44,0,0,0,2.51-2.54l1.07-5.42h-3.47a4.75,4.75,0,0,0-3.46,1.49,6.56,6.56,0,0,0-1.91,3.51,4.41,4.41,0,0,0,.17,2.94A2.12,2.12,0,0,0,257.43,1100.63Z"/><path class="cls-9" d="M277.26,1103.93h-4.89l7.62-38.09h4.88Z"/><path class="cls-9" d="M292.15,1094.82l0,1.47.15,0,8.45-18.8h5.32L291.2,1108a18.73,18.73,0,0,1-3.31,4.64,6.48,6.48,0,0,1-4.77,1.93,6.36,6.36,0,0,1-1.24-.14c-.44-.09-.88-.19-1.3-.3l1.27-3.67a6.62,6.62,0,0,0,.69.1c.29,0,.51.05.67.05a3.17,3.17,0,0,0,2.36-1.28,11.91,11.91,0,0,0,1.84-2.87l1.35-2.64-2.49-26.34h5.32Z"/><path class="cls-9" d="M317,1070.94l-1.32,6.57h3.88l-.71,3.54H315l-3.12,15.72a5.28,5.28,0,0,0-.05,3,1.38,1.38,0,0,0,1.34.8,7.26,7.26,0,0,0,1-.08,11.62,11.62,0,0,0,1.17-.22l-.2,3.42a11.43,11.43,0,0,1-1.9.55,10.53,10.53,0,0,1-2.1.21,4.15,4.15,0,0,1-3.77-1.87c-.81-1.24-.94-3.18-.41-5.8l3.13-15.72h-3.25l.71-3.54h3.25l1.32-6.57Z"/><path class="cls-9" d="M324.38,1103.93h-4.89l5.28-26.42h4.88Zm6.66-33.35h-4.88l.95-4.74H332Z"/><path class="cls-9" d="M340,1100.68a4.38,4.38,0,0,0,3.1-1.43,6.71,6.71,0,0,0,1.83-3.82h4.37l.05.15a10.09,10.09,0,0,1-3.43,6.37,9.67,9.67,0,0,1-6.51,2.49q-4.54,0-6.6-3.38c-1.38-2.26-1.8-5.08-1.26-8.49l.59-3.63a16.18,16.18,0,0,1,3.87-8.63,10.07,10.07,0,0,1,7.77-3.29,6.77,6.77,0,0,1,5.74,2.71,9,9,0,0,1,1.34,7h-4.56a6.88,6.88,0,0,0-.42-4.33,2.85,2.85,0,0,0-2.71-1.6,4.64,4.64,0,0,0-4.06,2.32,14.42,14.42,0,0,0-2.07,5.79l-.58,3.63a13,13,0,0,0,.13,5.91A3.18,3.18,0,0,0,340,1100.68Z"/><path class="cls-9" d="M365.07,1097.31a3.31,3.31,0,0,0-.51-2.61,9.65,9.65,0,0,0-3.2-2.32,15,15,0,0,1-5.25-3.37,5.36,5.36,0,0,1-1.14-4.66,8.18,8.18,0,0,1,3.13-5.24,10,10,0,0,1,6.41-2.09,7.23,7.23,0,0,1,5.76,2.33,6.5,6.5,0,0,1,1.4,5.75l-.05.13h-4.71a5,5,0,0,0-.47-3.28,2.65,2.65,0,0,0-2.49-1.31,4.28,4.28,0,0,0-4.2,3.51,2.91,2.91,0,0,0,.42,2.41,12.67,12.67,0,0,0,3.24,2.28,13.51,13.51,0,0,1,5.35,3.38,5.73,5.73,0,0,1,1.15,4.85,8.16,8.16,0,0,1-3.22,5.38,10.71,10.71,0,0,1-6.6,2,7.51,7.51,0,0,1-6.12-2.52,6.55,6.55,0,0,1-1.44-5.78l0-.12h4.59c-.22,1.71,0,2.94.7,3.69a3.68,3.68,0,0,0,2.87,1.14,4.31,4.31,0,0,0,2.89-1A4.11,4.11,0,0,0,365.07,1097.31Z"/><rect class="cls-13" x="41.05" y="822.27" width="39.73" height="39.73" rx="1.58"/><path class="cls-9" d="M121.79,839.83a9.73,9.73,0,0,1,3.14-2.83,7.94,7.94,0,0,1,3.89-1,4.36,4.36,0,0,1,3.14,1.2,5.94,5.94,0,0,1,1.6,3.56,11.18,11.18,0,0,1,3.3-3.51A7.34,7.34,0,0,1,141,836a4.58,4.58,0,0,1,4.38,2.82q1.38,2.82.28,8.39l-3.15,15.7h-4.91l3.15-15.73c.57-2.89.67-4.84.28-5.83a2.37,2.37,0,0,0-2.48-1.49,3.91,3.91,0,0,0-2.77,1.33,11.69,11.69,0,0,0-2.28,3.46c-.06.45-.11.79-.15,1s-.07.45-.12.69l-3.32,16.56H125l3.15-15.73q.83-4.2.23-5.76a2.37,2.37,0,0,0-2.45-1.56,4.13,4.13,0,0,0-2.57.93,9.23,9.23,0,0,0-2.17,2.54l-3.91,19.58h-4.85l5.27-26.42h4.47Z"/><path class="cls-9" d="M160.9,862.93c0-.65-.05-1.26-.05-1.81a14.89,14.89,0,0,1,.1-1.64,12.17,12.17,0,0,1-3.16,2.86,6.87,6.87,0,0,1-3.65,1.1,5.12,5.12,0,0,1-4.48-2.15,7,7,0,0,1-.79-5.61,9.37,9.37,0,0,1,3.62-6.07,12.28,12.28,0,0,1,7.36-2h3.42l.54-2.71a5.91,5.91,0,0,0-.21-3.84,2.65,2.65,0,0,0-2.57-1.29,4,4,0,0,0-2.84,1.24,5.5,5.5,0,0,0-1.63,3l-4.66,0-.05-.15a8.77,8.77,0,0,1,3.4-5.53,10.64,10.64,0,0,1,6.83-2.28,6.78,6.78,0,0,1,5.49,2.35q2,2.34,1.15,6.54l-2.47,12.26a23.62,23.62,0,0,0-.41,3,17.36,17.36,0,0,0,0,2.79Zm-4.88-3.3a5.52,5.52,0,0,0,3-1,8.4,8.4,0,0,0,2.5-2.54l1.08-5.42h-3.47a4.79,4.79,0,0,0-3.47,1.49,6.55,6.55,0,0,0-1.9,3.51,4.41,4.41,0,0,0,.17,2.94A2.11,2.11,0,0,0,156,859.63Z"/><path class="cls-9" d="M180.34,859.68a4.38,4.38,0,0,0,3.1-1.43,6.71,6.71,0,0,0,1.83-3.82h4.37l.05.15a10.09,10.09,0,0,1-3.43,6.37,9.65,9.65,0,0,1-6.51,2.49q-4.55,0-6.6-3.38c-1.38-2.26-1.8-5.08-1.26-8.49l.59-3.63a16.18,16.18,0,0,1,3.87-8.63,10.07,10.07,0,0,1,7.77-3.29,6.76,6.76,0,0,1,5.74,2.71,9,9,0,0,1,1.34,7h-4.56a6.88,6.88,0,0,0-.42-4.33,2.85,2.85,0,0,0-2.71-1.6,4.64,4.64,0,0,0-4.06,2.32,14.42,14.42,0,0,0-2.07,5.79l-.58,3.63a13,13,0,0,0,.13,5.91A3.18,3.18,0,0,0,180.34,859.68Z"/><path class="cls-9" d="M201.85,839.54l.12.1a9.22,9.22,0,0,1,2.95-2.68,7.3,7.3,0,0,1,3.57-.94,4.92,4.92,0,0,1,4.64,2.68q1.45,2.67.39,8.06l-3.23,16.17h-4.9l3.24-16.21q.78-3.91.11-5.38a2.64,2.64,0,0,0-2.67-1.46,4.53,4.53,0,0,0-2.61.9,9.46,9.46,0,0,0-2.35,2.44l-3.93,19.71h-4.9l7.61-38.09h4.91Z"/><path class="cls-9" d="M221,862.93H216.1l5.28-26.42h4.88Zm6.66-33.35h-4.88l.95-4.74h4.88Z"/><path class="cls-9" d="M236.15,840.15a10.86,10.86,0,0,1,3.23-3.07A7.46,7.46,0,0,1,243.2,836a4.77,4.77,0,0,1,4.52,2.61c.94,1.75,1.07,4.38.37,7.91l-3.28,16.39h-4.9l3.27-16.34q.75-3.93.11-5.32a2.66,2.66,0,0,0-2.7-1.39,4.32,4.32,0,0,0-2.6,1,10.14,10.14,0,0,0-2.35,2.63l-3.89,19.46h-4.9l5.27-26.42h4.49Z"/><path class="cls-9" d="M259.81,863.44a7.53,7.53,0,0,1-6.62-3.3c-1.51-2.19-2-5-1.44-8.35l.61-3.85a15.71,15.71,0,0,1,4-8.65,9.77,9.77,0,0,1,7.26-3.27,6.58,6.58,0,0,1,6.05,3.1c1.26,2.07,1.62,4.8,1.08,8.21l-.53,3.41H256.78l-.17,1a9.68,9.68,0,0,0,.44,5.73,3.7,3.7,0,0,0,3.66,2.16,8.62,8.62,0,0,0,3.42-.66,11.72,11.72,0,0,0,3-1.88l1,3.08a11.15,11.15,0,0,1-3.56,2.32A12.26,12.26,0,0,1,259.81,863.44ZM263,839.83a4.33,4.33,0,0,0-3.45,2.1,13.41,13.41,0,0,0-2.21,5.27h8.57l.17-1a8.57,8.57,0,0,0-.28-4.64A2.78,2.78,0,0,0,263,839.83Z"/><path class="cls-9" d="M284.41,849.67H274l.76-3.76h10.42Z"/><path class="cls-9" d="M291.74,862.93h-4.88l7.61-38.09h4.89Z"/><path class="cls-9" d="M307.12,863.44a7.54,7.54,0,0,1-6.62-3.3c-1.51-2.19-2-5-1.44-8.35l.61-3.85a15.65,15.65,0,0,1,4-8.65,9.77,9.77,0,0,1,7.26-3.27,6.56,6.56,0,0,1,6,3.1c1.26,2.07,1.62,4.8,1.09,8.21l-.54,3.41H304.09l-.17,1a9.77,9.77,0,0,0,.44,5.73,3.71,3.71,0,0,0,3.66,2.16,8.55,8.55,0,0,0,3.42-.66,11.59,11.59,0,0,0,3-1.88l1.05,3.08a11.2,11.2,0,0,1-3.57,2.32A12.23,12.23,0,0,1,307.12,863.44Zm3.2-23.61a4.36,4.36,0,0,0-3.46,2.1,13.41,13.41,0,0,0-2.21,5.27h8.57l.17-1a8.48,8.48,0,0,0-.28-4.64A2.76,2.76,0,0,0,310.32,839.83Z"/><path class="cls-9" d="M332.36,862.93c0-.65-.05-1.26-.05-1.81a14.89,14.89,0,0,1,.1-1.64,12.17,12.17,0,0,1-3.16,2.86,6.87,6.87,0,0,1-3.65,1.1,5.12,5.12,0,0,1-4.48-2.15,7,7,0,0,1-.79-5.61,9.37,9.37,0,0,1,3.62-6.07,12.28,12.28,0,0,1,7.36-2h3.42l.54-2.71a5.91,5.91,0,0,0-.21-3.84,2.65,2.65,0,0,0-2.57-1.29,4,4,0,0,0-2.84,1.24,5.5,5.5,0,0,0-1.63,3l-4.67,0,0-.15a8.77,8.77,0,0,1,3.4-5.53,10.64,10.64,0,0,1,6.83-2.28,6.78,6.78,0,0,1,5.49,2.35q2,2.34,1.15,6.54l-2.47,12.26a23.62,23.62,0,0,0-.41,3,17.36,17.36,0,0,0,0,2.79Zm-4.88-3.3a5.52,5.52,0,0,0,3-1,8.4,8.4,0,0,0,2.5-2.54l1.08-5.42h-3.47a4.79,4.79,0,0,0-3.47,1.49,6.55,6.55,0,0,0-1.9,3.51,4.41,4.41,0,0,0,.17,2.94A2.11,2.11,0,0,0,327.48,859.63Z"/><path class="cls-9" d="M357.46,840.69l-2.22-.13a3.7,3.7,0,0,0-2.45,1,8.42,8.42,0,0,0-2,2.66L347,862.93H342.1l5.28-26.42h4.47l-.37,3.52.12.07a9.43,9.43,0,0,1,2.54-3,4.94,4.94,0,0,1,4-1,3.65,3.65,0,0,1,.77.21Z"/><path class="cls-9" d="M366.4,840.15a10.86,10.86,0,0,1,3.23-3.07,7.46,7.46,0,0,1,3.82-1.06,4.78,4.78,0,0,1,4.52,2.61c.94,1.75,1.07,4.38.37,7.91l-3.28,16.39h-4.9l3.27-16.34q.75-3.93.11-5.32a2.66,2.66,0,0,0-2.7-1.39,4.3,4.3,0,0,0-2.6,1,10.35,10.35,0,0,0-2.36,2.63L362,862.93h-4.9l5.27-26.42h4.49Z"/><path class="cls-9" d="M385.78,862.93H380.9l5.27-26.42h4.89Zm6.67-33.35h-4.89l1-4.74h4.88Z"/><path class="cls-9" d="M400.94,840.15a10.77,10.77,0,0,1,3.24-3.07A7.44,7.44,0,0,1,408,836a4.78,4.78,0,0,1,4.52,2.61c.94,1.75,1.06,4.38.36,7.91l-3.27,16.39H404.7L408,846.59q.76-3.93.11-5.32a2.65,2.65,0,0,0-2.69-1.39,4.3,4.3,0,0,0-2.6,1,10.17,10.17,0,0,0-2.36,2.63l-3.88,19.46h-4.91l5.27-26.42h4.5Z"/><path class="cls-9" d="M416.93,849.55q1.32-6.74,4-10.13a8.2,8.2,0,0,1,6.72-3.4,5.77,5.77,0,0,1,3.22.91,6.19,6.19,0,0,1,2.25,2.56l.93-3h4.22l-5.17,26a14.84,14.84,0,0,1-4.24,8.3A11.16,11.16,0,0,1,421,873.6a11.51,11.51,0,0,1-3.26-.53,10.22,10.22,0,0,1-3-1.38l1.78-3.71a8.1,8.1,0,0,0,2.35,1.18,9.14,9.14,0,0,0,2.85.43,5.22,5.22,0,0,0,4.05-1.91,11.32,11.32,0,0,0,2.37-5.24l.27-1.34a8.29,8.29,0,0,1-2.59,1.75,7.54,7.54,0,0,1-2.95.59c-2.46,0-4.29-1.28-5.47-3.85s-1.4-5.74-.64-9.53Zm4.79.51a15.48,15.48,0,0,0-.16,7,3.09,3.09,0,0,0,3.19,2.58,4.13,4.13,0,0,0,2.57-.92,8.74,8.74,0,0,0,2.14-2.57L432.07,843a4.8,4.8,0,0,0-1.35-2.31,3.52,3.52,0,0,0-2.43-.84q-2.25,0-3.91,2.64a20.91,20.91,0,0,0-2.54,7Z"/><path class="cls-9" d="M114.25,772.55q1.34-6.76,4-10.15a8.13,8.13,0,0,1,6.66-3.38,5.73,5.73,0,0,1,3,.8,6.3,6.3,0,0,1,2.22,2.25L133,747.84h4.88l-7.61,38.09h-4.28l.2-2.35a8.84,8.84,0,0,1-2.79,2.14,7.37,7.37,0,0,1-3.22.72q-3.66,0-5.41-3.83t-.59-9.55Zm4.78.51a15.6,15.6,0,0,0-.19,7,3.06,3.06,0,0,0,3.15,2.57,4,4,0,0,0,2.54-1A9.31,9.31,0,0,0,126.7,779l2.59-12.94a4.87,4.87,0,0,0-1.36-2.35,3.39,3.39,0,0,0-2.4-.87q-2.25,0-3.87,2.62a21.35,21.35,0,0,0-2.5,7Z"/><path class="cls-9" d="M148.65,785.93c0-.65-.05-1.26-.05-1.81a12.78,12.78,0,0,1,.1-1.64,12.33,12.33,0,0,1-3.16,2.86,6.89,6.89,0,0,1-3.65,1.1,5.11,5.11,0,0,1-4.48-2.15,7,7,0,0,1-.8-5.61,9.42,9.42,0,0,1,3.63-6.07,12.26,12.26,0,0,1,7.36-2H151l.53-2.71a5.93,5.93,0,0,0-.2-3.84,2.68,2.68,0,0,0-2.58-1.29,4,4,0,0,0-2.83,1.24,5.52,5.52,0,0,0-1.64,3l-4.66,0,0-.15A8.79,8.79,0,0,1,143,761.3a10.61,10.61,0,0,1,6.82-2.28,6.78,6.78,0,0,1,5.49,2.35q2,2.34,1.15,6.54L154,780.17a23.62,23.62,0,0,0-.41,3,17.36,17.36,0,0,0,0,2.79Zm-4.88-3.3a5.49,5.49,0,0,0,3-1,8.44,8.44,0,0,0,2.51-2.54l1.07-5.42h-3.47a4.77,4.77,0,0,0-3.46,1.49,6.56,6.56,0,0,0-1.91,3.51,4.41,4.41,0,0,0,.17,2.94A2.12,2.12,0,0,0,143.77,782.63Z"/><path class="cls-9" d="M171.18,752.94l-1.32,6.57h3.89l-.71,3.54h-3.88L166,778.77a5.37,5.37,0,0,0-.05,3,1.38,1.38,0,0,0,1.34.8,7,7,0,0,0,1-.08,11.62,11.62,0,0,0,1.17-.22l-.19,3.42a11.55,11.55,0,0,1-1.91.55,10.39,10.39,0,0,1-2.1.21,4.16,4.16,0,0,1-3.77-1.87c-.8-1.24-.94-3.18-.4-5.8l3.12-15.72H161l.7-3.54H165l1.32-6.57Z"/><path class="cls-9" d="M186.1,785.93c0-.65,0-1.26,0-1.81a12.78,12.78,0,0,1,.1-1.64,12.17,12.17,0,0,1-3.16,2.86,6.87,6.87,0,0,1-3.65,1.1,5.11,5.11,0,0,1-4.48-2.15,7,7,0,0,1-.8-5.61,9.42,9.42,0,0,1,3.63-6.07,12.26,12.26,0,0,1,7.36-2h3.42l.53-2.71a5.93,5.93,0,0,0-.2-3.84,2.68,2.68,0,0,0-2.58-1.29,4,4,0,0,0-2.83,1.24,5.52,5.52,0,0,0-1.64,3l-4.66,0-.05-.15a8.79,8.79,0,0,1,3.41-5.53,10.61,10.61,0,0,1,6.82-2.28,6.77,6.77,0,0,1,5.49,2.35q2,2.34,1.15,6.54l-2.46,12.26a23.76,23.76,0,0,0-.42,3,17.38,17.38,0,0,0,0,2.79Zm-4.88-3.3a5.55,5.55,0,0,0,3-1,8.52,8.52,0,0,0,2.5-2.54l1.07-5.42h-3.46a4.78,4.78,0,0,0-3.47,1.49,6.56,6.56,0,0,0-1.91,3.51,4.34,4.34,0,0,0,.18,2.94A2.1,2.1,0,0,0,181.22,782.63Z"/><path class="cls-9" d="M208,772.67H197.55l.76-3.76h10.42Z"/><path class="cls-9" d="M219.57,786.44a7.54,7.54,0,0,1-6.62-3.3c-1.51-2.19-2-5-1.44-8.35l.61-3.85a15.65,15.65,0,0,1,4-8.65,9.77,9.77,0,0,1,7.26-3.27,6.55,6.55,0,0,1,6,3.1c1.26,2.07,1.63,4.8,1.09,8.21l-.54,3.41H216.54l-.17,1a9.77,9.77,0,0,0,.44,5.73,3.72,3.72,0,0,0,3.66,2.16,8.55,8.55,0,0,0,3.42-.66,11.59,11.59,0,0,0,3-1.88l1,3.08a11.15,11.15,0,0,1-3.56,2.32A12.31,12.31,0,0,1,219.57,786.44Zm3.2-23.61a4.36,4.36,0,0,0-3.46,2.1,13.41,13.41,0,0,0-2.21,5.27h8.57l.18-1a8.56,8.56,0,0,0-.29-4.64A2.76,2.76,0,0,0,222.77,762.83Z"/><path class="cls-9" d="M242.69,769.13l.15,0,5.37-9.64h5.59l-8.72,13,4.72,13.38h-5.57L241.84,776l-.15,0-5.57,10h-5.56l9-13.38-4.56-13h5.54Z"/><path class="cls-9" d="M274.21,774q-1.24,6.23-3.81,9.31a8.13,8.13,0,0,1-6.54,3.09,6.42,6.42,0,0,1-3.1-.73,6.24,6.24,0,0,1-2.27-2.1L256,796.08h-4.91l7.3-36.57h4.39l-.22,2.3a8.49,8.49,0,0,1,2.73-2.08,7.46,7.46,0,0,1,3.21-.71c2.47,0,4.26,1.39,5.38,4.15s1.27,6.22.45,10.35Zm-4.79-.52a18.67,18.67,0,0,0,.26-7.71q-.69-2.92-3.14-2.93a3.88,3.88,0,0,0-2.5,1,9.66,9.66,0,0,0-2.14,2.61l-2.68,13.45a4,4,0,0,0,1.35,2.05,4.09,4.09,0,0,0,2.51.71,4.6,4.6,0,0,0,3.83-2.31A17,17,0,0,0,269.3,774Z"/><path class="cls-9" d="M281.75,785.93h-4.88l7.62-38.09h4.88Z"/><path class="cls-9" d="M289.52,771.06a15.82,15.82,0,0,1,4-8.75,10.28,10.28,0,0,1,7.76-3.29,7.23,7.23,0,0,1,6.54,3.42q2.18,3.42,1.35,8.62l-.54,3.37a16,16,0,0,1-4,8.75,10.26,10.26,0,0,1-7.71,3.26,7.33,7.33,0,0,1-6.6-3.39q-2.19-3.4-1.33-8.62Zm4.34,3.37a11.91,11.91,0,0,0,.25,6,3.3,3.3,0,0,0,3.39,2.25,4.77,4.77,0,0,0,4-2.34,14.31,14.31,0,0,0,2.22-5.91l.54-3.37a12,12,0,0,0-.26-6,3.25,3.25,0,0,0-3.33-2.27,4.82,4.82,0,0,0-4,2.34,14,14,0,0,0-2.2,5.89Z"/><path class="cls-9" d="M326.46,763.69l-2.23-.13a3.72,3.72,0,0,0-2.45,1,8.26,8.26,0,0,0-2,2.66L316,785.93H311.1l5.27-26.42h4.47l-.37,3.52.13.07a9.31,9.31,0,0,1,2.54-3,5.06,5.06,0,0,1,3.1-1.08,4.92,4.92,0,0,1,.91.09,3.33,3.33,0,0,1,.77.21Z"/><path class="cls-9" d="M338.91,785.93c0-.65-.05-1.26-.05-1.81a12.78,12.78,0,0,1,.1-1.64,12.2,12.2,0,0,1-3.17,2.86,6.84,6.84,0,0,1-3.65,1.1,5.13,5.13,0,0,1-4.48-2.15,7,7,0,0,1-.79-5.61,9.42,9.42,0,0,1,3.63-6.07,12.26,12.26,0,0,1,7.36-2h3.41l.54-2.71a5.85,5.85,0,0,0-.21-3.84,2.65,2.65,0,0,0-2.57-1.29A4,4,0,0,0,336.2,764a5.45,5.45,0,0,0-1.64,3l-4.66,0,0-.15a8.81,8.81,0,0,1,3.4-5.53,10.66,10.66,0,0,1,6.83-2.28,6.78,6.78,0,0,1,5.49,2.35q2,2.34,1.15,6.54l-2.47,12.26a23.62,23.62,0,0,0-.41,3,17.36,17.36,0,0,0,0,2.79Zm-4.89-3.3a5.5,5.5,0,0,0,3-1,8.44,8.44,0,0,0,2.51-2.54l1.07-5.42h-3.47a4.77,4.77,0,0,0-3.46,1.49,6.56,6.56,0,0,0-1.91,3.51,4.41,4.41,0,0,0,.17,2.94A2.12,2.12,0,0,0,334,782.63Z"/><path class="cls-9" d="M361.44,752.94l-1.32,6.57H364l-.7,3.54h-3.89l-3.12,15.72a5.37,5.37,0,0,0-.05,3,1.38,1.38,0,0,0,1.34.8,7,7,0,0,0,1-.08,11.62,11.62,0,0,0,1.17-.22l-.19,3.42a11.84,11.84,0,0,1-1.91.55,10.39,10.39,0,0,1-2.1.21,4.16,4.16,0,0,1-3.77-1.87c-.81-1.24-.94-3.18-.4-5.8l3.12-15.72h-3.25l.71-3.54h3.25l1.32-6.57Z"/><path class="cls-9" d="M368.79,785.93h-4.88l5.27-26.42h4.88Zm6.66-33.35h-4.88l.95-4.74h4.89Z"/><path class="cls-9" d="M376.55,771.06a15.89,15.89,0,0,1,4-8.75A10.3,10.3,0,0,1,388.3,759a7.23,7.23,0,0,1,6.54,3.42q2.18,3.42,1.34,8.62l-.53,3.37a16,16,0,0,1-4,8.75,10.22,10.22,0,0,1-7.7,3.26,7.31,7.31,0,0,1-6.6-3.39q-2.19-3.4-1.33-8.62Zm4.35,3.37a11.81,11.81,0,0,0,.24,6,3.31,3.31,0,0,0,3.4,2.25,4.77,4.77,0,0,0,4-2.34,14.31,14.31,0,0,0,2.22-5.91l.53-3.37a11.92,11.92,0,0,0-.25-6,3.25,3.25,0,0,0-3.33-2.27,4.82,4.82,0,0,0-4.06,2.34,14,14,0,0,0-2.19,5.89Z"/><path class="cls-9" d="M407.39,763.15a10.86,10.86,0,0,1,3.23-3.07,7.46,7.46,0,0,1,3.82-1.06,4.77,4.77,0,0,1,4.52,2.61c.94,1.75,1.07,4.38.37,7.91l-3.27,16.39h-4.91l3.27-16.34q.75-3.93.11-5.32a2.66,2.66,0,0,0-2.7-1.39,4.32,4.32,0,0,0-2.6,1,10.14,10.14,0,0,0-2.35,2.63L403,785.93h-4.9l5.27-26.42h4.49Z"/><rect class="cls-14" x="41.05" y="901.27" width="39.73" height="39.73" rx="1.58"/><path class="cls-9" d="M122.13,938.68a4.36,4.36,0,0,0,3.1-1.43,6.72,6.72,0,0,0,1.84-3.82h4.37l0,.15a10,10,0,0,1-3.43,6.37,9.64,9.64,0,0,1-6.5,2.49q-4.55,0-6.61-3.38a12.26,12.26,0,0,1-1.25-8.49l.58-3.63a16.18,16.18,0,0,1,3.87-8.63,10.08,10.08,0,0,1,7.78-3.29,6.78,6.78,0,0,1,5.74,2.71,9,9,0,0,1,1.34,7h-4.57a6.82,6.82,0,0,0-.41-4.33,2.86,2.86,0,0,0-2.71-1.6,4.67,4.67,0,0,0-4.07,2.32,14.57,14.57,0,0,0-2.06,5.79l-.59,3.63a13,13,0,0,0,.14,5.91A3.17,3.17,0,0,0,122.13,938.68Z"/><path class="cls-9" d="M136,927.06a15.89,15.89,0,0,1,4-8.75,10.28,10.28,0,0,1,7.76-3.29,7.24,7.24,0,0,1,6.55,3.42c1.45,2.28,1.89,5.15,1.34,8.62l-.54,3.37a15.87,15.87,0,0,1-4,8.75,10.22,10.22,0,0,1-7.7,3.26,7.34,7.34,0,0,1-6.61-3.39c-1.45-2.27-1.9-5.14-1.33-8.62Zm4.35,3.37a11.81,11.81,0,0,0,.24,6,3.3,3.3,0,0,0,3.39,2.25,4.76,4.76,0,0,0,4-2.34,14.32,14.32,0,0,0,2.23-5.91l.53-3.37a12,12,0,0,0-.25-6,3.26,3.26,0,0,0-3.34-2.27,4.82,4.82,0,0,0-4,2.34,14.13,14.13,0,0,0-2.2,5.89Z"/><path class="cls-9" d="M166.93,918.83a9.83,9.83,0,0,1,3.14-2.83,8,8,0,0,1,3.9-1,4.36,4.36,0,0,1,3.13,1.2,5.94,5.94,0,0,1,1.6,3.56,11.29,11.29,0,0,1,3.3-3.51,7.34,7.34,0,0,1,4.15-1.25,4.58,4.58,0,0,1,4.38,2.82q1.38,2.82.28,8.39l-3.15,15.7h-4.91l3.15-15.73c.57-2.89.67-4.84.28-5.83a2.36,2.36,0,0,0-2.47-1.49,3.9,3.9,0,0,0-2.77,1.33,11.51,11.51,0,0,0-2.29,3.46c-.06.45-.11.79-.14,1s-.08.45-.13.69l-3.32,16.56h-4.88l3.15-15.73q.82-4.2.23-5.76a2.36,2.36,0,0,0-2.45-1.56,4.08,4.08,0,0,0-2.56.93,9.08,9.08,0,0,0-2.18,2.54l-3.9,19.58h-4.86l5.27-26.42h4.47Z"/><path class="cls-9" d="M214.37,930q-1.25,6.23-3.81,9.31a8.13,8.13,0,0,1-6.54,3.09,6.42,6.42,0,0,1-3.1-.73,6.24,6.24,0,0,1-2.27-2.1l-2.49,12.47h-4.91l7.3-36.57h4.39l-.21,2.3a8.35,8.35,0,0,1,2.72-2.08,7.46,7.46,0,0,1,3.21-.71c2.47,0,4.27,1.39,5.38,4.15s1.27,6.22.45,10.35Zm-4.78-.52a18.64,18.64,0,0,0,.25-7.71q-.69-2.92-3.14-2.93a3.9,3.9,0,0,0-2.5,1,9.46,9.46,0,0,0-2.13,2.61l-2.69,13.45a3.9,3.9,0,0,0,1.36,2.05,4.05,4.05,0,0,0,2.5.71,4.6,4.6,0,0,0,3.83-2.31,17,17,0,0,0,2.39-6.33Z"/><path class="cls-9" d="M230.26,941.93l.37-3.25a10,10,0,0,1-3.11,2.81,7.68,7.68,0,0,1-3.75,1,4.9,4.9,0,0,1-4.66-2.81q-1.47-2.8-.32-8.52l3.1-15.6h4.88l-3.12,15.65c-.59,2.9-.69,4.86-.32,5.9a2.28,2.28,0,0,0,2.39,1.55,5.21,5.21,0,0,0,3-.9,8.41,8.41,0,0,0,2.39-2.52L235,915.51h4.91l-5.28,26.42Z"/><path class="cls-9" d="M252.94,908.94l-1.31,6.57h3.88l-.71,3.54h-3.88l-3.13,15.72a5.37,5.37,0,0,0,0,3,1.38,1.38,0,0,0,1.35.8,7,7,0,0,0,1-.08,11.12,11.12,0,0,0,1.17-.22l-.19,3.42a11.71,11.71,0,0,1-1.9.55,10.53,10.53,0,0,1-2.1.21,4.18,4.18,0,0,1-3.78-1.87c-.8-1.24-.94-3.18-.4-5.8L246,919.05h-3.25l.71-3.54h3.24l1.32-6.57Z"/><path class="cls-9" d="M264.57,942.44a7.53,7.53,0,0,1-6.62-3.3c-1.51-2.19-2-5-1.44-8.35l.61-3.85a15.71,15.71,0,0,1,4-8.65,9.77,9.77,0,0,1,7.26-3.27,6.57,6.57,0,0,1,6.05,3.1c1.26,2.07,1.62,4.8,1.08,8.21l-.53,3.41H261.54l-.17,1a9.68,9.68,0,0,0,.44,5.73,3.7,3.7,0,0,0,3.66,2.16,8.62,8.62,0,0,0,3.42-.66,11.76,11.76,0,0,0,3-1.88l1.05,3.08a11.31,11.31,0,0,1-3.57,2.32A12.26,12.26,0,0,1,264.57,942.44Zm3.19-23.61a4.33,4.33,0,0,0-3.45,2.1,13.41,13.41,0,0,0-2.21,5.27h8.57l.17-1a8.48,8.48,0,0,0-.28-4.64A2.78,2.78,0,0,0,267.76,918.83Z"/><path class="cls-9" d="M292.4,919.69l-2.22-.13a3.75,3.75,0,0,0-2.46,1,8.41,8.41,0,0,0-2,2.66L282,941.93H277l5.27-26.42h4.47l-.36,3.52.12.07a9.43,9.43,0,0,1,2.54-3,5.06,5.06,0,0,1,3.1-1.08,4.84,4.84,0,0,1,.91.09,3.33,3.33,0,0,1,.77.21Z"/><path class="cls-9" d="M304.21,928.67H293.79l.76-3.76H305Z"/><path class="cls-9" d="M315.4,934l0,1.86h.15l.66-1.86,7.13-18.48h5.05l-11.74,26.42h-4.32l-3.32-26.42h5.08Z"/><path class="cls-9" d="M332.61,941.93h-4.88L333,915.51h4.88Zm6.66-33.35h-4.88l.95-4.74h4.89Z"/><path class="cls-9" d="M351.6,935.31a3.39,3.39,0,0,0-.51-2.61,9.76,9.76,0,0,0-3.2-2.32,15,15,0,0,1-5.25-3.37,5.39,5.39,0,0,1-1.15-4.66,8.24,8.24,0,0,1,3.14-5.24A10,10,0,0,1,351,915a7.23,7.23,0,0,1,5.76,2.33,6.5,6.5,0,0,1,1.39,5.75l0,.13h-4.72A5,5,0,0,0,353,920a2.67,2.67,0,0,0-2.49-1.31,4.28,4.28,0,0,0-4.2,3.51,3,3,0,0,0,.41,2.41,12.78,12.78,0,0,0,3.25,2.28,13.58,13.58,0,0,1,5.35,3.38,5.76,5.76,0,0,1,1.15,4.85,8.13,8.13,0,0,1-3.23,5.38,10.66,10.66,0,0,1-6.59,2,7.53,7.53,0,0,1-6.13-2.52,6.55,6.55,0,0,1-1.44-5.78l.05-.12h4.59c-.23,1.71,0,2.94.7,3.69a3.68,3.68,0,0,0,2.87,1.14,4.31,4.31,0,0,0,2.89-1A4.16,4.16,0,0,0,351.6,935.31Z"/><path class="cls-9" d="M364.71,941.93h-4.88l5.27-26.42H370Zm6.67-33.35h-4.89l1-4.74h4.88Z"/><path class="cls-9" d="M372.48,927.06a15.82,15.82,0,0,1,4-8.75,10.28,10.28,0,0,1,7.76-3.29,7.23,7.23,0,0,1,6.54,3.42q2.17,3.42,1.34,8.62l-.53,3.37a16,16,0,0,1-4,8.75,10.26,10.26,0,0,1-7.71,3.26,7.33,7.33,0,0,1-6.6-3.39q-2.19-3.4-1.33-8.62Zm4.34,3.37a11.8,11.8,0,0,0,.25,6,3.3,3.3,0,0,0,3.39,2.25,4.77,4.77,0,0,0,4-2.34,14.31,14.31,0,0,0,2.22-5.91l.54-3.37a12,12,0,0,0-.26-6,3.25,3.25,0,0,0-3.33-2.27,4.82,4.82,0,0,0-4.05,2.34,14,14,0,0,0-2.2,5.89Z"/><path class="cls-9" d="M403.31,919.15a10.77,10.77,0,0,1,3.24-3.07,7.44,7.44,0,0,1,3.82-1.06,4.77,4.77,0,0,1,4.51,2.61c.95,1.75,1.07,4.38.37,7.91L412,941.93h-4.91l3.27-16.34c.51-2.62.54-4.39.11-5.32a2.66,2.66,0,0,0-2.7-1.39,4.34,4.34,0,0,0-2.6,1,10.14,10.14,0,0,0-2.35,2.63l-3.88,19.46H394l5.27-26.42h4.49Z"/><rect class="cls-15" x="41.05" y="1217.27" width="39.73" height="39.73" rx="1.58"/><rect class="cls-16" x="41.05" y="430.27" width="39.73" height="39.73" rx="1.58"/><path class="cls-9" d="M114.3,1243.06a15.82,15.82,0,0,1,4-8.75A10.28,10.28,0,0,1,126,1231a7.23,7.23,0,0,1,6.54,3.42q2.17,3.42,1.35,8.62l-.54,3.37a16,16,0,0,1-4,8.75,10.26,10.26,0,0,1-7.71,3.26,7.33,7.33,0,0,1-6.6-3.39q-2.19-3.4-1.33-8.62Zm4.34,3.37a11.91,11.91,0,0,0,.25,6,3.3,3.3,0,0,0,3.39,2.25,4.77,4.77,0,0,0,4-2.34,14.31,14.31,0,0,0,2.22-5.91l.54-3.37a12,12,0,0,0-.26-6,3.25,3.25,0,0,0-3.33-2.27,4.82,4.82,0,0,0-4.05,2.34,14,14,0,0,0-2.2,5.89Z"/><path class="cls-9" d="M148.67,1224.94l-1.32,6.57h3.89l-.71,3.54h-3.88l-3.13,15.72a5.37,5.37,0,0,0-.05,3,1.38,1.38,0,0,0,1.34.8,7,7,0,0,0,1-.08,11.62,11.62,0,0,0,1.17-.22l-.19,3.42a11.55,11.55,0,0,1-1.91.55,10.39,10.39,0,0,1-2.1.21,4.16,4.16,0,0,1-3.77-1.87c-.8-1.24-.94-3.18-.4-5.8l3.12-15.72h-3.24l.7-3.54h3.25l1.32-6.57Z"/><path class="cls-9" d="M160.32,1234.54l.12.1a9.33,9.33,0,0,1,2.95-2.68A7.33,7.33,0,0,1,167,1231a4.92,4.92,0,0,1,4.64,2.68q1.46,2.67.39,8.06l-3.22,16.17h-4.91l3.24-16.21c.53-2.61.56-4.4.11-5.38a2.63,2.63,0,0,0-2.67-1.46,4.53,4.53,0,0,0-2.61.9,9.6,9.6,0,0,0-2.34,2.44l-3.94,19.71h-4.9l7.61-38.09h4.91Z"/><path class="cls-9" d="M183.73,1258.44a7.54,7.54,0,0,1-6.62-3.3c-1.51-2.19-2-5-1.44-8.35l.61-3.85a15.65,15.65,0,0,1,4-8.65,9.77,9.77,0,0,1,7.26-3.27,6.55,6.55,0,0,1,6,3.1c1.26,2.07,1.63,4.8,1.09,8.21l-.54,3.41H180.7l-.17,1a9.77,9.77,0,0,0,.44,5.73,3.72,3.72,0,0,0,3.66,2.16,8.55,8.55,0,0,0,3.42-.66,11.59,11.59,0,0,0,3-1.88l1.05,3.08a11.15,11.15,0,0,1-3.56,2.32A12.31,12.31,0,0,1,183.73,1258.44Zm3.2-23.61a4.36,4.36,0,0,0-3.46,2.1,13.26,13.26,0,0,0-2.2,5.27h8.56l.18-1a8.56,8.56,0,0,0-.29-4.64A2.76,2.76,0,0,0,186.93,1234.83Z"/><path class="cls-9" d="M211.56,1235.69l-2.22-.13a3.7,3.7,0,0,0-2.45,1,8.42,8.42,0,0,0-2,2.66l-3.76,18.75h-4.9l5.27-26.42H206l-.37,3.52.12.07a9.56,9.56,0,0,1,2.54-3,5.08,5.08,0,0,1,3.1-1.08,4.94,4.94,0,0,1,.92.09,3.48,3.48,0,0,1,.77.21Z"/><path class="cls-9" d="M224.33,1251.31a3.39,3.39,0,0,0-.51-2.61,9.76,9.76,0,0,0-3.2-2.32,15,15,0,0,1-5.25-3.37,5.36,5.36,0,0,1-1.15-4.66,8.24,8.24,0,0,1,3.14-5.24,10,10,0,0,1,6.41-2.09,7.23,7.23,0,0,1,5.76,2.33,6.5,6.5,0,0,1,1.39,5.75l0,.13h-4.71a5,5,0,0,0-.46-3.28,2.67,2.67,0,0,0-2.49-1.31,4.28,4.28,0,0,0-4.2,3.51,3,3,0,0,0,.41,2.41,12.78,12.78,0,0,0,3.25,2.28,13.58,13.58,0,0,1,5.35,3.38,5.8,5.8,0,0,1,1.15,4.85,8.13,8.13,0,0,1-3.23,5.38,10.66,10.66,0,0,1-6.59,2,7.53,7.53,0,0,1-6.13-2.52,6.55,6.55,0,0,1-1.44-5.78l.05-.12h4.59c-.23,1.71,0,2.94.7,3.69a3.68,3.68,0,0,0,2.87,1.14,4.33,4.33,0,0,0,2.89-1A4.16,4.16,0,0,0,224.33,1251.31Z"/><rect class="cls-17" x="41.05" y="980.27" width="39.73" height="39.73" rx="1.58"/><path class="cls-9" d="M114.25,1007.55q1.34-6.76,4-10.15a8.13,8.13,0,0,1,6.66-3.38,5.73,5.73,0,0,1,3,.8,6.3,6.3,0,0,1,2.22,2.25L133,982.84h4.88l-7.61,38.09h-4.28l.2-2.35a8.84,8.84,0,0,1-2.79,2.14,7.37,7.37,0,0,1-3.22.72q-3.66,0-5.41-3.83t-.59-9.55Zm4.78.51a15.6,15.6,0,0,0-.19,7,3.06,3.06,0,0,0,3.15,2.57,4,4,0,0,0,2.54-1,9.31,9.31,0,0,0,2.17-2.61l2.59-12.94a4.87,4.87,0,0,0-1.36-2.35,3.39,3.39,0,0,0-2.4-.87q-2.25,0-3.87,2.62a21.35,21.35,0,0,0-2.5,7Z"/><path class="cls-9" d="M148.65,1020.93c0-.65-.05-1.26-.05-1.81a12.78,12.78,0,0,1,.1-1.64,12.33,12.33,0,0,1-3.16,2.86,6.89,6.89,0,0,1-3.65,1.1,5.11,5.11,0,0,1-4.48-2.15,7,7,0,0,1-.8-5.61,9.42,9.42,0,0,1,3.63-6.07,12.26,12.26,0,0,1,7.36-2H151l.53-2.71a5.93,5.93,0,0,0-.2-3.84,2.68,2.68,0,0,0-2.58-1.29,4,4,0,0,0-2.83,1.24,5.52,5.52,0,0,0-1.64,3l-4.66,0,0-.15A8.79,8.79,0,0,1,143,996.3a10.61,10.61,0,0,1,6.82-2.28,6.78,6.78,0,0,1,5.49,2.35q2,2.34,1.15,6.54L154,1015.17a23.62,23.62,0,0,0-.41,3,17.36,17.36,0,0,0,0,2.79Zm-4.88-3.3a5.49,5.49,0,0,0,3-1,8.44,8.44,0,0,0,2.51-2.54l1.07-5.42h-3.47a4.77,4.77,0,0,0-3.46,1.49,6.56,6.56,0,0,0-1.91,3.51,4.41,4.41,0,0,0,.17,2.94A2.12,2.12,0,0,0,143.77,1017.63Z"/><path class="cls-9" d="M171.18,987.94l-1.32,6.57h3.89l-.71,3.54h-3.88L166,1013.77a5.37,5.37,0,0,0-.05,3,1.38,1.38,0,0,0,1.34.8,7,7,0,0,0,1-.08,11.62,11.62,0,0,0,1.17-.22l-.19,3.42a11.55,11.55,0,0,1-1.91.55,10.39,10.39,0,0,1-2.1.21,4.16,4.16,0,0,1-3.77-1.87c-.8-1.24-.94-3.18-.4-5.8l3.12-15.72H161l.7-3.54H165l1.32-6.57Z"/><path class="cls-9" d="M186.1,1020.93c0-.65,0-1.26,0-1.81a12.78,12.78,0,0,1,.1-1.64,12.17,12.17,0,0,1-3.16,2.86,6.87,6.87,0,0,1-3.65,1.1,5.11,5.11,0,0,1-4.48-2.15,7,7,0,0,1-.8-5.61,9.42,9.42,0,0,1,3.63-6.07,12.26,12.26,0,0,1,7.36-2h3.42l.53-2.71a5.93,5.93,0,0,0-.2-3.84,2.68,2.68,0,0,0-2.58-1.29,4,4,0,0,0-2.83,1.24,5.52,5.52,0,0,0-1.64,3l-4.66,0-.05-.15a8.79,8.79,0,0,1,3.41-5.53,10.61,10.61,0,0,1,6.82-2.28,6.77,6.77,0,0,1,5.49,2.35q2,2.34,1.15,6.54l-2.46,12.26a23.76,23.76,0,0,0-.42,3,17.38,17.38,0,0,0,0,2.79Zm-4.88-3.3a5.55,5.55,0,0,0,3-1,8.52,8.52,0,0,0,2.5-2.54l1.07-5.42h-3.46a4.78,4.78,0,0,0-3.47,1.49,6.56,6.56,0,0,0-1.91,3.51,4.34,4.34,0,0,0,.18,2.94A2.1,2.1,0,0,0,181.22,1017.63Z"/><path class="cls-9" d="M208,1007.67H197.55l.76-3.76h10.42Z"/><path class="cls-9" d="M219.57,1021.44a7.54,7.54,0,0,1-6.62-3.3c-1.51-2.19-2-5-1.44-8.35l.61-3.85a15.65,15.65,0,0,1,4-8.65,9.77,9.77,0,0,1,7.26-3.27,6.55,6.55,0,0,1,6,3.1c1.26,2.07,1.63,4.8,1.09,8.21l-.54,3.41H216.54l-.17,1a9.77,9.77,0,0,0,.44,5.73,3.72,3.72,0,0,0,3.66,2.16,8.55,8.55,0,0,0,3.42-.66,11.59,11.59,0,0,0,3-1.88l1,3.08a11.15,11.15,0,0,1-3.56,2.32A12.31,12.31,0,0,1,219.57,1021.44Zm3.2-23.61a4.36,4.36,0,0,0-3.46,2.1,13.41,13.41,0,0,0-2.21,5.27h8.57l.18-1a8.56,8.56,0,0,0-.29-4.64A2.76,2.76,0,0,0,222.77,997.83Z"/><path class="cls-9" d="M241.3,998.15a10.86,10.86,0,0,1,3.23-3.07,7.46,7.46,0,0,1,3.82-1.06,4.77,4.77,0,0,1,4.52,2.61c.95,1.75,1.07,4.38.37,7.91L250,1020.93h-4.91l3.27-16.34q.75-3.93.11-5.32a2.66,2.66,0,0,0-2.7-1.39,4.32,4.32,0,0,0-2.6,1,10.14,10.14,0,0,0-2.35,2.63l-3.89,19.46H232l5.27-26.42h4.49Z"/><path class="cls-9" d="M257.29,1007.55q1.32-6.74,4-10.13A8.22,8.22,0,0,1,268,994a5.8,5.8,0,0,1,3.22.91,6.34,6.34,0,0,1,2.25,2.56l.92-3h4.23l-5.18,26a14.9,14.9,0,0,1-4.23,8.3,11.21,11.21,0,0,1-7.83,2.84,11.57,11.57,0,0,1-3.26-.53,10.35,10.35,0,0,1-3-1.38l1.78-3.71a8.16,8.16,0,0,0,2.36,1.18,9.12,9.12,0,0,0,2.84.43,5.25,5.25,0,0,0,4.06-1.91,11.32,11.32,0,0,0,2.37-5.24l.26-1.34a8.25,8.25,0,0,1-2.58,1.75,7.59,7.59,0,0,1-3,.59q-3.69,0-5.47-3.85t-.63-9.53Zm4.79.51a15.48,15.48,0,0,0-.16,7,3.09,3.09,0,0,0,3.18,2.58,4.14,4.14,0,0,0,2.58-.92,8.57,8.57,0,0,0,2.13-2.57l2.62-13.09a4.74,4.74,0,0,0-1.36-2.31,3.49,3.49,0,0,0-2.43-.84c-1.49,0-2.8.88-3.9,2.64a20.7,20.7,0,0,0-2.54,7Z"/><path class="cls-9" d="M280.73,1007.55q1.32-6.74,4-10.13a8.21,8.21,0,0,1,6.73-3.4,5.82,5.82,0,0,1,3.22.91,6.24,6.24,0,0,1,2.24,2.56l.93-3h4.23l-5.18,26a14.84,14.84,0,0,1-4.24,8.3,11.16,11.16,0,0,1-7.82,2.84,11.57,11.57,0,0,1-3.26-.53,10.22,10.22,0,0,1-3-1.38l1.78-3.71a8.16,8.16,0,0,0,2.36,1.18,9,9,0,0,0,2.84.43,5.22,5.22,0,0,0,4.05-1.91,11.12,11.12,0,0,0,2.37-5.24l.27-1.34a8.29,8.29,0,0,1-2.59,1.75,7.51,7.51,0,0,1-3,.59q-3.69,0-5.47-3.85t-.63-9.53Zm4.78.51a15.62,15.62,0,0,0-.16,7,3.1,3.1,0,0,0,3.19,2.58,4.14,4.14,0,0,0,2.58-.92,8.57,8.57,0,0,0,2.13-2.57l2.61-13.09a4.65,4.65,0,0,0-1.35-2.31,3.52,3.52,0,0,0-2.43-.84q-2.25,0-3.91,2.64a20.92,20.92,0,0,0-2.53,7Z"/><path class="cls-9" d="M133.54,459q-1.24,6.22-3.81,9.31a8.13,8.13,0,0,1-6.55,3.09,6.45,6.45,0,0,1-3.1-.73,6.32,6.32,0,0,1-2.27-2.1l-2.49,12.47h-4.9l7.3-36.57h4.39l-.22,2.3a8.35,8.35,0,0,1,2.72-2.08,7.46,7.46,0,0,1,3.21-.71c2.48,0,4.27,1.39,5.39,4.15s1.26,6.22.45,10.35Zm-4.79-.52a18.67,18.67,0,0,0,.26-7.71c-.47-1.95-1.51-2.93-3.14-2.93a3.88,3.88,0,0,0-2.5,1,9.66,9.66,0,0,0-2.14,2.61l-2.68,13.45A3.83,3.83,0,0,0,119.9,467a4.07,4.07,0,0,0,2.5.71,4.6,4.6,0,0,0,3.84-2.31,17.35,17.35,0,0,0,2.39-6.33Z"/><path class="cls-9" d="M151.24,448.69l-2.23-.13a3.74,3.74,0,0,0-2.45,1,8.26,8.26,0,0,0-2,2.66l-3.76,18.75h-4.91l5.27-26.42h4.47l-.37,3.52.13.07a9.43,9.43,0,0,1,2.54-3A5.06,5.06,0,0,1,151,444a4.92,4.92,0,0,1,.91.09,3.33,3.33,0,0,1,.77.21Z"/><path class="cls-9" d="M152.29,456.06a15.75,15.75,0,0,1,4-8.75A10.28,10.28,0,0,1,164,444a7.23,7.23,0,0,1,6.54,3.42q2.18,3.42,1.34,8.62l-.53,3.37a16,16,0,0,1-4,8.75,10.26,10.26,0,0,1-7.71,3.26,7.33,7.33,0,0,1-6.6-3.39q-2.19-3.41-1.33-8.62Zm4.34,3.37a11.8,11.8,0,0,0,.25,6,3.29,3.29,0,0,0,3.39,2.25,4.77,4.77,0,0,0,4-2.34,14.31,14.31,0,0,0,2.22-5.91l.54-3.37a12,12,0,0,0-.26-6,3.25,3.25,0,0,0-3.33-2.27,4.82,4.82,0,0,0-4,2.34,13.86,13.86,0,0,0-2.2,5.89Z"/><path class="cls-9" d="M175.67,457.55q1.35-6.76,4-10.15a8.13,8.13,0,0,1,6.67-3.38,5.76,5.76,0,0,1,3,.8,6.47,6.47,0,0,1,2.22,2.25l2.86-14.23h4.88l-7.62,38.09h-4.27l.19-2.35a8.7,8.7,0,0,1-2.78,2.14,7.4,7.4,0,0,1-3.22.72c-2.44,0-4.25-1.28-5.41-3.83s-1.36-5.74-.6-9.55Zm4.79.51a15.63,15.63,0,0,0-.2,7,3.07,3.07,0,0,0,3.15,2.57,4,4,0,0,0,2.54-1,9.33,9.33,0,0,0,2.18-2.61l2.58-12.94a4.86,4.86,0,0,0-1.35-2.35,3.41,3.41,0,0,0-2.41-.87q-2.23,0-3.87,2.62a21.58,21.58,0,0,0-2.5,7.05Z"/><path class="cls-9" d="M210.85,470.93l.37-3.25a10,10,0,0,1-3.11,2.81,7.68,7.68,0,0,1-3.75.95,4.9,4.9,0,0,1-4.66-2.81c-1-1.87-1.08-4.71-.32-8.52l3.1-15.6h4.88l-3.12,15.65c-.59,2.9-.69,4.86-.32,5.9a2.29,2.29,0,0,0,2.39,1.55,5.28,5.28,0,0,0,3-.89,8.58,8.58,0,0,0,2.39-2.53l3.93-19.68h4.91l-5.27,26.42Z"/><path class="cls-9" d="M230.44,467.68a4.38,4.38,0,0,0,3.1-1.43,6.71,6.71,0,0,0,1.83-3.82h4.37l0,.15a10.09,10.09,0,0,1-3.43,6.37,9.69,9.69,0,0,1-6.51,2.49q-4.54,0-6.6-3.38c-1.38-2.26-1.8-5.08-1.26-8.49l.58-3.63a16.18,16.18,0,0,1,3.87-8.63,10.09,10.09,0,0,1,7.78-3.29,6.77,6.77,0,0,1,5.74,2.71,9,9,0,0,1,1.34,7h-4.57a6.82,6.82,0,0,0-.41-4.33,2.85,2.85,0,0,0-2.71-1.6,4.67,4.67,0,0,0-4.07,2.32,14.63,14.63,0,0,0-2.06,5.79l-.58,3.63a12.88,12.88,0,0,0,.13,5.91A3.17,3.17,0,0,0,230.44,467.68Z"/><path class="cls-9" d="M255.24,437.94l-1.32,6.57h3.88l-.7,3.54h-3.89l-3.12,15.72a5.37,5.37,0,0,0-.05,3,1.38,1.38,0,0,0,1.34.8,7.15,7.15,0,0,0,1-.08,11.62,11.62,0,0,0,1.17-.22l-.2,3.42a11.43,11.43,0,0,1-1.9.55,10.39,10.39,0,0,1-2.1.21,4.15,4.15,0,0,1-3.77-1.87c-.81-1.24-.94-3.18-.4-5.8l3.12-15.72h-3.25l.71-3.54H249l1.32-6.57Z"/><path class="cls-9" d="M269.52,457.67H259.1l.75-3.76h10.43Z"/><path class="cls-9" d="M284.73,464.31a3.39,3.39,0,0,0-.51-2.61,9.76,9.76,0,0,0-3.2-2.32,15,15,0,0,1-5.25-3.37,5.36,5.36,0,0,1-1.15-4.66,8.24,8.24,0,0,1,3.14-5.24,10,10,0,0,1,6.41-2.09,7.23,7.23,0,0,1,5.76,2.33,6.5,6.5,0,0,1,1.39,5.75l-.05.13h-4.71a5,5,0,0,0-.46-3.28,2.67,2.67,0,0,0-2.49-1.31,4.28,4.28,0,0,0-4.2,3.51,3,3,0,0,0,.41,2.41,12.78,12.78,0,0,0,3.25,2.28,13.58,13.58,0,0,1,5.35,3.38,5.76,5.76,0,0,1,1.15,4.85,8.13,8.13,0,0,1-3.23,5.38,10.66,10.66,0,0,1-6.59,2,7.53,7.53,0,0,1-6.13-2.52,6.55,6.55,0,0,1-1.44-5.78l.05-.12h4.59c-.23,1.71,0,2.94.7,3.7a3.71,3.71,0,0,0,2.87,1.13,4.31,4.31,0,0,0,2.89-1A4.16,4.16,0,0,0,284.73,464.31Z"/><path class="cls-9" d="M305.44,437.94l-1.32,6.57H308l-.71,3.54h-3.88l-3.13,15.72a5.37,5.37,0,0,0,0,3,1.39,1.39,0,0,0,1.35.8,7,7,0,0,0,1-.08,11.12,11.12,0,0,0,1.17-.22l-.19,3.42a11.71,11.71,0,0,1-1.9.55,10.53,10.53,0,0,1-2.1.21,4.18,4.18,0,0,1-3.78-1.87c-.8-1.24-.94-3.18-.4-5.8l3.13-15.72h-3.25l.71-3.54h3.24l1.32-6.57Z"/><path class="cls-9" d="M322.94,448.69l-2.22-.13a3.75,3.75,0,0,0-2.46,1,8.56,8.56,0,0,0-2,2.66l-3.76,18.75h-4.91l5.28-26.42h4.46L317,448l.12.07a9.43,9.43,0,0,1,2.54-3,4.94,4.94,0,0,1,4-1,3.38,3.38,0,0,1,.76.21Z"/><path class="cls-9" d="M335.39,470.93c0-.65-.05-1.26-.05-1.81a12.78,12.78,0,0,1,.1-1.64,12.17,12.17,0,0,1-3.16,2.86,6.87,6.87,0,0,1-3.65,1.1,5.11,5.11,0,0,1-4.48-2.15,7,7,0,0,1-.8-5.61,9.42,9.42,0,0,1,3.63-6.07,12.26,12.26,0,0,1,7.36-2h3.42l.54-2.71a6,6,0,0,0-.21-3.84,2.67,2.67,0,0,0-2.58-1.29,4,4,0,0,0-2.83,1.24,5.44,5.44,0,0,0-1.63,3l-4.67,0-.05-.15a8.78,8.78,0,0,1,3.41-5.52,10.58,10.58,0,0,1,6.82-2.29,6.79,6.79,0,0,1,5.5,2.35c1.31,1.56,1.7,3.74,1.14,6.54l-2.46,12.26a25.78,25.78,0,0,0-.42,3,18.6,18.6,0,0,0,0,2.79Zm-4.88-3.3a5.55,5.55,0,0,0,3-1,8.4,8.4,0,0,0,2.5-2.54l1.07-5.42h-3.46a4.79,4.79,0,0,0-3.47,1.49,6.55,6.55,0,0,0-1.9,3.51,4.35,4.35,0,0,0,.17,2.94A2.11,2.11,0,0,0,330.51,467.63Z"/><path class="cls-9" d="M357.93,437.94l-1.32,6.57h3.88l-.71,3.54H355.9l-3.13,15.72a5.25,5.25,0,0,0,0,3,1.37,1.37,0,0,0,1.34.8,7,7,0,0,0,1-.08,11.27,11.27,0,0,0,1.18-.22l-.2,3.42a11.71,11.71,0,0,1-1.9.55,10.53,10.53,0,0,1-2.1.21,4.18,4.18,0,0,1-3.78-1.87c-.8-1.24-.94-3.18-.4-5.8L351,448.05h-3.25l.71-3.54h3.24l1.32-6.57Z"/><path class="cls-9" d="M369.55,471.44a7.53,7.53,0,0,1-6.62-3.3c-1.51-2.19-2-5-1.44-8.35l.61-3.85a15.75,15.75,0,0,1,4-8.65,9.77,9.77,0,0,1,7.26-3.27,6.57,6.57,0,0,1,6,3.1c1.26,2.07,1.62,4.8,1.08,8.21l-.53,3.41H366.52l-.17,1.05a9.68,9.68,0,0,0,.44,5.73,3.7,3.7,0,0,0,3.66,2.16,8.62,8.62,0,0,0,3.42-.66,12.05,12.05,0,0,0,3-1.88l1,3.08a11.31,11.31,0,0,1-3.57,2.32A12.26,12.26,0,0,1,369.55,471.44Zm3.19-23.61a4.34,4.34,0,0,0-3.45,2.1,13.41,13.41,0,0,0-2.21,5.27h8.57l.17-1a8.48,8.48,0,0,0-.28-4.64A2.78,2.78,0,0,0,372.74,447.83Z"/><path class="cls-9" d="M383.83,457.55q1.32-6.74,4-10.13a8.21,8.21,0,0,1,6.73-3.4,5.82,5.82,0,0,1,3.22.91,6.34,6.34,0,0,1,2.25,2.56l.92-3h4.23L400,470.46a14.84,14.84,0,0,1-4.24,8.3,11.16,11.16,0,0,1-7.82,2.84,11.57,11.57,0,0,1-3.26-.53,10.22,10.22,0,0,1-3-1.38l1.78-3.71a8.16,8.16,0,0,0,2.36,1.18,9.08,9.08,0,0,0,2.84.43,5.25,5.25,0,0,0,4.06-1.91,11.22,11.22,0,0,0,2.36-5.24l.27-1.34a8.29,8.29,0,0,1-2.59,1.75,7.51,7.51,0,0,1-2.95.59q-3.69,0-5.47-3.85t-.63-9.53Zm4.78.51a15.45,15.45,0,0,0-.15,7,3.09,3.09,0,0,0,3.18,2.58,4.14,4.14,0,0,0,2.58-.92,8.57,8.57,0,0,0,2.13-2.57L399,451a4.74,4.74,0,0,0-1.36-2.31,3.52,3.52,0,0,0-2.43-.84q-2.25,0-3.91,2.64a20.92,20.92,0,0,0-2.53,7Z"/><path class="cls-9" d="M414.44,461.82l0,1.47.14,0,8.45-18.8h5.32L413.49,475a18.73,18.73,0,0,1-3.31,4.64,6.47,6.47,0,0,1-4.77,1.93,6.35,6.35,0,0,1-1.23-.14c-.45-.09-.89-.19-1.31-.3l1.27-3.67a6.47,6.47,0,0,0,.7.1c.28,0,.51.05.67.05a3.15,3.15,0,0,0,2.35-1.28,12.26,12.26,0,0,0,1.85-2.87l1.34-2.64-2.49-26.34h5.32Z"/></svg>