<svg id="Layer_1" data-name="Layer 1" xmlns="http://www.w3.org/2000/svg" viewBox="0 0 236 223"><defs><style>.cls-1{fill:#eb5739;}.cls-2{fill:none;stroke:#232323;stroke-miterlimit:10;stroke-width:3px;}</style></defs><title>Untitled-1</title><rect class="cls-1" x="17" y="106.85" width="85.15" height="85.15" rx="1.82"/><rect class="cls-1" x="60.73" y="51.62" width="41.42" height="41.42" rx="1.55"/><rect class="cls-1" x="86.04" y="24" width="16.11" height="16.11" rx="0.8"/><line class="cls-2" x1="110" y1="14" x2="110" y2="211"/><path d="M129,40.93h-9.93l.28-1.72,5.91-6.67a20.74,20.74,0,0,0,2.06-2.87,7.12,7.12,0,0,0,.82-2.21A4.21,4.21,0,0,0,128,25a1.47,1.47,0,0,0-1.43-.88,2.51,2.51,0,0,0-2,1,5.79,5.79,0,0,0-1.1,2.76H121l0-.08a6.87,6.87,0,0,1,1.93-4.08,5.38,5.38,0,0,1,4-1.6A3.7,3.7,0,0,1,130,23.62a4.81,4.81,0,0,1,.7,3.76,7.92,7.92,0,0,1-1.26,3.15A28,28,0,0,1,126.69,34l-4,4.95,0,.06h6.65Z"/><path d="M140.86,34.62h1.86l-.4,2h-1.85l-.87,4.36h-2.53l.86-4.36h-6.35l.22-1.44,8.9-12.69h2.6Zm-6.47,0h3.93L140,26.29l-.08,0-.28.44Z"/><path d="M154.08,28.76l.06.06a4.6,4.6,0,0,1,1.54-1.39,3.69,3.69,0,0,1,1.85-.49,2.54,2.54,0,0,1,2.41,1.39,6.35,6.35,0,0,1,.21,4.19l-1.68,8.41h-2.55l1.69-8.43a5.11,5.11,0,0,0,0-2.8,1.38,1.38,0,0,0-1.39-.76,2.35,2.35,0,0,0-1.35.47,5,5,0,0,0-1.22,1.27l-2,10.25H149.1l4-19.81h2.55Z"/><path d="M169.31,29.36l-1.15-.06a1.94,1.94,0,0,0-1.28.49,4.48,4.48,0,0,0-1,1.39l-2,9.75h-2.55l2.74-13.74h2.32L166.2,29l.07,0a4.92,4.92,0,0,1,1.32-1.56,2.63,2.63,0,0,1,2.08-.52,2,2,0,0,1,.4.11Z"/><path d="M176,37.49a1.74,1.74,0,0,0-.26-1.36A5.16,5.16,0,0,0,174,34.92a7.7,7.7,0,0,1-2.73-1.75,2.78,2.78,0,0,1-.59-2.42A4.24,4.24,0,0,1,172.33,28a5.2,5.2,0,0,1,3.33-1.08,3.77,3.77,0,0,1,3,1.21,3.39,3.39,0,0,1,.72,3l0,.06H176.9a2.54,2.54,0,0,0-.24-1.7,1.36,1.36,0,0,0-1.29-.68,2.11,2.11,0,0,0-1.47.55,2.15,2.15,0,0,0-.72,1.27,1.5,1.5,0,0,0,.22,1.25,6.43,6.43,0,0,0,1.69,1.19,7.08,7.08,0,0,1,2.78,1.76,3,3,0,0,1,.6,2.52,4.25,4.25,0,0,1-1.68,2.8,5.57,5.57,0,0,1-3.43,1,3.9,3.9,0,0,1-3.18-1.3,3.42,3.42,0,0,1-.75-3l0-.07h2.39a2.35,2.35,0,0,0,.36,1.93,1.94,1.94,0,0,0,1.49.59,2.31,2.31,0,0,0,1.51-.52A2.16,2.16,0,0,0,176,37.49Z"/><path d="M128.61,74.62h1.85l-.39,1.95h-1.85l-.87,4.36h-2.54l.87-4.36h-6.35l.22-1.44,8.9-12.69h2.6Zm-6.47,0h3.93l1.66-8.33-.07,0-.28.44Z"/><path d="M140.21,62.18a5.33,5.33,0,0,1,1.5.21A4.58,4.58,0,0,1,143,63l-.79,1.89a3.67,3.67,0,0,0-1-.52,4,4,0,0,0-1.27-.18,3.29,3.29,0,0,0-2.57,1.5,8.58,8.58,0,0,0-1.57,4l-.06.41a5.48,5.48,0,0,1,1.58-1,4.82,4.82,0,0,1,1.83-.37A3,3,0,0,1,142,70.39a7,7,0,0,1,.48,4.42,8.8,8.8,0,0,1-2.06,4.64,5,5,0,0,1-3.79,1.74,3.77,3.77,0,0,1-3.4-2,7.83,7.83,0,0,1-.64-5.39l.65-4a10.22,10.22,0,0,1,2.52-5.61A6.06,6.06,0,0,1,140.21,62.18Zm-2,8.36a3,3,0,0,0-1.63.47,3.94,3.94,0,0,0-1.23,1.27L135.07,74a7.75,7.75,0,0,0,.11,3.91,1.81,1.81,0,0,0,1.72,1.34,2.31,2.31,0,0,0,1.86-1.3,8.14,8.14,0,0,0,1.15-3.14,6,6,0,0,0-.13-3.1A1.61,1.61,0,0,0,138.2,70.54Z"/><path d="M154.08,68.76l.06.06a4.6,4.6,0,0,1,1.54-1.39,3.69,3.69,0,0,1,1.85-.49,2.54,2.54,0,0,1,2.41,1.39,6.35,6.35,0,0,1,.21,4.19l-1.68,8.41h-2.55l1.69-8.43a5.11,5.11,0,0,0,0-2.8,1.38,1.38,0,0,0-1.39-.76,2.35,2.35,0,0,0-1.35.47,5,5,0,0,0-1.22,1.27l-2,10.25H149.1l4-19.81h2.55Z"/><path d="M169.31,69.36l-1.15-.06a1.94,1.94,0,0,0-1.28.49,4.48,4.48,0,0,0-1,1.39l-2,9.75h-2.55l2.74-13.74h2.32L166.2,69l.07,0a4.92,4.92,0,0,1,1.32-1.56,2.63,2.63,0,0,1,2.08-.52,2,2,0,0,1,.4.11Z"/><path d="M176,77.49a1.74,1.74,0,0,0-.26-1.36A5.16,5.16,0,0,0,174,74.92a7.7,7.7,0,0,1-2.73-1.75,2.78,2.78,0,0,1-.59-2.42A4.24,4.24,0,0,1,172.33,68a5.2,5.2,0,0,1,3.33-1.08,3.77,3.77,0,0,1,3,1.21,3.39,3.39,0,0,1,.72,3l0,.06H176.9a2.54,2.54,0,0,0-.24-1.7,1.36,1.36,0,0,0-1.29-.68,2.11,2.11,0,0,0-1.47.55,2.15,2.15,0,0,0-.72,1.27,1.5,1.5,0,0,0,.22,1.25,6.43,6.43,0,0,0,1.69,1.19,7.08,7.08,0,0,1,2.78,1.76,3,3,0,0,1,.6,2.52,4.25,4.25,0,0,1-1.68,2.8,5.57,5.57,0,0,1-3.43,1,3.9,3.9,0,0,1-3.18-1.3,3.42,3.42,0,0,1-.75-3l0-.07h2.39a2.35,2.35,0,0,0,.36,1.93,1.94,1.94,0,0,0,1.49.59,2.31,2.31,0,0,0,1.51-.52A2.16,2.16,0,0,0,176,77.49Z"/><path d="M131.67,112.42a27,27,0,0,0-4.51,6.71,47.77,47.77,0,0,0-2.6,8l-.44,1.77h-2.53l.42-1.77a40,40,0,0,1,2.87-8,34.53,34.53,0,0,1,4.31-6.69h-7.84l.32-2H132Z"/><path d="M141.29,128.93h-9.92l.28-1.72,5.9-6.67a20.74,20.74,0,0,0,2.06-2.87,7.12,7.12,0,0,0,.82-2.21,4.21,4.21,0,0,0-.18-2.42,1.47,1.47,0,0,0-1.43-.88,2.51,2.51,0,0,0-2,1,5.79,5.79,0,0,0-1.1,2.76h-2.43l0-.08a6.93,6.93,0,0,1,1.93-4.08,5.39,5.39,0,0,1,4-1.6,3.69,3.69,0,0,1,3.15,1.44,4.77,4.77,0,0,1,.7,3.76,7.92,7.92,0,0,1-1.26,3.15,27.05,27.05,0,0,1-2.79,3.43l-4,5,0,.06h6.65Z"/><path d="M154.08,116.76l.06.06a4.6,4.6,0,0,1,1.54-1.39,3.69,3.69,0,0,1,1.85-.49,2.54,2.54,0,0,1,2.41,1.39,6.35,6.35,0,0,1,.21,4.19l-1.68,8.41h-2.55l1.69-8.43a5.11,5.11,0,0,0,0-2.8,1.38,1.38,0,0,0-1.39-.76,2.35,2.35,0,0,0-1.35.47,5,5,0,0,0-1.22,1.27l-2,10.25H149.1l4-19.81h2.55Z"/><path d="M169.31,117.36l-1.15-.06a1.94,1.94,0,0,0-1.28.49,4.48,4.48,0,0,0-1,1.39l-2,9.75h-2.55l2.74-13.74h2.32L166.2,117l.07,0a4.92,4.92,0,0,1,1.32-1.56,2.63,2.63,0,0,1,2.08-.52,2,2,0,0,1,.4.11Z"/><path d="M176,125.49a1.74,1.74,0,0,0-.26-1.36,5.16,5.16,0,0,0-1.67-1.21,7.7,7.7,0,0,1-2.73-1.75,2.78,2.78,0,0,1-.59-2.42,4.24,4.24,0,0,1,1.63-2.73,5.2,5.2,0,0,1,3.33-1.08,3.77,3.77,0,0,1,3,1.21,3.39,3.39,0,0,1,.72,3l0,.06H176.9a2.54,2.54,0,0,0-.24-1.7,1.36,1.36,0,0,0-1.29-.68,2.11,2.11,0,0,0-1.47.55,2.15,2.15,0,0,0-.72,1.27,1.5,1.5,0,0,0,.22,1.25,6.43,6.43,0,0,0,1.69,1.19,7.08,7.08,0,0,1,2.78,1.76,3,3,0,0,1,.6,2.52,4.25,4.25,0,0,1-1.68,2.8,5.57,5.57,0,0,1-3.43,1,3.9,3.9,0,0,1-3.18-1.3,3.42,3.42,0,0,1-.75-3l0-.07h2.39a2.35,2.35,0,0,0,.36,1.93,1.94,1.94,0,0,0,1.49.59,2.31,2.31,0,0,0,1.51-.52A2.16,2.16,0,0,0,176,125.49Z"/></svg>