<svg id="Layer_1" data-name="Layer 1" xmlns="http://www.w3.org/2000/svg" viewBox="0 0 268.54 685.32"><defs><style>.cls-1{fill:#ef4631;}.cls-2{fill:#f47f71;}.cls-3{fill:#10b9ce;}.cls-4{fill:#72dde9;}.cls-5{fill:#7a86c8;}.cls-6{fill:#ff9138;}.cls-7{fill:#ffb478;}.cls-8{fill:#3f50b0;}.cls-9{font-size:50px;fill:#383838;font-family:RobotoCondensed-Italic, Roboto Condensed;font-style:italic;}.cls-10{letter-spacing:-0.01em;}.cls-11{letter-spacing:-0.01em;}.cls-12{letter-spacing:-0.01em;}.cls-13{fill:#2292ec;}</style></defs><title>legend-1</title><rect class="cls-1" x="2" y="4.85" width="39.73" height="39.73" rx="1.58"/><rect class="cls-2" x="2" y="81.66" width="39.73" height="39.73" rx="1.58"/><rect class="cls-3" x="2" y="161.12" width="39.73" height="39.73" rx="1.58"/><rect class="cls-4" x="2" y="237.66" width="39.73" height="39.73" rx="1.58"/><rect class="cls-5" y="552.12" width="39.73" height="39.73" rx="1.58"/><rect class="cls-6" y="314.66" width="39.73" height="39.73" rx="1.58"/><rect class="cls-7" y="394.12" width="39.73" height="39.73" rx="1.58"/><rect class="cls-8" y="473.12" width="39.73" height="39.73" rx="1.58"/><text class="cls-9" transform="translate(72.69 42.77)">bi<tspan class="cls-10" x="34.55" y="0">z</tspan><tspan x="54.57" y="0">d</tspan><tspan class="cls-11" x="78" y="0">e</tspan><tspan x="99.63" y="0">v</tspan></text><text class="cls-9" transform="translate(72.69 122.77)">p<tspan class="cls-12" x="23.44" y="0">r</tspan><tspan x="37.99" y="0">oject-1</tspan></text><text class="cls-9" transform="translate(72.69 199.77)">p<tspan class="cls-12" x="23.44" y="0">r</tspan><tspan x="37.99" y="0">oject-4</tspan></text><text class="cls-9" transform="translate(72.69 277.77)">p<tspan class="cls-12" x="23.44" y="0">r</tspan><tspan x="37.99" y="0">oject-8</tspan></text><text class="cls-9" transform="translate(70.69 592.77)">learning</text><rect class="cls-13" y="631.12" width="39.73" height="39.73" rx="1.58"/><text class="cls-9" transform="translate(70.69 671.77)">internal</text><text class="cls-9" transform="translate(70.69 352.77)">p<tspan class="cls-12" x="23.44" y="0">r</tspan><tspan x="37.99" y="0">oject-5</tspan></text><text class="cls-9" transform="translate(70.69 434.77)">p<tspan class="cls-12" x="23.44" y="0">r</tspan><tspan x="37.99" y="0">oject-10</tspan></text><text class="cls-9" transform="translate(70.69 513.77)">geospatial</text></svg>