<svg id="Layer_1" data-name="Layer 1" xmlns="http://www.w3.org/2000/svg" viewBox="0 0 397 768"><defs><style>.cls-1{fill:#ef4631;}.cls-2{fill:#f47f71;}.cls-3{fill:#10b9ce;}.cls-4{fill:#72dde9;}.cls-5{fill:#7a86c8;}.cls-6{fill:#ff9138;}.cls-7{fill:#ffb478;}.cls-8{fill:#3f50b0;}.cls-9{fill:#383838;}.cls-10{fill:#2292ec;}</style></defs><title>Untitled-1</title><rect class="cls-1" x="38.05" y="41" width="39.73" height="39.73" rx="1.58"/><rect class="cls-2" x="38.05" y="117.81" width="39.73" height="39.73" rx="1.58"/><rect class="cls-3" x="38.05" y="197.27" width="39.73" height="39.73" rx="1.58"/><rect class="cls-4" x="38.05" y="273.81" width="39.73" height="39.73" rx="1.58"/><rect class="cls-5" x="36.05" y="588.27" width="39.73" height="39.73" rx="1.58"/><rect class="cls-6" x="36.05" y="350.81" width="39.73" height="39.73" rx="1.58"/><rect class="cls-7" x="36.05" y="430.27" width="39.73" height="39.73" rx="1.58"/><rect class="cls-8" x="36.05" y="509.27" width="39.73" height="39.73" rx="1.58"/><path class="cls-9" d="M130.58,67q-1.26,6.29-3.82,9.38a8.12,8.12,0,0,1-6.58,3.1,5.43,5.43,0,0,1-3.19-1,6.82,6.82,0,0,1-2.27-2.75l-1,3.23h-4.25l7.62-38.09H122l-2.76,13.67a8.5,8.5,0,0,1,2.61-1.85,7.19,7.19,0,0,1,3-.64q3.75,0,5.42,4.12t.41,10.31Zm-4.78-.51a20.08,20.08,0,0,0,.34-7.71c-.41-1.91-1.45-2.86-3.12-2.86A3.91,3.91,0,0,0,120.37,57a10.33,10.33,0,0,0-2.21,2.86l-2.54,12.72A4.05,4.05,0,0,0,117,74.81a4,4,0,0,0,2.59.8,4.47,4.47,0,0,0,3.8-2.26A18.51,18.51,0,0,0,125.7,67Z"/><path class="cls-9" d="M138.08,78.93H133.2l5.27-26.42h4.88Zm6.66-33.35h-4.88l.95-4.74h4.89Z"/><path class="cls-9" d="M149.11,75.17h11.53l-.76,3.76H143.11l.63-3.13,14.82-19.46H147.82l.76-3.83h16.11l-.61,3.08Z"/><path class="cls-9" d="M165.81,65.55q1.35-6.76,4-10.15A8.13,8.13,0,0,1,176.46,52a5.76,5.76,0,0,1,3,.8,6.47,6.47,0,0,1,2.22,2.25l2.86-14.23h4.88l-7.62,38.09h-4.27l.19-2.35a8.7,8.7,0,0,1-2.78,2.14,7.4,7.4,0,0,1-3.22.72c-2.44,0-4.25-1.28-5.41-3.83s-1.36-5.74-.6-9.55Zm4.79.51a15.63,15.63,0,0,0-.2,7,3.07,3.07,0,0,0,3.15,2.57,4,4,0,0,0,2.54-1A9.33,9.33,0,0,0,178.27,72l2.58-12.94a4.86,4.86,0,0,0-1.35-2.35,3.41,3.41,0,0,0-2.41-.87q-2.24,0-3.87,2.62a21.58,21.58,0,0,0-2.5,7Z"/><path class="cls-9" d="M196.92,79.44a7.53,7.53,0,0,1-6.62-3.3c-1.51-2.19-2-5-1.44-8.35l.61-3.85a15.75,15.75,0,0,1,4-8.65A9.79,9.79,0,0,1,200.73,52a6.56,6.56,0,0,1,6,3.1c1.26,2.07,1.62,4.8,1.08,8.21l-.53,3.41H193.89l-.17,1.05a9.77,9.77,0,0,0,.44,5.73,3.7,3.7,0,0,0,3.66,2.16,8.62,8.62,0,0,0,3.42-.66,12.05,12.05,0,0,0,3-1.88l1.05,3.08a11.31,11.31,0,0,1-3.57,2.32A12.23,12.23,0,0,1,196.92,79.44Zm3.2-23.61a4.35,4.35,0,0,0-3.46,2.1,13.41,13.41,0,0,0-2.21,5.27H203l.17-1a8.48,8.48,0,0,0-.28-4.64A2.78,2.78,0,0,0,200.12,55.83Z"/><path class="cls-9" d="M218.13,71l.05,1.86h.15L219,71l7.13-18.48h5L219.43,78.93h-4.32l-3.32-26.42h5.07Z"/><path class="cls-9" d="M130.54,147q-1.24,6.22-3.81,9.31a8.13,8.13,0,0,1-6.55,3.09,6.45,6.45,0,0,1-3.1-.73,6.32,6.32,0,0,1-2.27-2.1l-2.49,12.47h-4.9l7.3-36.57h4.39l-.22,2.3a8.35,8.35,0,0,1,2.72-2.08,7.46,7.46,0,0,1,3.21-.71c2.48,0,4.27,1.39,5.39,4.15s1.26,6.22.45,10.35Zm-4.79-.52a18.67,18.67,0,0,0,.26-7.71c-.47-1.95-1.51-2.93-3.14-2.93a3.88,3.88,0,0,0-2.5,1,9.66,9.66,0,0,0-2.14,2.61l-2.68,13.45A3.83,3.83,0,0,0,116.9,155a4.07,4.07,0,0,0,2.5.71,4.6,4.6,0,0,0,3.84-2.31,17.35,17.35,0,0,0,2.39-6.33Z"/><path class="cls-9" d="M148.24,136.69l-2.23-.13a3.74,3.74,0,0,0-2.45,1,8.26,8.26,0,0,0-2,2.66l-3.76,18.75h-4.91l5.27-26.42h4.47l-.37,3.52.13.07a9.43,9.43,0,0,1,2.54-3A5.06,5.06,0,0,1,148,132a4.92,4.92,0,0,1,.91.09,3.33,3.33,0,0,1,.77.21Z"/><path class="cls-9" d="M149.29,144.06a15.75,15.75,0,0,1,4-8.75A10.28,10.28,0,0,1,161,132a7.23,7.23,0,0,1,6.54,3.42q2.18,3.42,1.34,8.62l-.53,3.37a16,16,0,0,1-4,8.75,10.26,10.26,0,0,1-7.71,3.26,7.33,7.33,0,0,1-6.6-3.39q-2.19-3.41-1.33-8.62Zm4.34,3.37a11.8,11.8,0,0,0,.25,6,3.29,3.29,0,0,0,3.39,2.25,4.77,4.77,0,0,0,4-2.34,14.31,14.31,0,0,0,2.22-5.91l.54-3.37a12,12,0,0,0-.26-6,3.25,3.25,0,0,0-3.33-2.27,4.82,4.82,0,0,0-4,2.34,13.86,13.86,0,0,0-2.2,5.89Z"/><path class="cls-9" d="M181.54,132.51l-5.64,28.22a12.77,12.77,0,0,1-3.15,6.69,7.68,7.68,0,0,1-5.59,2.18,6.64,6.64,0,0,1-1.21-.11,11.07,11.07,0,0,1-1.21-.33l1-3.79a5.17,5.17,0,0,0,.81.25,4.39,4.39,0,0,0,.85.09,2.74,2.74,0,0,0,2.12-1.25,8.87,8.87,0,0,0,1.46-3.73l5.64-28.22Zm1.31-7H178l.93-4.66h4.9Z"/><path class="cls-9" d="M191.55,159.44a7.53,7.53,0,0,1-6.62-3.3c-1.51-2.19-2-5-1.44-8.35l.61-3.85a15.75,15.75,0,0,1,4-8.65,9.77,9.77,0,0,1,7.26-3.27,6.57,6.57,0,0,1,6.05,3.1c1.26,2.07,1.62,4.8,1.08,8.21l-.53,3.41H188.52l-.17,1a9.68,9.68,0,0,0,.44,5.73,3.7,3.7,0,0,0,3.66,2.16,8.62,8.62,0,0,0,3.42-.66,12.05,12.05,0,0,0,3-1.88l1.05,3.08a11.31,11.31,0,0,1-3.57,2.32A12.26,12.26,0,0,1,191.55,159.44Zm3.19-23.61a4.34,4.34,0,0,0-3.45,2.1,13.41,13.41,0,0,0-2.21,5.27h8.57l.17-1a8.48,8.48,0,0,0-.28-4.64A2.78,2.78,0,0,0,194.74,135.83Z"/><path class="cls-9" d="M213.71,155.68a4.36,4.36,0,0,0,3.1-1.43,6.72,6.72,0,0,0,1.84-3.82H223l0,.15a10,10,0,0,1-3.43,6.37,9.64,9.64,0,0,1-6.5,2.49q-4.55,0-6.61-3.38a12.26,12.26,0,0,1-1.25-8.49l.58-3.63a16.18,16.18,0,0,1,3.87-8.63A10.08,10.08,0,0,1,217.5,132a6.78,6.78,0,0,1,5.74,2.71,9,9,0,0,1,1.34,7H220a6.82,6.82,0,0,0-.41-4.33,2.86,2.86,0,0,0-2.71-1.6,4.67,4.67,0,0,0-4.07,2.32,14.63,14.63,0,0,0-2.06,5.79l-.59,3.63a13,13,0,0,0,.14,5.91A3.17,3.17,0,0,0,213.71,155.68Z"/><path class="cls-9" d="M238.52,125.94l-1.32,6.57h3.88l-.71,3.54h-3.88l-3.12,15.72a5.28,5.28,0,0,0-.05,3,1.38,1.38,0,0,0,1.34.8,7.15,7.15,0,0,0,1-.08,11.62,11.62,0,0,0,1.17-.22l-.2,3.42a11.43,11.43,0,0,1-1.9.55,10.39,10.39,0,0,1-2.1.21,4.15,4.15,0,0,1-3.77-1.87c-.81-1.24-.94-3.18-.41-5.8l3.13-15.72h-3.25l.71-3.54h3.25l1.32-6.57Z"/><path class="cls-9" d="M252.8,145.67H242.38l.75-3.76h10.43Z"/><path class="cls-9" d="M267,159h-4.88l6.13-30.64-6.67.46.64-3.2,11.88-2.24Z"/><path class="cls-9" d="M130.54,224q-1.24,6.22-3.81,9.31a8.13,8.13,0,0,1-6.55,3.09,6.45,6.45,0,0,1-3.1-.73,6.32,6.32,0,0,1-2.27-2.1l-2.49,12.47h-4.9l7.3-36.57h4.39l-.22,2.3a8.35,8.35,0,0,1,2.72-2.08,7.46,7.46,0,0,1,3.21-.71c2.48,0,4.27,1.39,5.39,4.15s1.26,6.22.45,10.35Zm-4.79-.52a18.67,18.67,0,0,0,.26-7.71c-.47-1.95-1.51-2.93-3.14-2.93a3.88,3.88,0,0,0-2.5,1,9.66,9.66,0,0,0-2.14,2.61l-2.68,13.45A3.83,3.83,0,0,0,116.9,232a4.07,4.07,0,0,0,2.5.71,4.6,4.6,0,0,0,3.84-2.31,17.35,17.35,0,0,0,2.39-6.33Z"/><path class="cls-9" d="M148.24,213.69l-2.23-.13a3.74,3.74,0,0,0-2.45,1,8.26,8.26,0,0,0-2,2.66l-3.76,18.75h-4.91l5.27-26.42h4.47l-.37,3.52.13.07a9.43,9.43,0,0,1,2.54-3A5.06,5.06,0,0,1,148,209a4.92,4.92,0,0,1,.91.09,3.33,3.33,0,0,1,.77.21Z"/><path class="cls-9" d="M149.29,221.06a15.75,15.75,0,0,1,4-8.75A10.28,10.28,0,0,1,161,209a7.23,7.23,0,0,1,6.54,3.42q2.18,3.42,1.34,8.62l-.53,3.37a16,16,0,0,1-4,8.75,10.26,10.26,0,0,1-7.71,3.26,7.33,7.33,0,0,1-6.6-3.39q-2.19-3.41-1.33-8.62Zm4.34,3.37a11.8,11.8,0,0,0,.25,6,3.29,3.29,0,0,0,3.39,2.25,4.77,4.77,0,0,0,4-2.34,14.31,14.31,0,0,0,2.22-5.91l.54-3.37a12,12,0,0,0-.26-6,3.25,3.25,0,0,0-3.33-2.27,4.82,4.82,0,0,0-4,2.34,13.86,13.86,0,0,0-2.2,5.89Z"/><path class="cls-9" d="M181.54,209.51l-5.64,28.22a12.77,12.77,0,0,1-3.15,6.69,7.68,7.68,0,0,1-5.59,2.18,6.64,6.64,0,0,1-1.21-.11,11.07,11.07,0,0,1-1.21-.33l1-3.79a5.17,5.17,0,0,0,.81.25,4.39,4.39,0,0,0,.85.09,2.74,2.74,0,0,0,2.12-1.25,8.87,8.87,0,0,0,1.46-3.73l5.64-28.22Zm1.31-7H178l.93-4.66h4.9Z"/><path class="cls-9" d="M191.55,236.44a7.53,7.53,0,0,1-6.62-3.3c-1.51-2.19-2-5-1.44-8.35l.61-3.85a15.75,15.75,0,0,1,4-8.65,9.77,9.77,0,0,1,7.26-3.27,6.57,6.57,0,0,1,6.05,3.1c1.26,2.07,1.62,4.8,1.08,8.21l-.53,3.41H188.52l-.17,1a9.68,9.68,0,0,0,.44,5.73,3.7,3.7,0,0,0,3.66,2.16,8.62,8.62,0,0,0,3.42-.66,12.05,12.05,0,0,0,3-1.88l1.05,3.08a11.31,11.31,0,0,1-3.57,2.32A12.26,12.26,0,0,1,191.55,236.44Zm3.19-23.61a4.34,4.34,0,0,0-3.45,2.1,13.41,13.41,0,0,0-2.21,5.27h8.57l.17-1a8.48,8.48,0,0,0-.28-4.64A2.78,2.78,0,0,0,194.74,212.83Z"/><path class="cls-9" d="M213.71,232.68a4.36,4.36,0,0,0,3.1-1.43,6.72,6.72,0,0,0,1.84-3.82H223l0,.15a10,10,0,0,1-3.43,6.37,9.64,9.64,0,0,1-6.5,2.49q-4.55,0-6.61-3.38a12.26,12.26,0,0,1-1.25-8.49l.58-3.63a16.18,16.18,0,0,1,3.87-8.63A10.08,10.08,0,0,1,217.5,209a6.78,6.78,0,0,1,5.74,2.71,9,9,0,0,1,1.34,7H220a6.82,6.82,0,0,0-.41-4.33,2.86,2.86,0,0,0-2.71-1.6,4.67,4.67,0,0,0-4.07,2.32,14.63,14.63,0,0,0-2.06,5.79l-.59,3.63a13,13,0,0,0,.14,5.91A3.17,3.17,0,0,0,213.71,232.68Z"/><path class="cls-9" d="M238.52,202.94l-1.32,6.57h3.88l-.71,3.54h-3.88l-3.12,15.72a5.28,5.28,0,0,0-.05,3,1.38,1.38,0,0,0,1.34.8,7.15,7.15,0,0,0,1-.08,11.62,11.62,0,0,0,1.17-.22l-.2,3.42a11.43,11.43,0,0,1-1.9.55,10.39,10.39,0,0,1-2.1.21,4.15,4.15,0,0,1-3.77-1.87c-.81-1.24-.94-3.18-.41-5.8l3.13-15.72h-3.25l.71-3.54h3.25l1.32-6.57Z"/><path class="cls-9" d="M252.8,222.67H242.38l.75-3.76h10.43Z"/><path class="cls-9" d="M273.21,223.79h3.57l-.76,3.76h-3.57l-1.66,8.38h-4.88l1.66-8.38H255.36l.42-2.76,17.11-24.41h5Zm-12.45,0h7.57l3.2-16-.15-.05-.54.83Z"/><path class="cls-9" d="M130.54,302q-1.24,6.22-3.81,9.31a8.13,8.13,0,0,1-6.55,3.09,6.45,6.45,0,0,1-3.1-.73,6.32,6.32,0,0,1-2.27-2.1l-2.49,12.47h-4.9l7.3-36.57h4.39l-.22,2.3a8.35,8.35,0,0,1,2.72-2.08,7.46,7.46,0,0,1,3.21-.71c2.48,0,4.27,1.39,5.39,4.15s1.26,6.22.45,10.35Zm-4.79-.52a18.67,18.67,0,0,0,.26-7.71c-.47-1.95-1.51-2.93-3.14-2.93a3.88,3.88,0,0,0-2.5,1,9.66,9.66,0,0,0-2.14,2.61l-2.68,13.45A3.83,3.83,0,0,0,116.9,310a4.07,4.07,0,0,0,2.5.71,4.6,4.6,0,0,0,3.84-2.31,17.35,17.35,0,0,0,2.39-6.33Z"/><path class="cls-9" d="M148.24,291.69l-2.23-.13a3.74,3.74,0,0,0-2.45,1,8.26,8.26,0,0,0-2,2.66l-3.76,18.75h-4.91l5.27-26.42h4.47l-.37,3.52.13.07a9.43,9.43,0,0,1,2.54-3A5.06,5.06,0,0,1,148,287a4.92,4.92,0,0,1,.91.09,3.33,3.33,0,0,1,.77.21Z"/><path class="cls-9" d="M149.29,299.06a15.75,15.75,0,0,1,4-8.75A10.28,10.28,0,0,1,161,287a7.23,7.23,0,0,1,6.54,3.42q2.18,3.42,1.34,8.62l-.53,3.37a16,16,0,0,1-4,8.75,10.26,10.26,0,0,1-7.71,3.26,7.33,7.33,0,0,1-6.6-3.39q-2.19-3.41-1.33-8.62Zm4.34,3.37a11.8,11.8,0,0,0,.25,6,3.29,3.29,0,0,0,3.39,2.25,4.77,4.77,0,0,0,4-2.34,14.31,14.31,0,0,0,2.22-5.91l.54-3.37a12,12,0,0,0-.26-6,3.25,3.25,0,0,0-3.33-2.27,4.82,4.82,0,0,0-4,2.34,13.86,13.86,0,0,0-2.2,5.89Z"/><path class="cls-9" d="M181.54,287.51l-5.64,28.22a12.77,12.77,0,0,1-3.15,6.69,7.68,7.68,0,0,1-5.59,2.18,6.64,6.64,0,0,1-1.21-.11,11.07,11.07,0,0,1-1.21-.33l1-3.79a5.17,5.17,0,0,0,.81.25,4.39,4.39,0,0,0,.85.09,2.74,2.74,0,0,0,2.12-1.25,8.87,8.87,0,0,0,1.46-3.73l5.64-28.22Zm1.31-7H178l.93-4.66h4.9Z"/><path class="cls-9" d="M191.55,314.44a7.53,7.53,0,0,1-6.62-3.3c-1.51-2.19-2-5-1.44-8.35l.61-3.85a15.75,15.75,0,0,1,4-8.65,9.77,9.77,0,0,1,7.26-3.27,6.57,6.57,0,0,1,6.05,3.1c1.26,2.07,1.62,4.8,1.08,8.21l-.53,3.41H188.52l-.17,1.05a9.68,9.68,0,0,0,.44,5.73,3.7,3.7,0,0,0,3.66,2.16,8.62,8.62,0,0,0,3.42-.66,12.05,12.05,0,0,0,3-1.88l1.05,3.08a11.31,11.31,0,0,1-3.57,2.32A12.26,12.26,0,0,1,191.55,314.44Zm3.19-23.61a4.34,4.34,0,0,0-3.45,2.1,13.41,13.41,0,0,0-2.21,5.27h8.57l.17-1a8.48,8.48,0,0,0-.28-4.64A2.78,2.78,0,0,0,194.74,290.83Z"/><path class="cls-9" d="M213.71,310.68a4.36,4.36,0,0,0,3.1-1.43,6.72,6.72,0,0,0,1.84-3.82H223l0,.15a10,10,0,0,1-3.43,6.37,9.64,9.64,0,0,1-6.5,2.49q-4.55,0-6.61-3.38a12.26,12.26,0,0,1-1.25-8.49l.58-3.63a16.18,16.18,0,0,1,3.87-8.63A10.08,10.08,0,0,1,217.5,287a6.78,6.78,0,0,1,5.74,2.71,9,9,0,0,1,1.34,7H220a6.82,6.82,0,0,0-.41-4.33,2.86,2.86,0,0,0-2.71-1.6,4.67,4.67,0,0,0-4.07,2.32,14.63,14.63,0,0,0-2.06,5.79l-.59,3.63a13,13,0,0,0,.14,5.91A3.17,3.17,0,0,0,213.71,310.68Z"/><path class="cls-9" d="M238.52,280.94l-1.32,6.57h3.88l-.71,3.54h-3.88l-3.12,15.72a5.28,5.28,0,0,0-.05,3,1.38,1.38,0,0,0,1.34.8,7.15,7.15,0,0,0,1-.08,11.62,11.62,0,0,0,1.17-.22l-.2,3.42a11.43,11.43,0,0,1-1.9.55,10.39,10.39,0,0,1-2.1.21,4.15,4.15,0,0,1-3.77-1.87c-.81-1.24-.94-3.18-.41-5.8l3.13-15.72h-3.25l.71-3.54h3.25l1.32-6.57Z"/><path class="cls-9" d="M252.8,300.67H242.38l.75-3.76h10.43Z"/><path class="cls-9" d="M278.05,287.66a11.73,11.73,0,0,1-2.3,5.09,10,10,0,0,1-4.1,3.06,7.2,7.2,0,0,1,3.25,3.4,8.17,8.17,0,0,1,.48,5.15q-1,5.19-4.11,7.64a11.53,11.53,0,0,1-7.43,2.44,7.84,7.84,0,0,1-6.31-2.64q-2.26-2.64-1.29-7.44a12,12,0,0,1,2.57-5.5,10.85,10.85,0,0,1,4.66-3.24,6.43,6.43,0,0,1-2.83-3.19,7.9,7.9,0,0,1-.32-4.77q1-5,3.85-7.39a10.44,10.44,0,0,1,6.94-2.4,6.93,6.93,0,0,1,5.76,2.6Q279,283.06,278.05,287.66Zm-7.5,16.53a7.33,7.33,0,0,0-.34-4.88,3.22,3.22,0,0,0-3-1.74,5,5,0,0,0-3.69,1.87,9.46,9.46,0,0,0-2.29,4.75q-.66,3.24.27,4.87a3.31,3.31,0,0,0,3.12,1.62,5.06,5.06,0,0,0,3.64-1.76A9.3,9.3,0,0,0,270.55,304.19Zm2.54-16.41a7.35,7.35,0,0,0-.2-4.47,2.6,2.6,0,0,0-2.54-1.63,4.17,4.17,0,0,0-3.16,1.67,9.31,9.31,0,0,0-2,4.43,7.36,7.36,0,0,0,.16,4.48,2.66,2.66,0,0,0,2.6,1.55,4.15,4.15,0,0,0,3.12-1.66A9.53,9.53,0,0,0,273.09,287.78Z"/><path class="cls-9" d="M112.64,628.93h-4.88l7.62-38.09h4.88Z"/><path class="cls-9" d="M128,629.44a7.52,7.52,0,0,1-6.61-3.3c-1.52-2.19-2-5-1.44-8.35l.61-3.85a15.71,15.71,0,0,1,4-8.65,9.77,9.77,0,0,1,7.26-3.27,6.55,6.55,0,0,1,6,3.1c1.27,2.07,1.63,4.8,1.09,8.21l-.54,3.41H125l-.18,1a9.77,9.77,0,0,0,.44,5.73,3.72,3.72,0,0,0,3.67,2.16,8.53,8.53,0,0,0,3.41-.66,11.59,11.59,0,0,0,3-1.88l1.05,3.08a11.15,11.15,0,0,1-3.56,2.32A12.28,12.28,0,0,1,128,629.44Zm3.2-23.61a4.33,4.33,0,0,0-3.45,2.1,13.26,13.26,0,0,0-2.21,5.27h8.57l.17-1a8.57,8.57,0,0,0-.28-4.64A2.78,2.78,0,0,0,131.22,605.83Z"/><path class="cls-9" d="M153.27,628.93c0-.65-.05-1.26-.05-1.81a12.78,12.78,0,0,1,.1-1.64,12.2,12.2,0,0,1-3.17,2.86,6.84,6.84,0,0,1-3.65,1.1,5.13,5.13,0,0,1-4.48-2.15,7,7,0,0,1-.79-5.61,9.42,9.42,0,0,1,3.63-6.07,12.26,12.26,0,0,1,7.36-2h3.42l.53-2.71A5.85,5.85,0,0,0,156,607a2.65,2.65,0,0,0-2.57-1.29,4,4,0,0,0-2.83,1.24,5.45,5.45,0,0,0-1.64,3l-4.66,0,0-.15a8.79,8.79,0,0,1,3.41-5.53,10.61,10.61,0,0,1,6.82-2.28,6.78,6.78,0,0,1,5.49,2.35q2,2.34,1.15,6.54l-2.47,12.26a23.62,23.62,0,0,0-.41,3,17.36,17.36,0,0,0,0,2.79Zm-4.89-3.3a5.5,5.5,0,0,0,3-1,8.44,8.44,0,0,0,2.51-2.54l1.07-5.42h-3.47a4.77,4.77,0,0,0-3.46,1.49,6.56,6.56,0,0,0-1.91,3.51,4.41,4.41,0,0,0,.17,2.94A2.12,2.12,0,0,0,148.38,625.63Z"/><path class="cls-9" d="M178.36,606.69l-2.22-.13a3.72,3.72,0,0,0-2.45,1,8.26,8.26,0,0,0-2,2.66l-3.76,18.75H163l5.27-26.42h4.47l-.37,3.52.13.07a9.41,9.41,0,0,1,2.53-3,5.09,5.09,0,0,1,3.11-1.08,4.92,4.92,0,0,1,.91.09,3.48,3.48,0,0,1,.77.21Z"/><path class="cls-9" d="M187.3,606.15a10.77,10.77,0,0,1,3.24-3.07,7.41,7.41,0,0,1,3.82-1.06,4.77,4.77,0,0,1,4.51,2.61c.95,1.75,1.07,4.38.37,7.91L196,628.93h-4.91l3.27-16.34c.51-2.62.54-4.39.11-5.32a2.66,2.66,0,0,0-2.7-1.39,4.32,4.32,0,0,0-2.6,1,10.14,10.14,0,0,0-2.35,2.63l-3.88,19.46H178l5.27-26.42h4.49Z"/><path class="cls-9" d="M206.69,628.93H201.8l5.28-26.42H212Zm6.66-33.35h-4.88l.95-4.74h4.88Z"/><path class="cls-9" d="M221.85,606.15a10.74,10.74,0,0,1,3.23-3.07A7.46,7.46,0,0,1,228.9,602a4.78,4.78,0,0,1,4.52,2.61c.94,1.75,1.06,4.38.36,7.91l-3.27,16.39h-4.9l3.27-16.34q.75-3.93.11-5.32a2.66,2.66,0,0,0-2.7-1.39,4.3,4.3,0,0,0-2.6,1,10.17,10.17,0,0,0-2.36,2.63l-3.88,19.46h-4.91l5.28-26.42h4.49Z"/><path class="cls-9" d="M237.84,615.55q1.32-6.74,4-10.13a8.21,8.21,0,0,1,6.73-3.4,5.82,5.82,0,0,1,3.22.91,6.24,6.24,0,0,1,2.24,2.56l.93-3h4.23l-5.18,26a14.84,14.84,0,0,1-4.24,8.3,11.16,11.16,0,0,1-7.82,2.84,11.57,11.57,0,0,1-3.26-.53,10.22,10.22,0,0,1-3-1.38l1.78-3.71a8,8,0,0,0,2.36,1.18,9,9,0,0,0,2.84.43,5.22,5.22,0,0,0,4.05-1.91,11.12,11.12,0,0,0,2.37-5.24l.27-1.34a8.29,8.29,0,0,1-2.59,1.75,7.51,7.51,0,0,1-3,.59q-3.69,0-5.47-3.85t-.63-9.53Zm4.78.51a15.62,15.62,0,0,0-.16,7,3.1,3.1,0,0,0,3.19,2.58,4.14,4.14,0,0,0,2.58-.92,8.72,8.72,0,0,0,2.13-2.57L253,609a4.65,4.65,0,0,0-1.35-2.31,3.52,3.52,0,0,0-2.43-.84q-2.25,0-3.91,2.64a21.13,21.13,0,0,0-2.54,7Z"/><rect class="cls-10" x="36.05" y="667.27" width="39.73" height="39.73" rx="1.58"/><path class="cls-9" d="M112.64,707.93h-4.88L113,681.51h4.89Zm6.67-33.35h-4.89l1-4.74h4.88Z"/><path class="cls-9" d="M127.8,685.15a10.77,10.77,0,0,1,3.24-3.07,7.44,7.44,0,0,1,3.82-1.06,4.78,4.78,0,0,1,4.52,2.61c.94,1.75,1.06,4.38.36,7.91l-3.27,16.39h-4.91l3.27-16.34q.76-3.93.11-5.32a2.65,2.65,0,0,0-2.69-1.39,4.3,4.3,0,0,0-2.6,1,10.17,10.17,0,0,0-2.36,2.63l-3.88,19.46H118.5l5.27-26.42h4.5Z"/><path class="cls-9" d="M154.78,674.94l-1.32,6.57h3.88l-.7,3.54h-3.89l-3.12,15.72a5.37,5.37,0,0,0,0,3,1.38,1.38,0,0,0,1.34.8,7,7,0,0,0,1-.08,11.62,11.62,0,0,0,1.17-.22l-.19,3.42a11.84,11.84,0,0,1-1.91.55,10.39,10.39,0,0,1-2.1.21,4.16,4.16,0,0,1-3.77-1.87c-.81-1.24-.94-3.18-.4-5.8l3.12-15.72h-3.25l.71-3.54h3.25l1.32-6.57Z"/><path class="cls-9" d="M166.4,708.44a7.51,7.51,0,0,1-6.61-3.3c-1.52-2.19-2-5-1.44-8.35l.61-3.85a15.64,15.64,0,0,1,4-8.65,9.77,9.77,0,0,1,7.26-3.27,6.55,6.55,0,0,1,6,3.1c1.26,2.07,1.63,4.8,1.09,8.21l-.54,3.41H163.37l-.17,1a9.77,9.77,0,0,0,.44,5.73,3.72,3.72,0,0,0,3.67,2.16,8.53,8.53,0,0,0,3.41-.66,11.59,11.59,0,0,0,3-1.88l1.05,3.08a11.15,11.15,0,0,1-3.56,2.32A12.31,12.31,0,0,1,166.4,708.44Zm3.2-23.61a4.33,4.33,0,0,0-3.45,2.1,13.26,13.26,0,0,0-2.21,5.27h8.57l.17-1a8.57,8.57,0,0,0-.28-4.64A2.78,2.78,0,0,0,169.6,684.83Z"/><path class="cls-9" d="M194.23,685.69l-2.22-.13a3.72,3.72,0,0,0-2.45,1,8.42,8.42,0,0,0-2,2.66l-3.76,18.75h-4.9l5.27-26.42h4.47l-.37,3.52.12.07a9.56,9.56,0,0,1,2.54-3A5.08,5.08,0,0,1,194,681a4.94,4.94,0,0,1,.92.09,3.48,3.48,0,0,1,.77.21Z"/><path class="cls-9" d="M203.17,685.15a10.86,10.86,0,0,1,3.23-3.07,7.47,7.47,0,0,1,3.83-1.06,4.77,4.77,0,0,1,4.51,2.61c.95,1.75,1.07,4.38.37,7.91l-3.27,16.39h-4.91l3.27-16.34c.51-2.62.54-4.39.11-5.32a2.66,2.66,0,0,0-2.7-1.39,4.32,4.32,0,0,0-2.6,1,10.14,10.14,0,0,0-2.35,2.63l-3.89,19.46h-4.9l5.27-26.42h4.49Z"/><path class="cls-9" d="M230.12,707.93c0-.65-.05-1.26-.05-1.81a14.89,14.89,0,0,1,.1-1.64,12.17,12.17,0,0,1-3.16,2.86,6.87,6.87,0,0,1-3.65,1.1,5.11,5.11,0,0,1-4.48-2.15,7,7,0,0,1-.79-5.61,9.37,9.37,0,0,1,3.62-6.07,12.28,12.28,0,0,1,7.36-2h3.42l.54-2.71a6,6,0,0,0-.21-3.84,2.66,2.66,0,0,0-2.58-1.29,4,4,0,0,0-2.83,1.24,5.44,5.44,0,0,0-1.63,3l-4.67,0-.05-.15a8.83,8.83,0,0,1,3.41-5.53,10.63,10.63,0,0,1,6.82-2.28,6.79,6.79,0,0,1,5.5,2.35q2,2.34,1.15,6.54l-2.47,12.26a25.78,25.78,0,0,0-.42,3,18.62,18.62,0,0,0,0,2.79Zm-4.88-3.3a5.52,5.52,0,0,0,3-1,8.4,8.4,0,0,0,2.5-2.54l1.08-5.42h-3.47a4.79,4.79,0,0,0-3.47,1.49,6.55,6.55,0,0,0-1.9,3.51,4.35,4.35,0,0,0,.17,2.94A2.11,2.11,0,0,0,225.24,704.63Z"/><path class="cls-9" d="M245.06,707.93h-4.88l7.62-38.09h4.88Z"/><path class="cls-9" d="M128.54,377q-1.25,6.22-3.81,9.31a8.13,8.13,0,0,1-6.55,3.09,6.45,6.45,0,0,1-3.1-.73,6.32,6.32,0,0,1-2.27-2.1l-2.49,12.47h-4.9l7.3-36.57h4.39l-.22,2.3a8.35,8.35,0,0,1,2.72-2.08,7.46,7.46,0,0,1,3.21-.71c2.48,0,4.27,1.39,5.39,4.15s1.26,6.22.45,10.35Zm-4.79-.52a18.67,18.67,0,0,0,.26-7.71c-.47-1.95-1.51-2.93-3.14-2.93a3.88,3.88,0,0,0-2.5,1,9.66,9.66,0,0,0-2.14,2.61l-2.68,13.45A3.83,3.83,0,0,0,114.9,385a4.07,4.07,0,0,0,2.5.71,4.6,4.6,0,0,0,3.84-2.31,17.35,17.35,0,0,0,2.39-6.33Z"/><path class="cls-9" d="M146.24,366.69l-2.23-.13a3.74,3.74,0,0,0-2.45,1,8.26,8.26,0,0,0-2,2.66l-3.76,18.75h-4.91l5.27-26.42h4.47l-.37,3.52.13.07a9.43,9.43,0,0,1,2.54-3A5.06,5.06,0,0,1,146,362a4.92,4.92,0,0,1,.91.09,3.33,3.33,0,0,1,.77.21Z"/><path class="cls-9" d="M147.29,374.06a15.75,15.75,0,0,1,4-8.75A10.28,10.28,0,0,1,159,362a7.23,7.23,0,0,1,6.54,3.42q2.18,3.42,1.34,8.62l-.53,3.37a16,16,0,0,1-4,8.75,10.26,10.26,0,0,1-7.71,3.26,7.33,7.33,0,0,1-6.6-3.39q-2.19-3.41-1.33-8.62Zm4.34,3.37a11.8,11.8,0,0,0,.25,6,3.29,3.29,0,0,0,3.39,2.25,4.77,4.77,0,0,0,4-2.34,14.31,14.31,0,0,0,2.22-5.91l.54-3.37a12,12,0,0,0-.26-6,3.25,3.25,0,0,0-3.33-2.27,4.82,4.82,0,0,0-4,2.34,13.86,13.86,0,0,0-2.2,5.89Z"/><path class="cls-9" d="M179.54,362.51l-5.64,28.22a12.77,12.77,0,0,1-3.15,6.69,7.68,7.68,0,0,1-5.59,2.18,6.64,6.64,0,0,1-1.21-.11,11.07,11.07,0,0,1-1.21-.33l1-3.79a5.17,5.17,0,0,0,.81.25,4.39,4.39,0,0,0,.85.09,2.74,2.74,0,0,0,2.12-1.25,8.87,8.87,0,0,0,1.46-3.73l5.64-28.22Zm1.31-7H176l.93-4.66h4.9Z"/><path class="cls-9" d="M189.55,389.44a7.53,7.53,0,0,1-6.62-3.3c-1.51-2.19-2-5-1.44-8.35l.61-3.85a15.75,15.75,0,0,1,4-8.65,9.77,9.77,0,0,1,7.26-3.27,6.57,6.57,0,0,1,6.05,3.1c1.26,2.07,1.62,4.8,1.08,8.21l-.53,3.41H186.52l-.17,1.05a9.68,9.68,0,0,0,.44,5.73,3.7,3.7,0,0,0,3.66,2.16,8.62,8.62,0,0,0,3.42-.66,12.05,12.05,0,0,0,3-1.88l1.05,3.08a11.31,11.31,0,0,1-3.57,2.32A12.26,12.26,0,0,1,189.55,389.44Zm3.19-23.61a4.34,4.34,0,0,0-3.45,2.1,13.41,13.41,0,0,0-2.21,5.27h8.57l.17-1a8.48,8.48,0,0,0-.28-4.64A2.78,2.78,0,0,0,192.74,365.83Z"/><path class="cls-9" d="M211.71,385.68a4.36,4.36,0,0,0,3.1-1.43,6.72,6.72,0,0,0,1.84-3.82H221l0,.15a10,10,0,0,1-3.43,6.37,9.64,9.64,0,0,1-6.5,2.49q-4.55,0-6.61-3.38a12.26,12.26,0,0,1-1.25-8.49l.58-3.63a16.18,16.18,0,0,1,3.87-8.63A10.08,10.08,0,0,1,215.5,362a6.78,6.78,0,0,1,5.74,2.71,9,9,0,0,1,1.34,7H218a6.82,6.82,0,0,0-.41-4.33,2.86,2.86,0,0,0-2.71-1.6,4.67,4.67,0,0,0-4.07,2.32,14.63,14.63,0,0,0-2.06,5.79l-.59,3.63a13,13,0,0,0,.14,5.91A3.17,3.17,0,0,0,211.71,385.68Z"/><path class="cls-9" d="M236.52,355.94l-1.32,6.57h3.88l-.71,3.54h-3.88l-3.12,15.72a5.28,5.28,0,0,0-.05,3,1.38,1.38,0,0,0,1.34.8,7.15,7.15,0,0,0,1-.08,11.62,11.62,0,0,0,1.17-.22l-.2,3.42a11.43,11.43,0,0,1-1.9.55,10.39,10.39,0,0,1-2.1.21,4.15,4.15,0,0,1-3.77-1.87c-.81-1.24-.94-3.18-.41-5.8l3.13-15.72h-3.25l.71-3.54h3.25l1.32-6.57Z"/><path class="cls-9" d="M250.8,375.67H240.38l.75-3.76h10.43Z"/><path class="cls-9" d="M256.42,373l4.76-19.58h15.26l-.66,4.08H264.6L262,368a9.77,9.77,0,0,1,2.21-1.52,6.3,6.3,0,0,1,2.63-.65,6.07,6.07,0,0,1,5.82,3.11q1.77,3.17.89,8.63a16.51,16.51,0,0,1-3.76,8.68,9.65,9.65,0,0,1-7.52,3.19,7.62,7.62,0,0,1-6-2.58c-1.53-1.71-2-4.17-1.51-7.38l4.8-.1a7.24,7.24,0,0,0,.41,4.71,3.07,3.07,0,0,0,2.87,1.59,4.4,4.4,0,0,0,3.66-2.16,14.15,14.15,0,0,0,2.12-5.9,11.35,11.35,0,0,0-.24-5.78,3,3,0,0,0-3.05-2.1,4.65,4.65,0,0,0-3,.93,6.09,6.09,0,0,0-1.8,2.71Z"/><path class="cls-9" d="M128.54,459q-1.25,6.22-3.81,9.31a8.13,8.13,0,0,1-6.55,3.09,6.45,6.45,0,0,1-3.1-.73,6.32,6.32,0,0,1-2.27-2.1l-2.49,12.47h-4.9l7.3-36.57h4.39l-.22,2.3a8.35,8.35,0,0,1,2.72-2.08,7.46,7.46,0,0,1,3.21-.71c2.48,0,4.27,1.39,5.39,4.15s1.26,6.22.45,10.35Zm-4.79-.52a18.67,18.67,0,0,0,.26-7.71c-.47-1.95-1.51-2.93-3.14-2.93a3.88,3.88,0,0,0-2.5,1,9.66,9.66,0,0,0-2.14,2.61l-2.68,13.45A3.83,3.83,0,0,0,114.9,467a4.07,4.07,0,0,0,2.5.71,4.6,4.6,0,0,0,3.84-2.31,17.35,17.35,0,0,0,2.39-6.33Z"/><path class="cls-9" d="M146.24,448.69l-2.23-.13a3.74,3.74,0,0,0-2.45,1,8.26,8.26,0,0,0-2,2.66l-3.76,18.75h-4.91l5.27-26.42h4.47l-.37,3.52.13.07a9.43,9.43,0,0,1,2.54-3A5.06,5.06,0,0,1,146,444a4.92,4.92,0,0,1,.91.09,3.33,3.33,0,0,1,.77.21Z"/><path class="cls-9" d="M147.29,456.06a15.75,15.75,0,0,1,4-8.75A10.28,10.28,0,0,1,159,444a7.23,7.23,0,0,1,6.54,3.42q2.18,3.42,1.34,8.62l-.53,3.37a16,16,0,0,1-4,8.75,10.26,10.26,0,0,1-7.71,3.26,7.33,7.33,0,0,1-6.6-3.39q-2.19-3.41-1.33-8.62Zm4.34,3.37a11.8,11.8,0,0,0,.25,6,3.29,3.29,0,0,0,3.39,2.25,4.77,4.77,0,0,0,4-2.34,14.31,14.31,0,0,0,2.22-5.91l.54-3.37a12,12,0,0,0-.26-6,3.25,3.25,0,0,0-3.33-2.27,4.82,4.82,0,0,0-4,2.34,13.86,13.86,0,0,0-2.2,5.89Z"/><path class="cls-9" d="M179.54,444.51l-5.64,28.22a12.77,12.77,0,0,1-3.15,6.69,7.68,7.68,0,0,1-5.59,2.18,6.64,6.64,0,0,1-1.21-.11,11.07,11.07,0,0,1-1.21-.33l1-3.79a5.17,5.17,0,0,0,.81.25,4.39,4.39,0,0,0,.85.09,2.74,2.74,0,0,0,2.12-1.25,8.87,8.87,0,0,0,1.46-3.73l5.64-28.22Zm1.31-7H176l.93-4.66h4.9Z"/><path class="cls-9" d="M189.55,471.44a7.53,7.53,0,0,1-6.62-3.3c-1.51-2.19-2-5-1.44-8.35l.61-3.85a15.75,15.75,0,0,1,4-8.65,9.77,9.77,0,0,1,7.26-3.27,6.57,6.57,0,0,1,6.05,3.1c1.26,2.07,1.62,4.8,1.08,8.21l-.53,3.41H186.52l-.17,1.05a9.68,9.68,0,0,0,.44,5.73,3.7,3.7,0,0,0,3.66,2.16,8.62,8.62,0,0,0,3.42-.66,12.05,12.05,0,0,0,3-1.88l1.05,3.08a11.31,11.31,0,0,1-3.57,2.32A12.26,12.26,0,0,1,189.55,471.44Zm3.19-23.61a4.34,4.34,0,0,0-3.45,2.1,13.41,13.41,0,0,0-2.21,5.27h8.57l.17-1a8.48,8.48,0,0,0-.28-4.64A2.78,2.78,0,0,0,192.74,447.83Z"/><path class="cls-9" d="M211.71,467.68a4.36,4.36,0,0,0,3.1-1.43,6.72,6.72,0,0,0,1.84-3.82H221l0,.15a10,10,0,0,1-3.43,6.37,9.64,9.64,0,0,1-6.5,2.49q-4.55,0-6.61-3.38a12.26,12.26,0,0,1-1.25-8.49l.58-3.63a16.18,16.18,0,0,1,3.87-8.63A10.08,10.08,0,0,1,215.5,444a6.78,6.78,0,0,1,5.74,2.71,9,9,0,0,1,1.34,7H218a6.82,6.82,0,0,0-.41-4.33,2.86,2.86,0,0,0-2.71-1.6,4.67,4.67,0,0,0-4.07,2.32,14.63,14.63,0,0,0-2.06,5.79l-.59,3.63a13,13,0,0,0,.14,5.91A3.17,3.17,0,0,0,211.71,467.68Z"/><path class="cls-9" d="M236.52,437.94l-1.32,6.57h3.88l-.71,3.54h-3.88l-3.12,15.72a5.28,5.28,0,0,0-.05,3,1.38,1.38,0,0,0,1.34.8,7.15,7.15,0,0,0,1-.08,11.62,11.62,0,0,0,1.17-.22l-.2,3.42a11.43,11.43,0,0,1-1.9.55,10.39,10.39,0,0,1-2.1.21,4.15,4.15,0,0,1-3.77-1.87c-.81-1.24-.94-3.18-.41-5.8l3.13-15.72h-3.25l.71-3.54h3.25l1.32-6.57Z"/><path class="cls-9" d="M250.8,457.67H240.38l.75-3.76h10.43Z"/><path class="cls-9" d="M265,471h-4.88l6.13-30.64-6.67.46.64-3.2,11.88-2.24Z"/><path class="cls-9" d="M297.68,457.18q-1.5,7.35-4.67,10.8a9.92,9.92,0,0,1-7.59,3.46,6.41,6.41,0,0,1-6-3.75q-2-3.75-.6-10.51l1.59-8q1.45-7.32,4.66-10.8a10,10,0,0,1,7.64-3.48,6.35,6.35,0,0,1,6,3.77q1.93,3.76.59,10.51Zm-3.15-8.74q1-5.15.33-7.43a2.67,2.67,0,0,0-2.9-2.16l-.14,0c-1.32-.06-2.56.73-3.71,2.39a19.62,19.62,0,0,0-2.69,7.23l-1.88,9.43c-.7,3.41-.81,5.9-.34,7.45a2.67,2.67,0,0,0,2.93,2.19l.14,0c1.31.08,2.54-.71,3.69-2.39a19.85,19.85,0,0,0,2.69-7.27Z"/><path class="cls-9" d="M109.25,536.55q1.32-6.74,4-10.13A8.21,8.21,0,0,1,120,523a5.82,5.82,0,0,1,3.22.91,6.34,6.34,0,0,1,2.25,2.56l.92-3h4.23l-5.18,26a14.84,14.84,0,0,1-4.24,8.3,11.16,11.16,0,0,1-7.82,2.84,11.57,11.57,0,0,1-3.26-.53,10.22,10.22,0,0,1-3-1.38l1.78-3.71a8.16,8.16,0,0,0,2.36,1.18,9,9,0,0,0,2.84.43,5.25,5.25,0,0,0,4.06-1.91,11.22,11.22,0,0,0,2.36-5.24l.27-1.34a8.29,8.29,0,0,1-2.59,1.75,7.51,7.51,0,0,1-3,.59q-3.69,0-5.47-3.85t-.63-9.53Zm4.78.51a15.45,15.45,0,0,0-.15,7,3.08,3.08,0,0,0,3.18,2.58,4.14,4.14,0,0,0,2.58-.92,8.57,8.57,0,0,0,2.13-2.57L124.39,530a4.74,4.74,0,0,0-1.36-2.31,3.52,3.52,0,0,0-2.43-.84q-2.25,0-3.91,2.64a20.92,20.92,0,0,0-2.53,7Z"/><path class="cls-9" d="M140.35,550.44a7.51,7.51,0,0,1-6.61-3.3c-1.52-2.19-2-5-1.44-8.35l.61-3.85a15.75,15.75,0,0,1,4-8.65,9.77,9.77,0,0,1,7.26-3.27,6.55,6.55,0,0,1,6,3.1c1.26,2.07,1.63,4.8,1.09,8.21l-.54,3.41H137.32l-.17,1a9.77,9.77,0,0,0,.44,5.73,3.72,3.72,0,0,0,3.67,2.16,8.53,8.53,0,0,0,3.41-.66,11.59,11.59,0,0,0,3-1.88l1,3.08a11.15,11.15,0,0,1-3.56,2.32A12.31,12.31,0,0,1,140.35,550.44Zm3.2-23.61a4.33,4.33,0,0,0-3.45,2.1,13.26,13.26,0,0,0-2.21,5.27h8.57l.17-1a8.57,8.57,0,0,0-.28-4.64A2.78,2.78,0,0,0,143.55,526.83Z"/><path class="cls-9" d="M154.68,535.06a15.89,15.89,0,0,1,4-8.75,10.3,10.3,0,0,1,7.77-3.29,7.23,7.23,0,0,1,6.54,3.42q2.17,3.42,1.34,8.62l-.54,3.37a15.87,15.87,0,0,1-4,8.75,10.22,10.22,0,0,1-7.7,3.26,7.31,7.31,0,0,1-6.6-3.39q-2.19-3.4-1.33-8.62Zm4.35,3.37a11.81,11.81,0,0,0,.24,6,3.31,3.31,0,0,0,3.4,2.25,4.77,4.77,0,0,0,4-2.34,14.31,14.31,0,0,0,2.22-5.91l.53-3.37a11.92,11.92,0,0,0-.25-6,3.25,3.25,0,0,0-3.33-2.27,4.82,4.82,0,0,0-4.06,2.34,14,14,0,0,0-2.19,5.89Z"/><path class="cls-9" d="M189.35,543.31a3.39,3.39,0,0,0-.51-2.61,9.76,9.76,0,0,0-3.2-2.32,14.94,14.94,0,0,1-5.25-3.37,5.36,5.36,0,0,1-1.15-4.66,8.24,8.24,0,0,1,3.14-5.24,10,10,0,0,1,6.41-2.09,7.23,7.23,0,0,1,5.76,2.33,6.5,6.5,0,0,1,1.39,5.75l-.05.13h-4.71a5,5,0,0,0-.46-3.28,2.67,2.67,0,0,0-2.49-1.31,4.28,4.28,0,0,0-4.2,3.51,3,3,0,0,0,.41,2.41,12.78,12.78,0,0,0,3.25,2.28,13.58,13.58,0,0,1,5.35,3.38,5.8,5.8,0,0,1,1.15,4.85,8.13,8.13,0,0,1-3.23,5.38,10.66,10.66,0,0,1-6.59,2,7.53,7.53,0,0,1-6.13-2.52,6.55,6.55,0,0,1-1.44-5.78l0-.12h4.59c-.23,1.71,0,2.94.7,3.69a3.67,3.67,0,0,0,2.87,1.14,4.33,4.33,0,0,0,2.89-1A4.16,4.16,0,0,0,189.35,543.31Z"/><path class="cls-9" d="M218.35,538q-1.24,6.23-3.8,9.31a8.13,8.13,0,0,1-6.55,3.09,6.45,6.45,0,0,1-3.1-.73,6.24,6.24,0,0,1-2.27-2.1l-2.49,12.47h-4.91l7.3-36.57h4.4l-.22,2.3a8.35,8.35,0,0,1,2.72-2.08,7.46,7.46,0,0,1,3.21-.71c2.48,0,4.27,1.39,5.39,4.15s1.26,6.22.45,10.35Zm-4.78-.52a18.85,18.85,0,0,0,.26-7.71c-.47-1.95-1.51-2.93-3.14-2.93a3.88,3.88,0,0,0-2.5,1,9.66,9.66,0,0,0-2.14,2.61l-2.69,13.45a3.9,3.9,0,0,0,1.36,2.05,4.07,4.07,0,0,0,2.5.71,4.6,4.6,0,0,0,3.84-2.31,17.35,17.35,0,0,0,2.39-6.33Z"/><path class="cls-9" d="M233.47,549.93c0-.65-.05-1.26-.05-1.81a12.78,12.78,0,0,1,.1-1.64,12.2,12.2,0,0,1-3.17,2.86,6.84,6.84,0,0,1-3.65,1.1,5.13,5.13,0,0,1-4.48-2.15,7,7,0,0,1-.79-5.61,9.42,9.42,0,0,1,3.63-6.07,12.26,12.26,0,0,1,7.36-2h3.42l.53-2.71a5.93,5.93,0,0,0-.2-3.84,2.68,2.68,0,0,0-2.58-1.29,4,4,0,0,0-2.83,1.24,5.45,5.45,0,0,0-1.64,3l-4.66,0-.05-.15a8.74,8.74,0,0,1,3.41-5.52,10.56,10.56,0,0,1,6.82-2.29,6.78,6.78,0,0,1,5.49,2.35q2,2.34,1.15,6.54l-2.47,12.26a23.62,23.62,0,0,0-.41,3,17.36,17.36,0,0,0,0,2.79Zm-4.89-3.3a5.5,5.5,0,0,0,3-1,8.44,8.44,0,0,0,2.51-2.54l1.07-5.42h-3.47a4.77,4.77,0,0,0-3.46,1.49,6.56,6.56,0,0,0-1.91,3.51,4.41,4.41,0,0,0,.17,2.94A2.12,2.12,0,0,0,228.58,546.63Z"/><path class="cls-9" d="M256,516.94l-1.32,6.57h3.88l-.7,3.54H254l-3.13,15.72a5.37,5.37,0,0,0,0,3,1.38,1.38,0,0,0,1.34.8,7,7,0,0,0,1-.08,11.62,11.62,0,0,0,1.17-.22l-.19,3.42a11.55,11.55,0,0,1-1.91.55,10.39,10.39,0,0,1-2.1.21,4.16,4.16,0,0,1-3.77-1.87c-.81-1.24-.94-3.18-.4-5.8l3.12-15.72h-3.24l.7-3.54h3.25l1.32-6.57Z"/><path class="cls-9" d="M263.35,549.93h-4.88l5.27-26.42h4.88ZM270,516.58h-4.89l.95-4.74H271Z"/><path class="cls-9" d="M282,549.93c0-.65,0-1.26,0-1.81a12.78,12.78,0,0,1,.1-1.64,12.2,12.2,0,0,1-3.17,2.86,6.84,6.84,0,0,1-3.65,1.1,5.13,5.13,0,0,1-4.48-2.15,7,7,0,0,1-.79-5.61,9.42,9.42,0,0,1,3.63-6.07,12.26,12.26,0,0,1,7.36-2h3.42l.53-2.71a5.85,5.85,0,0,0-.21-3.84,2.65,2.65,0,0,0-2.57-1.29,4,4,0,0,0-2.83,1.24,5.45,5.45,0,0,0-1.64,3L273,531l0-.15a8.74,8.74,0,0,1,3.41-5.52A10.56,10.56,0,0,1,283.2,523a6.78,6.78,0,0,1,5.49,2.35q2,2.34,1.15,6.54l-2.47,12.26a23.62,23.62,0,0,0-.41,3,17.36,17.36,0,0,0,0,2.79Zm-4.89-3.3a5.5,5.5,0,0,0,3-1,8.44,8.44,0,0,0,2.51-2.54l1.07-5.42h-3.47a4.77,4.77,0,0,0-3.46,1.49,6.56,6.56,0,0,0-1.91,3.51,4.41,4.41,0,0,0,.17,2.94A2.12,2.12,0,0,0,277.14,546.63Z"/><path class="cls-9" d="M297,549.93h-4.88l7.61-38.09h4.89Z"/></svg>